<ttFont>
    <TTGlyph name=".notdef" xMin="100" yMin="0" xMax="658" yMax="531">
      <contour>
        <pt x="100" y="0" on="1"/>
        <pt x="100" y="531" on="1"/>
        <pt x="658" y="531" on="1"/>
        <pt x="658" y="0" on="1"/>
      </contour>
      <contour>
        <pt x="114" y="22" on="1"/>
        <pt x="370" y="266" on="1"/>
        <pt x="114" y="507" on="1"/>
      </contour>
      <contour>
        <pt x="124" y="518" on="1"/>
        <pt x="381" y="276" on="1"/>
        <pt x="635" y="518" on="1"/>
      </contour>
      <contour>
        <pt x="127" y="13" on="1"/>
        <pt x="634" y="13" on="1"/>
        <pt x="381" y="256" on="1"/>
      </contour>
      <contour>
        <pt x="392" y="266" on="1"/>
        <pt x="644" y="25" on="1"/>
        <pt x="644" y="506" on="1"/>
      </contour>
    </TTGlyph>
    <TTGlyph name="A" xMin="30" yMin="0" xMax="690" yMax="732">
      <contour>
        <pt x="30" y="0" on="1"/>
        <pt x="385" y="732" on="1"/>
        <pt x="575" y="732" on="1"/>
        <pt x="690" y="0" on="1"/>
        <pt x="522" y="0" on="1"/>
        <pt x="496" y="147" on="1"/>
        <pt x="281" y="147" on="1"/>
        <pt x="212" y="0" on="1"/>
      </contour>
      <contour>
        <pt x="344" y="289" on="1"/>
        <pt x="483" y="289" on="1"/>
        <pt x="450" y="524" on="1"/>
      </contour>
    </TTGlyph>
    <TTGlyph name="AE" xMin="20" yMin="-4" xMax="1049" yMax="733">
      <contour>
        <pt x="594" y="721" on="1"/>
        <pt x="634" y="730" on="0"/>
        <pt x="682" y="733" on="0"/>
        <pt x="720" y="733" on="0"/>
        <pt x="742" y="732" on="1"/>
        <pt x="964" y="728" on="0"/>
        <pt x="1049" y="716" on="1"/>
        <pt x="1028" y="579" on="1"/>
        <pt x="763" y="579" on="1"/>
        <pt x="726" y="579" on="0"/>
        <pt x="715" y="561" on="1"/>
        <pt x="706" y="547" on="0"/>
        <pt x="702" y="524" on="1"/>
        <pt x="689" y="439" on="1"/>
        <pt x="956" y="428" on="1"/>
        <pt x="935" y="293" on="1"/>
        <pt x="664" y="284" on="1"/>
        <pt x="651" y="201" on="1"/>
        <pt x="645" y="163" on="0"/>
        <pt x="665" y="155" on="1"/>
        <pt x="680" y="149" on="0"/>
        <pt x="705" y="149" on="1"/>
        <pt x="960" y="149" on="1"/>
        <pt x="938" y="14" on="1"/>
        <pt x="864" y="4" on="0"/>
        <pt x="661" y="-3" on="1"/>
        <pt x="638" y="-4" on="1"/>
        <pt x="631" y="-4" on="0"/>
        <pt x="602" y="-4" on="0"/>
        <pt x="577" y="0" on="1"/>
        <pt x="506" y="13" on="0"/>
        <pt x="482" y="58" on="1"/>
        <pt x="472" y="77" on="0"/>
        <pt x="472" y="112" on="0"/>
        <pt x="474" y="123" on="1"/>
        <pt x="484" y="183" on="1"/>
        <pt x="323" y="183" on="1"/>
        <pt x="203" y="0" on="1"/>
        <pt x="20" y="0" on="1"/>
        <pt x="387" y="565" on="1"/>
        <pt x="471" y="693" on="0"/>
      </contour>
      <contour>
        <pt x="413" y="324" on="1"/>
        <pt x="506" y="324" on="1"/>
        <pt x="538" y="522" on="1"/>
      </contour>
    </TTGlyph>
    <TTGlyph name="Aacute" xMin="30" yMin="0" xMax="690" yMax="938">
      <contour>
        <pt x="441" y="797" on="1"/>
        <pt x="548" y="938" on="1"/>
        <pt x="680" y="938" on="1"/>
        <pt x="540" y="797" on="1"/>
      </contour>
      <contour>
        <pt x="30" y="0" on="1"/>
        <pt x="385" y="732" on="1"/>
        <pt x="575" y="732" on="1"/>
        <pt x="690" y="0" on="1"/>
        <pt x="522" y="0" on="1"/>
        <pt x="496" y="147" on="1"/>
        <pt x="281" y="147" on="1"/>
        <pt x="212" y="0" on="1"/>
      </contour>
      <contour>
        <pt x="344" y="289" on="1"/>
        <pt x="483" y="289" on="1"/>
        <pt x="450" y="524" on="1"/>
      </contour>
    </TTGlyph>
    <TTGlyph name="Abreve" xMin="30" yMin="0" xMax="690" yMax="910">
      <contour>
        <pt x="456" y="910" on="1"/>
        <pt x="455" y="905" on="0"/>
        <pt x="455" y="882" on="0"/>
        <pt x="477" y="857" on="0"/>
        <pt x="501" y="857" on="1"/>
        <pt x="501" y="857" on="0"/>
        <pt x="502" y="857" on="1"/>
        <pt x="556" y="857" on="0"/>
        <pt x="562" y="910" on="1"/>
        <pt x="623" y="910" on="1"/>
        <pt x="616" y="837" on="0"/>
        <pt x="562" y="810" on="1"/>
        <pt x="535" y="797" on="0"/>
        <pt x="450" y="797" on="0"/>
        <pt x="393" y="855" on="0"/>
        <pt x="393" y="897" on="1"/>
        <pt x="393" y="903" on="0"/>
        <pt x="394" y="910" on="1"/>
      </contour>
      <contour>
        <pt x="30" y="0" on="1"/>
        <pt x="385" y="732" on="1"/>
        <pt x="575" y="732" on="1"/>
        <pt x="690" y="0" on="1"/>
        <pt x="522" y="0" on="1"/>
        <pt x="496" y="147" on="1"/>
        <pt x="281" y="147" on="1"/>
        <pt x="212" y="0" on="1"/>
      </contour>
      <contour>
        <pt x="344" y="289" on="1"/>
        <pt x="483" y="289" on="1"/>
        <pt x="450" y="524" on="1"/>
      </contour>
    </TTGlyph>
    <TTGlyph name="Acircumflex" xMin="30" yMin="0" xMax="690" yMax="935">
      <contour>
        <pt x="333" y="797" on="1"/>
        <pt x="459" y="934" on="1"/>
        <pt x="575" y="934" on="1"/>
        <pt x="648" y="797" on="1"/>
        <pt x="548" y="797" on="1"/>
        <pt x="511" y="856" on="1"/>
        <pt x="445" y="797" on="1"/>
      </contour>
      <contour>
        <pt x="30" y="0" on="1"/>
        <pt x="385" y="732" on="1"/>
        <pt x="575" y="732" on="1"/>
        <pt x="690" y="0" on="1"/>
        <pt x="522" y="0" on="1"/>
        <pt x="496" y="147" on="1"/>
        <pt x="281" y="147" on="1"/>
        <pt x="212" y="0" on="1"/>
      </contour>
      <contour>
        <pt x="344" y="289" on="1"/>
        <pt x="483" y="289" on="1"/>
        <pt x="450" y="524" on="1"/>
      </contour>
    </TTGlyph>
    <TTGlyph name="Adieresis" xMin="30" yMin="0" xMax="692" yMax="921">
      <contour>
        <pt x="358" y="920" on="0"/>
        <pt x="409" y="920" on="0"/>
        <pt x="436" y="889" on="0"/>
        <pt x="436" y="877" on="1"/>
        <pt x="436" y="838" on="0"/>
        <pt x="389" y="797" on="0"/>
        <pt x="338" y="797" on="0"/>
        <pt x="311" y="830" on="0"/>
        <pt x="311" y="842" on="1"/>
        <pt x="311" y="880" on="0"/>
      </contour>
      <contour>
        <pt x="613" y="920" on="0"/>
        <pt x="664" y="920" on="0"/>
        <pt x="691" y="889" on="0"/>
        <pt x="691" y="877" on="1"/>
        <pt x="691" y="838" on="0"/>
        <pt x="644" y="797" on="0"/>
        <pt x="593" y="797" on="0"/>
        <pt x="566" y="830" on="0"/>
        <pt x="566" y="842" on="1"/>
        <pt x="566" y="880" on="0"/>
      </contour>
      <contour>
        <pt x="30" y="0" on="1"/>
        <pt x="385" y="732" on="1"/>
        <pt x="575" y="732" on="1"/>
        <pt x="690" y="0" on="1"/>
        <pt x="522" y="0" on="1"/>
        <pt x="496" y="147" on="1"/>
        <pt x="281" y="147" on="1"/>
        <pt x="212" y="0" on="1"/>
      </contour>
      <contour>
        <pt x="344" y="289" on="1"/>
        <pt x="483" y="289" on="1"/>
        <pt x="450" y="524" on="1"/>
      </contour>
    </TTGlyph>
    <TTGlyph name="Agrave" xMin="30" yMin="0" xMax="690" yMax="938">
      <contour>
        <pt x="342" y="938" on="1"/>
        <pt x="473" y="938" on="1"/>
        <pt x="540" y="797" on="1"/>
        <pt x="441" y="797" on="1"/>
      </contour>
      <contour>
        <pt x="30" y="0" on="1"/>
        <pt x="385" y="732" on="1"/>
        <pt x="575" y="732" on="1"/>
        <pt x="690" y="0" on="1"/>
        <pt x="522" y="0" on="1"/>
        <pt x="496" y="147" on="1"/>
        <pt x="281" y="147" on="1"/>
        <pt x="212" y="0" on="1"/>
      </contour>
      <contour>
        <pt x="344" y="289" on="1"/>
        <pt x="483" y="289" on="1"/>
        <pt x="450" y="524" on="1"/>
      </contour>
    </TTGlyph>
    <TTGlyph name="Amacron" xMin="30" yMin="0" xMax="690" yMax="883">
      <contour>
        <pt x="345" y="797" on="1"/>
        <pt x="358" y="882" on="1"/>
        <pt x="650" y="882" on="1"/>
        <pt x="637" y="797" on="1"/>
      </contour>
      <contour>
        <pt x="30" y="0" on="1"/>
        <pt x="385" y="732" on="1"/>
        <pt x="575" y="732" on="1"/>
        <pt x="690" y="0" on="1"/>
        <pt x="522" y="0" on="1"/>
        <pt x="496" y="147" on="1"/>
        <pt x="281" y="147" on="1"/>
        <pt x="212" y="0" on="1"/>
      </contour>
      <contour>
        <pt x="344" y="289" on="1"/>
        <pt x="483" y="289" on="1"/>
        <pt x="450" y="524" on="1"/>
      </contour>
    </TTGlyph>
    <TTGlyph name="Aogonek" xMin="55" yMin="-192" xMax="716" yMax="732">
      <contour>
        <pt x="612" y="-68" on="1"/>
        <pt x="612" y="-74" on="0"/>
        <pt x="614" y="-79" on="1"/>
        <pt x="622" y="-110" on="0"/>
        <pt x="660" y="-105" on="1"/>
        <pt x="648" y="-188" on="1"/>
        <pt x="633" y="-192" on="0"/>
        <pt x="603" y="-192" on="0"/>
        <pt x="558" y="-177" on="0"/>
        <pt x="543" y="-155" on="1"/>
        <pt x="523" y="-128" on="0"/>
        <pt x="523" y="-76" on="0"/>
        <pt x="562" y="-20" on="0"/>
        <pt x="605" y="1" on="1"/>
        <pt x="667" y="1" on="1"/>
        <pt x="612" y="-35" on="0"/>
      </contour>
      <contour>
        <pt x="56" y="0" on="1"/>
        <pt x="410" y="732" on="1"/>
        <pt x="601" y="732" on="1"/>
        <pt x="716" y="0" on="1"/>
        <pt x="548" y="0" on="1"/>
        <pt x="522" y="147" on="1"/>
        <pt x="307" y="147" on="1"/>
        <pt x="237" y="0" on="1"/>
      </contour>
      <contour>
        <pt x="369" y="289" on="1"/>
        <pt x="509" y="289" on="1"/>
        <pt x="476" y="524" on="1"/>
      </contour>
    </TTGlyph>
    <TTGlyph name="Aring" xMin="30" yMin="0" xMax="690" yMax="932">
      <contour>
        <pt x="541" y="931" on="0"/>
        <pt x="456" y="931" on="0"/>
        <pt x="389" y="869" on="0"/>
        <pt x="389" y="821" on="1"/>
        <pt x="389" y="785" on="0"/>
        <pt x="442" y="730" on="0"/>
        <pt x="526" y="730" on="0"/>
        <pt x="592" y="792" on="0"/>
        <pt x="592" y="840" on="1"/>
        <pt x="592" y="876" on="0"/>
      </contour>
      <contour>
        <pt x="471" y="792" on="0"/>
        <pt x="450" y="814" on="0"/>
        <pt x="454" y="853" on="0"/>
        <pt x="474" y="865" on="1"/>
        <pt x="484" y="870" on="0"/>
        <pt x="511" y="870" on="0"/>
        <pt x="531" y="847" on="0"/>
        <pt x="527" y="808" on="0"/>
        <pt x="507" y="797" on="1"/>
        <pt x="498" y="792" on="0"/>
      </contour>
      <contour>
        <pt x="30" y="0" on="1"/>
        <pt x="385" y="732" on="1"/>
        <pt x="575" y="732" on="1"/>
        <pt x="690" y="0" on="1"/>
        <pt x="522" y="0" on="1"/>
        <pt x="496" y="147" on="1"/>
        <pt x="281" y="147" on="1"/>
        <pt x="212" y="0" on="1"/>
      </contour>
      <contour>
        <pt x="344" y="289" on="1"/>
        <pt x="483" y="289" on="1"/>
        <pt x="450" y="524" on="1"/>
      </contour>
    </TTGlyph>
    <TTGlyph name="Atilde" xMin="30" yMin="0" xMax="690" yMax="933">
      <contour>
        <pt x="561" y="894" on="1"/>
        <pt x="563" y="894" on="0"/>
        <pt x="580" y="894" on="0"/>
        <pt x="599" y="900" on="1"/>
        <pt x="635" y="911" on="0"/>
        <pt x="661" y="933" on="1"/>
        <pt x="675" y="867" on="1"/>
        <pt x="607" y="797" on="0"/>
        <pt x="551" y="797" on="1"/>
        <pt x="527" y="797" on="0"/>
        <pt x="461" y="832" on="0"/>
        <pt x="438" y="832" on="1"/>
        <pt x="399" y="832" on="0"/>
        <pt x="343" y="797" on="1"/>
        <pt x="328" y="858" on="1"/>
        <pt x="398" y="929" on="0"/>
        <pt x="461" y="929" on="1"/>
        <pt x="485" y="929" on="0"/>
        <pt x="543" y="894" on="0"/>
      </contour>
      <contour>
        <pt x="30" y="0" on="1"/>
        <pt x="385" y="732" on="1"/>
        <pt x="575" y="732" on="1"/>
        <pt x="690" y="0" on="1"/>
        <pt x="522" y="0" on="1"/>
        <pt x="496" y="147" on="1"/>
        <pt x="281" y="147" on="1"/>
        <pt x="212" y="0" on="1"/>
      </contour>
      <contour>
        <pt x="344" y="289" on="1"/>
        <pt x="483" y="289" on="1"/>
        <pt x="450" y="524" on="1"/>
      </contour>
    </TTGlyph>
    <TTGlyph name="B" xMin="53" yMin="0" xMax="658" yMax="732">
      <contour>
        <pt x="472" y="732" on="1"/>
        <pt x="527" y="732" on="0"/>
        <pt x="607" y="697" on="0"/>
        <pt x="626" y="668" on="1"/>
        <pt x="657" y="621" on="0"/>
        <pt x="657" y="562" on="1"/>
        <pt x="657" y="541" on="0"/>
        <pt x="653" y="519" on="1"/>
        <pt x="645" y="464" on="0"/>
        <pt x="575" y="386" on="0"/>
        <pt x="525" y="380" on="1"/>
        <pt x="573" y="372" on="0"/>
        <pt x="600" y="321" on="1"/>
        <pt x="620" y="284" on="0"/>
        <pt x="620" y="234" on="1"/>
        <pt x="620" y="170" on="0"/>
        <pt x="581" y="76" on="0"/>
        <pt x="541" y="32" on="0"/>
        <pt x="509" y="20" on="1"/>
        <pt x="456" y="0" on="0"/>
        <pt x="359" y="0" on="1"/>
        <pt x="54" y="0" on="1"/>
        <pt x="170" y="732" on="1"/>
      </contour>
      <contour>
        <pt x="456" y="252" on="1"/>
        <pt x="456" y="316" on="0"/>
        <pt x="402" y="316" on="1"/>
        <pt x="268" y="316" on="1"/>
        <pt x="240" y="142" on="1"/>
        <pt x="374" y="142" on="1"/>
        <pt x="441" y="142" on="0"/>
        <pt x="454" y="227" on="1"/>
        <pt x="456" y="240" on="0"/>
      </contour>
      <contour>
        <pt x="416" y="450" on="1"/>
        <pt x="457" y="450" on="0"/>
        <pt x="477" y="483" on="1"/>
        <pt x="491" y="506" on="0"/>
        <pt x="491" y="539" on="1"/>
        <pt x="491" y="590" on="0"/>
        <pt x="438" y="590" on="1"/>
        <pt x="312" y="590" on="1"/>
        <pt x="290" y="450" on="1"/>
      </contour>
    </TTGlyph>
    <TTGlyph name="C" xMin="82" yMin="-7" xMax="658" yMax="740">
      <contour>
        <pt x="224" y="698" on="0"/>
        <pt x="330" y="740" on="0"/>
        <pt x="492" y="740" on="0"/>
        <pt x="597" y="724" on="0"/>
        <pt x="658" y="702" on="1"/>
        <pt x="637" y="574" on="1"/>
        <pt x="500" y="591" on="0"/>
        <pt x="429" y="591" on="1"/>
        <pt x="428" y="591" on="0"/>
        <pt x="425" y="591" on="0"/>
        <pt x="406" y="591" on="0"/>
        <pt x="390" y="590" on="0"/>
        <pt x="362" y="586" on="0"/>
        <pt x="347" y="579" on="0"/>
        <pt x="324" y="563" on="0"/>
        <pt x="310" y="541" on="0"/>
        <pt x="291" y="507" on="0"/>
        <pt x="285" y="485" on="1"/>
        <pt x="269" y="430" on="0"/>
        <pt x="248" y="302" on="0"/>
        <pt x="248" y="218" on="0"/>
        <pt x="257" y="194" on="1"/>
        <pt x="277" y="145" on="0"/>
        <pt x="354" y="143" on="1"/>
        <pt x="360" y="143" on="0"/>
        <pt x="446" y="143" on="0"/>
        <pt x="571" y="152" on="1"/>
        <pt x="551" y="24" on="1"/>
        <pt x="498" y="5" on="0"/>
        <pt x="396" y="-6" on="0"/>
        <pt x="307" y="-6" on="0"/>
        <pt x="287" y="-6" on="1"/>
        <pt x="219" y="-5" on="0"/>
        <pt x="128" y="55" on="0"/>
        <pt x="108" y="108" on="1"/>
        <pt x="83" y="174" on="0"/>
        <pt x="83" y="324" on="0"/>
        <pt x="109" y="482" on="0"/>
        <pt x="152" y="607" on="0"/>
      </contour>
    </TTGlyph>
    <TTGlyph name="Cacute" xMin="82" yMin="-7" xMax="658" yMax="941">
      <contour>
        <pt x="406" y="800" on="1"/>
        <pt x="513" y="940" on="1"/>
        <pt x="646" y="940" on="1"/>
        <pt x="505" y="800" on="1"/>
      </contour>
      <contour>
        <pt x="224" y="698" on="0"/>
        <pt x="330" y="740" on="0"/>
        <pt x="492" y="740" on="0"/>
        <pt x="597" y="724" on="0"/>
        <pt x="658" y="702" on="1"/>
        <pt x="637" y="574" on="1"/>
        <pt x="500" y="591" on="0"/>
        <pt x="429" y="591" on="1"/>
        <pt x="428" y="591" on="0"/>
        <pt x="425" y="591" on="0"/>
        <pt x="406" y="591" on="0"/>
        <pt x="390" y="590" on="0"/>
        <pt x="362" y="586" on="0"/>
        <pt x="347" y="579" on="0"/>
        <pt x="324" y="563" on="0"/>
        <pt x="310" y="541" on="0"/>
        <pt x="291" y="507" on="0"/>
        <pt x="285" y="485" on="1"/>
        <pt x="269" y="430" on="0"/>
        <pt x="248" y="302" on="0"/>
        <pt x="248" y="218" on="0"/>
        <pt x="257" y="194" on="1"/>
        <pt x="277" y="145" on="0"/>
        <pt x="354" y="143" on="1"/>
        <pt x="360" y="143" on="0"/>
        <pt x="446" y="143" on="0"/>
        <pt x="571" y="152" on="1"/>
        <pt x="551" y="24" on="1"/>
        <pt x="498" y="5" on="0"/>
        <pt x="396" y="-6" on="0"/>
        <pt x="307" y="-6" on="0"/>
        <pt x="287" y="-6" on="1"/>
        <pt x="219" y="-5" on="0"/>
        <pt x="128" y="55" on="0"/>
        <pt x="108" y="108" on="1"/>
        <pt x="83" y="174" on="0"/>
        <pt x="83" y="324" on="0"/>
        <pt x="109" y="482" on="0"/>
        <pt x="152" y="607" on="0"/>
      </contour>
    </TTGlyph>
    <TTGlyph name="Ccaron" xMin="82" yMin="-7" xMax="658" yMax="938">
      <contour>
        <pt x="326" y="938" on="1"/>
        <pt x="426" y="938" on="1"/>
        <pt x="466" y="878" on="1"/>
        <pt x="529" y="938" on="1"/>
        <pt x="641" y="938" on="1"/>
        <pt x="515" y="800" on="1"/>
        <pt x="403" y="800" on="1"/>
      </contour>
      <contour>
        <pt x="224" y="698" on="0"/>
        <pt x="330" y="740" on="0"/>
        <pt x="492" y="740" on="0"/>
        <pt x="597" y="724" on="0"/>
        <pt x="658" y="702" on="1"/>
        <pt x="637" y="574" on="1"/>
        <pt x="500" y="591" on="0"/>
        <pt x="429" y="591" on="1"/>
        <pt x="428" y="591" on="0"/>
        <pt x="425" y="591" on="0"/>
        <pt x="406" y="591" on="0"/>
        <pt x="390" y="590" on="0"/>
        <pt x="362" y="586" on="0"/>
        <pt x="347" y="579" on="0"/>
        <pt x="324" y="563" on="0"/>
        <pt x="310" y="541" on="0"/>
        <pt x="291" y="507" on="0"/>
        <pt x="285" y="485" on="1"/>
        <pt x="269" y="430" on="0"/>
        <pt x="248" y="302" on="0"/>
        <pt x="248" y="218" on="0"/>
        <pt x="257" y="194" on="1"/>
        <pt x="277" y="145" on="0"/>
        <pt x="354" y="143" on="1"/>
        <pt x="360" y="143" on="0"/>
        <pt x="446" y="143" on="0"/>
        <pt x="571" y="152" on="1"/>
        <pt x="551" y="24" on="1"/>
        <pt x="498" y="5" on="0"/>
        <pt x="396" y="-6" on="0"/>
        <pt x="307" y="-6" on="0"/>
        <pt x="287" y="-6" on="1"/>
        <pt x="219" y="-5" on="0"/>
        <pt x="128" y="55" on="0"/>
        <pt x="108" y="108" on="1"/>
        <pt x="83" y="174" on="0"/>
        <pt x="83" y="324" on="0"/>
        <pt x="109" y="482" on="0"/>
        <pt x="152" y="607" on="0"/>
      </contour>
    </TTGlyph>
    <TTGlyph name="Ccedilla" xMin="82" yMin="-180" xMax="658" yMax="740">
      <contour>
        <pt x="224" y="698" on="0"/>
        <pt x="330" y="740" on="0"/>
        <pt x="492" y="740" on="0"/>
        <pt x="597" y="724" on="0"/>
        <pt x="658" y="702" on="1"/>
        <pt x="637" y="574" on="1"/>
        <pt x="500" y="591" on="0"/>
        <pt x="429" y="591" on="1"/>
        <pt x="428" y="591" on="0"/>
        <pt x="425" y="591" on="0"/>
        <pt x="408" y="591" on="0"/>
        <pt x="393" y="590" on="0"/>
        <pt x="367" y="588" on="0"/>
        <pt x="354" y="582" on="0"/>
        <pt x="332" y="571" on="0"/>
        <pt x="319" y="554" on="0"/>
        <pt x="302" y="530" on="0"/>
        <pt x="290" y="497" on="0"/>
        <pt x="283" y="476" on="1"/>
        <pt x="271" y="438" on="0"/>
        <pt x="248" y="302" on="0"/>
        <pt x="248" y="218" on="0"/>
        <pt x="257" y="194" on="1"/>
        <pt x="277" y="145" on="0"/>
        <pt x="354" y="143" on="1"/>
        <pt x="360" y="143" on="0"/>
        <pt x="446" y="143" on="0"/>
        <pt x="571" y="152" on="1"/>
        <pt x="551" y="24" on="1"/>
        <pt x="498" y="5" on="0"/>
        <pt x="396" y="-6" on="0"/>
        <pt x="307" y="-6" on="0"/>
        <pt x="287" y="-6" on="1"/>
        <pt x="219" y="-5" on="0"/>
        <pt x="128" y="55" on="0"/>
        <pt x="108" y="108" on="1"/>
        <pt x="83" y="174" on="0"/>
        <pt x="83" y="324" on="0"/>
        <pt x="109" y="482" on="0"/>
        <pt x="152" y="607" on="0"/>
      </contour>
      <contour>
        <pt x="230" y="-180" on="1"/>
        <pt x="171" y="-180" on="1"/>
        <pt x="182" y="-111" on="1"/>
        <pt x="225" y="-96" on="1"/>
        <pt x="247" y="-88" on="0"/>
        <pt x="260" y="-67" on="0"/>
        <pt x="264" y="-36" on="1"/>
        <pt x="369" y="-36" on="1"/>
        <pt x="357" y="-114" on="0"/>
        <pt x="295" y="-180" on="0"/>
      </contour>
    </TTGlyph>
    <TTGlyph name="Ccircumflex" xMin="82" yMin="-7" xMax="658" yMax="938">
      <contour>
        <pt x="284" y="800" on="1"/>
        <pt x="410" y="938" on="1"/>
        <pt x="526" y="938" on="1"/>
        <pt x="599" y="800" on="1"/>
        <pt x="499" y="800" on="1"/>
        <pt x="462" y="859" on="1"/>
        <pt x="396" y="800" on="1"/>
      </contour>
      <contour>
        <pt x="224" y="698" on="0"/>
        <pt x="330" y="740" on="0"/>
        <pt x="492" y="740" on="0"/>
        <pt x="597" y="724" on="0"/>
        <pt x="658" y="702" on="1"/>
        <pt x="637" y="574" on="1"/>
        <pt x="500" y="591" on="0"/>
        <pt x="429" y="591" on="1"/>
        <pt x="428" y="591" on="0"/>
        <pt x="425" y="591" on="0"/>
        <pt x="406" y="591" on="0"/>
        <pt x="390" y="590" on="0"/>
        <pt x="362" y="586" on="0"/>
        <pt x="347" y="579" on="0"/>
        <pt x="324" y="563" on="0"/>
        <pt x="310" y="541" on="0"/>
        <pt x="291" y="507" on="0"/>
        <pt x="285" y="485" on="1"/>
        <pt x="269" y="430" on="0"/>
        <pt x="248" y="302" on="0"/>
        <pt x="248" y="218" on="0"/>
        <pt x="257" y="194" on="1"/>
        <pt x="277" y="145" on="0"/>
        <pt x="354" y="143" on="1"/>
        <pt x="360" y="143" on="0"/>
        <pt x="446" y="143" on="0"/>
        <pt x="571" y="152" on="1"/>
        <pt x="551" y="24" on="1"/>
        <pt x="498" y="5" on="0"/>
        <pt x="396" y="-6" on="0"/>
        <pt x="307" y="-6" on="0"/>
        <pt x="287" y="-6" on="1"/>
        <pt x="219" y="-5" on="0"/>
        <pt x="128" y="55" on="0"/>
        <pt x="108" y="108" on="1"/>
        <pt x="83" y="174" on="0"/>
        <pt x="83" y="324" on="0"/>
        <pt x="109" y="482" on="0"/>
        <pt x="152" y="607" on="0"/>
      </contour>
    </TTGlyph>
    <TTGlyph name="Cdotaccent" xMin="82" yMin="-7" xMax="658" yMax="932">
      <contour>
        <pt x="425" y="932" on="1"/>
        <pt x="505" y="932" on="1"/>
        <pt x="528" y="932" on="0"/>
        <pt x="524" y="907" on="1"/>
        <pt x="511" y="823" on="1"/>
        <pt x="508" y="800" on="0"/>
        <pt x="485" y="800" on="1"/>
        <pt x="405" y="800" on="1"/>
        <pt x="394" y="800" on="0"/>
        <pt x="382" y="813" on="0"/>
        <pt x="384" y="823" on="1"/>
        <pt x="397" y="907" on="1"/>
        <pt x="401" y="932" on="0"/>
      </contour>
      <contour>
        <pt x="224" y="698" on="0"/>
        <pt x="330" y="740" on="0"/>
        <pt x="492" y="740" on="0"/>
        <pt x="597" y="724" on="0"/>
        <pt x="658" y="702" on="1"/>
        <pt x="637" y="574" on="1"/>
        <pt x="500" y="591" on="0"/>
        <pt x="429" y="591" on="1"/>
        <pt x="428" y="591" on="0"/>
        <pt x="425" y="591" on="0"/>
        <pt x="406" y="591" on="0"/>
        <pt x="390" y="590" on="0"/>
        <pt x="362" y="586" on="0"/>
        <pt x="347" y="579" on="0"/>
        <pt x="324" y="563" on="0"/>
        <pt x="310" y="541" on="0"/>
        <pt x="291" y="507" on="0"/>
        <pt x="285" y="485" on="1"/>
        <pt x="269" y="430" on="0"/>
        <pt x="248" y="302" on="0"/>
        <pt x="248" y="218" on="0"/>
        <pt x="257" y="194" on="1"/>
        <pt x="277" y="145" on="0"/>
        <pt x="354" y="143" on="1"/>
        <pt x="360" y="143" on="0"/>
        <pt x="446" y="143" on="0"/>
        <pt x="571" y="152" on="1"/>
        <pt x="551" y="24" on="1"/>
        <pt x="498" y="5" on="0"/>
        <pt x="396" y="-6" on="0"/>
        <pt x="307" y="-6" on="0"/>
        <pt x="287" y="-6" on="1"/>
        <pt x="219" y="-5" on="0"/>
        <pt x="128" y="55" on="0"/>
        <pt x="108" y="108" on="1"/>
        <pt x="83" y="174" on="0"/>
        <pt x="83" y="324" on="0"/>
        <pt x="109" y="482" on="0"/>
        <pt x="152" y="607" on="0"/>
      </contour>
    </TTGlyph>
    <TTGlyph name="D" xMin="53" yMin="0" xMax="685" yMax="732">
      <contour>
        <pt x="475" y="732" on="1"/>
        <pt x="535" y="732" on="0"/>
        <pt x="620" y="688" on="0"/>
        <pt x="643" y="652" on="1"/>
        <pt x="684" y="585" on="0"/>
        <pt x="684" y="470" on="1"/>
        <pt x="684" y="414" on="0"/>
        <pt x="673" y="340" on="1"/>
        <pt x="635" y="91" on="0"/>
        <pt x="519" y="30" on="1"/>
        <pt x="461" y="0" on="0"/>
        <pt x="372" y="0" on="1"/>
        <pt x="54" y="0" on="1"/>
        <pt x="170" y="732" on="1"/>
        <pt x="170" y="732" on="0"/>
      </contour>
      <contour>
        <pt x="368" y="142" on="1"/>
        <pt x="426" y="142" on="0"/>
        <pt x="492" y="252" on="0"/>
        <pt x="510" y="364" on="1"/>
        <pt x="521" y="446" on="0"/>
        <pt x="521" y="525" on="0"/>
        <pt x="498" y="572" on="0"/>
        <pt x="461" y="590" on="0"/>
        <pt x="432" y="590" on="1"/>
        <pt x="311" y="590" on="1"/>
        <pt x="240" y="142" on="1"/>
      </contour>
    </TTGlyph>
    <TTGlyph name="Dcaron" xMin="57" yMin="0" xMax="689" yMax="934">
      <contour>
        <pt x="303" y="933" on="1"/>
        <pt x="403" y="933" on="1"/>
        <pt x="443" y="874" on="1"/>
        <pt x="506" y="933" on="1"/>
        <pt x="618" y="933" on="1"/>
        <pt x="492" y="796" on="1"/>
        <pt x="380" y="796" on="1"/>
      </contour>
      <contour>
        <pt x="479" y="732" on="1"/>
        <pt x="539" y="732" on="0"/>
        <pt x="624" y="688" on="0"/>
        <pt x="647" y="652" on="1"/>
        <pt x="688" y="585" on="0"/>
        <pt x="688" y="470" on="1"/>
        <pt x="688" y="414" on="0"/>
        <pt x="677" y="340" on="1"/>
        <pt x="639" y="91" on="0"/>
        <pt x="523" y="30" on="1"/>
        <pt x="465" y="0" on="0"/>
        <pt x="376" y="0" on="1"/>
        <pt x="58" y="0" on="1"/>
        <pt x="174" y="732" on="1"/>
        <pt x="174" y="732" on="0"/>
      </contour>
      <contour>
        <pt x="372" y="142" on="1"/>
        <pt x="430" y="142" on="0"/>
        <pt x="496" y="252" on="0"/>
        <pt x="514" y="364" on="1"/>
        <pt x="525" y="446" on="0"/>
        <pt x="525" y="525" on="0"/>
        <pt x="502" y="572" on="0"/>
        <pt x="465" y="590" on="0"/>
        <pt x="436" y="590" on="1"/>
        <pt x="315" y="590" on="1"/>
        <pt x="244" y="142" on="1"/>
      </contour>
    </TTGlyph>
    <TTGlyph name="Dcroat" xMin="56" yMin="0" xMax="700" yMax="732">
      <contour>
        <pt x="494" y="732" on="1"/>
        <pt x="554" y="732" on="0"/>
        <pt x="638" y="685" on="0"/>
        <pt x="660" y="648" on="1"/>
        <pt x="699" y="581" on="0"/>
        <pt x="699" y="470" on="1"/>
        <pt x="699" y="413" on="0"/>
        <pt x="688" y="340" on="1"/>
        <pt x="657" y="156" on="0"/>
        <pt x="523" y="0" on="0"/>
        <pt x="393" y="0" on="1"/>
        <pt x="68" y="0" on="1"/>
        <pt x="121" y="338" on="1"/>
        <pt x="56" y="338" on="1"/>
        <pt x="68" y="408" on="1"/>
        <pt x="132" y="408" on="1"/>
        <pt x="184" y="732" on="1"/>
        <pt x="184" y="732" on="0"/>
      </contour>
      <contour>
        <pt x="386" y="142" on="1"/>
        <pt x="441" y="142" on="0"/>
        <pt x="506" y="253" on="0"/>
        <pt x="520" y="343" on="1"/>
        <pt x="535" y="438" on="0"/>
        <pt x="535" y="525" on="0"/>
        <pt x="516" y="572" on="0"/>
        <pt x="483" y="590" on="0"/>
        <pt x="457" y="590" on="1"/>
        <pt x="325" y="590" on="1"/>
        <pt x="296" y="408" on="1"/>
        <pt x="398" y="408" on="1"/>
        <pt x="387" y="338" on="1"/>
        <pt x="285" y="338" on="1"/>
        <pt x="254" y="142" on="1"/>
      </contour>
    </TTGlyph>
    <TTGlyph name="E" xMin="69" yMin="-4" xMax="642" yMax="733">
      <contour>
        <pt x="214" y="706" on="1"/>
        <pt x="242" y="721" on="0"/>
        <pt x="297" y="732" on="0"/>
        <pt x="333" y="732" on="0"/>
        <pt x="335" y="732" on="1"/>
        <pt x="556" y="728" on="0"/>
        <pt x="642" y="716" on="1"/>
        <pt x="620" y="579" on="1"/>
        <pt x="356" y="579" on="1"/>
        <pt x="307" y="579" on="0"/>
        <pt x="298" y="540" on="1"/>
        <pt x="297" y="534" on="0"/>
        <pt x="295" y="523" on="1"/>
        <pt x="283" y="443" on="1"/>
        <pt x="549" y="432" on="1"/>
        <pt x="527" y="297" on="1"/>
        <pt x="258" y="288" on="1"/>
        <pt x="244" y="202" on="1"/>
        <pt x="238" y="164" on="0"/>
        <pt x="258" y="156" on="1"/>
        <pt x="273" y="150" on="0"/>
        <pt x="298" y="150" on="1"/>
        <pt x="553" y="150" on="1"/>
        <pt x="531" y="14" on="1"/>
        <pt x="460" y="5" on="0"/>
        <pt x="286" y="-1" on="1"/>
        <pt x="228" y="-3" on="1"/>
        <pt x="223" y="-3" on="0"/>
        <pt x="200" y="-3" on="0"/>
        <pt x="160" y="3" on="0"/>
        <pt x="136" y="14" on="1"/>
        <pt x="70" y="45" on="0"/>
        <pt x="70" y="126" on="1"/>
        <pt x="70" y="142" on="0"/>
        <pt x="72" y="160" on="1"/>
        <pt x="139" y="580" on="1"/>
        <pt x="154" y="675" on="0"/>
      </contour>
    </TTGlyph>
    <TTGlyph name="Eacute" xMin="69" yMin="-4" xMax="642" yMax="933">
      <contour>
        <pt x="376" y="792" on="1"/>
        <pt x="482" y="932" on="1"/>
        <pt x="615" y="932" on="1"/>
        <pt x="474" y="792" on="1"/>
      </contour>
      <contour>
        <pt x="214" y="706" on="1"/>
        <pt x="242" y="721" on="0"/>
        <pt x="297" y="732" on="0"/>
        <pt x="333" y="732" on="0"/>
        <pt x="335" y="732" on="1"/>
        <pt x="556" y="728" on="0"/>
        <pt x="642" y="716" on="1"/>
        <pt x="620" y="579" on="1"/>
        <pt x="356" y="579" on="1"/>
        <pt x="307" y="579" on="0"/>
        <pt x="298" y="540" on="1"/>
        <pt x="297" y="534" on="0"/>
        <pt x="295" y="523" on="1"/>
        <pt x="283" y="443" on="1"/>
        <pt x="549" y="432" on="1"/>
        <pt x="527" y="297" on="1"/>
        <pt x="258" y="288" on="1"/>
        <pt x="244" y="202" on="1"/>
        <pt x="238" y="164" on="0"/>
        <pt x="258" y="156" on="1"/>
        <pt x="273" y="150" on="0"/>
        <pt x="298" y="150" on="1"/>
        <pt x="553" y="150" on="1"/>
        <pt x="531" y="14" on="1"/>
        <pt x="460" y="5" on="0"/>
        <pt x="286" y="-1" on="1"/>
        <pt x="228" y="-3" on="1"/>
        <pt x="223" y="-3" on="0"/>
        <pt x="200" y="-3" on="0"/>
        <pt x="160" y="3" on="0"/>
        <pt x="136" y="14" on="1"/>
        <pt x="70" y="45" on="0"/>
        <pt x="70" y="126" on="1"/>
        <pt x="70" y="142" on="0"/>
        <pt x="72" y="160" on="1"/>
        <pt x="139" y="580" on="1"/>
        <pt x="154" y="675" on="0"/>
      </contour>
    </TTGlyph>
    <TTGlyph name="Ecaron" xMin="69" yMin="-4" xMax="642" yMax="935">
      <contour>
        <pt x="292" y="934" on="1"/>
        <pt x="391" y="934" on="1"/>
        <pt x="432" y="876" on="1"/>
        <pt x="495" y="934" on="1"/>
        <pt x="606" y="934" on="1"/>
        <pt x="480" y="797" on="1"/>
        <pt x="368" y="797" on="1"/>
      </contour>
      <contour>
        <pt x="214" y="706" on="1"/>
        <pt x="242" y="721" on="0"/>
        <pt x="297" y="732" on="0"/>
        <pt x="333" y="732" on="0"/>
        <pt x="335" y="732" on="1"/>
        <pt x="556" y="728" on="0"/>
        <pt x="642" y="716" on="1"/>
        <pt x="620" y="579" on="1"/>
        <pt x="356" y="579" on="1"/>
        <pt x="307" y="579" on="0"/>
        <pt x="298" y="540" on="1"/>
        <pt x="297" y="534" on="0"/>
        <pt x="295" y="523" on="1"/>
        <pt x="283" y="443" on="1"/>
        <pt x="549" y="432" on="1"/>
        <pt x="527" y="297" on="1"/>
        <pt x="258" y="288" on="1"/>
        <pt x="244" y="202" on="1"/>
        <pt x="238" y="164" on="0"/>
        <pt x="258" y="156" on="1"/>
        <pt x="273" y="150" on="0"/>
        <pt x="298" y="150" on="1"/>
        <pt x="553" y="150" on="1"/>
        <pt x="531" y="14" on="1"/>
        <pt x="460" y="5" on="0"/>
        <pt x="286" y="-1" on="1"/>
        <pt x="228" y="-3" on="1"/>
        <pt x="223" y="-3" on="0"/>
        <pt x="200" y="-3" on="0"/>
        <pt x="160" y="3" on="0"/>
        <pt x="136" y="14" on="1"/>
        <pt x="70" y="45" on="0"/>
        <pt x="70" y="126" on="1"/>
        <pt x="70" y="142" on="0"/>
        <pt x="72" y="160" on="1"/>
        <pt x="139" y="580" on="1"/>
        <pt x="154" y="675" on="0"/>
      </contour>
    </TTGlyph>
    <TTGlyph name="Ecircumflex" xMin="69" yMin="-4" xMax="642" yMax="930">
      <contour>
        <pt x="272" y="792" on="1"/>
        <pt x="398" y="930" on="1"/>
        <pt x="514" y="930" on="1"/>
        <pt x="586" y="792" on="1"/>
        <pt x="486" y="792" on="1"/>
        <pt x="449" y="850" on="1"/>
        <pt x="392" y="792" on="1"/>
      </contour>
      <contour>
        <pt x="214" y="706" on="1"/>
        <pt x="242" y="721" on="0"/>
        <pt x="297" y="732" on="0"/>
        <pt x="333" y="732" on="0"/>
        <pt x="335" y="732" on="1"/>
        <pt x="556" y="728" on="0"/>
        <pt x="642" y="716" on="1"/>
        <pt x="620" y="579" on="1"/>
        <pt x="356" y="579" on="1"/>
        <pt x="307" y="579" on="0"/>
        <pt x="298" y="540" on="1"/>
        <pt x="297" y="534" on="0"/>
        <pt x="295" y="523" on="1"/>
        <pt x="283" y="443" on="1"/>
        <pt x="549" y="432" on="1"/>
        <pt x="527" y="297" on="1"/>
        <pt x="258" y="288" on="1"/>
        <pt x="244" y="202" on="1"/>
        <pt x="238" y="164" on="0"/>
        <pt x="258" y="156" on="1"/>
        <pt x="273" y="150" on="0"/>
        <pt x="298" y="150" on="1"/>
        <pt x="553" y="150" on="1"/>
        <pt x="531" y="14" on="1"/>
        <pt x="460" y="5" on="0"/>
        <pt x="286" y="-1" on="1"/>
        <pt x="228" y="-3" on="1"/>
        <pt x="223" y="-3" on="0"/>
        <pt x="200" y="-3" on="0"/>
        <pt x="160" y="3" on="0"/>
        <pt x="136" y="14" on="1"/>
        <pt x="70" y="45" on="0"/>
        <pt x="70" y="126" on="1"/>
        <pt x="70" y="142" on="0"/>
        <pt x="72" y="160" on="1"/>
        <pt x="139" y="580" on="1"/>
        <pt x="154" y="675" on="0"/>
      </contour>
    </TTGlyph>
    <TTGlyph name="Edieresis" xMin="69" yMin="-4" xMax="642" yMax="905">
      <contour>
        <pt x="283" y="904" on="0"/>
        <pt x="334" y="904" on="0"/>
        <pt x="361" y="872" on="0"/>
        <pt x="361" y="860" on="1"/>
        <pt x="361" y="822" on="0"/>
        <pt x="314" y="781" on="0"/>
        <pt x="293" y="781" on="1"/>
        <pt x="253" y="781" on="0"/>
        <pt x="240" y="812" on="1"/>
        <pt x="236" y="822" on="0"/>
        <pt x="236" y="830" on="1"/>
        <pt x="236" y="864" on="0"/>
      </contour>
      <contour>
        <pt x="538" y="904" on="0"/>
        <pt x="589" y="904" on="0"/>
        <pt x="616" y="872" on="0"/>
        <pt x="616" y="860" on="1"/>
        <pt x="616" y="822" on="0"/>
        <pt x="569" y="781" on="0"/>
        <pt x="548" y="781" on="1"/>
        <pt x="508" y="781" on="0"/>
        <pt x="495" y="812" on="1"/>
        <pt x="491" y="822" on="0"/>
        <pt x="491" y="830" on="1"/>
        <pt x="491" y="864" on="0"/>
      </contour>
      <contour>
        <pt x="214" y="706" on="1"/>
        <pt x="242" y="721" on="0"/>
        <pt x="297" y="732" on="0"/>
        <pt x="333" y="732" on="0"/>
        <pt x="335" y="732" on="1"/>
        <pt x="556" y="728" on="0"/>
        <pt x="642" y="716" on="1"/>
        <pt x="620" y="579" on="1"/>
        <pt x="356" y="579" on="1"/>
        <pt x="307" y="579" on="0"/>
        <pt x="298" y="540" on="1"/>
        <pt x="297" y="534" on="0"/>
        <pt x="295" y="523" on="1"/>
        <pt x="283" y="443" on="1"/>
        <pt x="549" y="432" on="1"/>
        <pt x="527" y="297" on="1"/>
        <pt x="258" y="288" on="1"/>
        <pt x="244" y="202" on="1"/>
        <pt x="238" y="164" on="0"/>
        <pt x="258" y="156" on="1"/>
        <pt x="273" y="150" on="0"/>
        <pt x="298" y="150" on="1"/>
        <pt x="553" y="150" on="1"/>
        <pt x="531" y="14" on="1"/>
        <pt x="460" y="5" on="0"/>
        <pt x="286" y="-1" on="1"/>
        <pt x="228" y="-3" on="1"/>
        <pt x="223" y="-3" on="0"/>
        <pt x="200" y="-3" on="0"/>
        <pt x="160" y="3" on="0"/>
        <pt x="136" y="14" on="1"/>
        <pt x="70" y="45" on="0"/>
        <pt x="70" y="126" on="1"/>
        <pt x="70" y="142" on="0"/>
        <pt x="72" y="160" on="1"/>
        <pt x="139" y="580" on="1"/>
        <pt x="154" y="675" on="0"/>
      </contour>
    </TTGlyph>
    <TTGlyph name="Edotaccent" xMin="69" yMin="-4" xMax="642" yMax="929">
      <contour>
        <pt x="413" y="929" on="1"/>
        <pt x="493" y="929" on="1"/>
        <pt x="515" y="929" on="0"/>
        <pt x="512" y="904" on="1"/>
        <pt x="498" y="820" on="1"/>
        <pt x="495" y="797" on="0"/>
        <pt x="472" y="797" on="1"/>
        <pt x="392" y="797" on="1"/>
        <pt x="381" y="797" on="0"/>
        <pt x="370" y="810" on="0"/>
        <pt x="371" y="820" on="1"/>
        <pt x="385" y="904" on="1"/>
        <pt x="388" y="929" on="0"/>
      </contour>
      <contour>
        <pt x="214" y="706" on="1"/>
        <pt x="242" y="721" on="0"/>
        <pt x="297" y="732" on="0"/>
        <pt x="333" y="732" on="0"/>
        <pt x="335" y="732" on="1"/>
        <pt x="556" y="728" on="0"/>
        <pt x="642" y="716" on="1"/>
        <pt x="620" y="579" on="1"/>
        <pt x="356" y="579" on="1"/>
        <pt x="307" y="579" on="0"/>
        <pt x="298" y="540" on="1"/>
        <pt x="297" y="534" on="0"/>
        <pt x="295" y="523" on="1"/>
        <pt x="283" y="443" on="1"/>
        <pt x="549" y="432" on="1"/>
        <pt x="527" y="297" on="1"/>
        <pt x="258" y="288" on="1"/>
        <pt x="244" y="202" on="1"/>
        <pt x="238" y="164" on="0"/>
        <pt x="258" y="156" on="1"/>
        <pt x="273" y="150" on="0"/>
        <pt x="298" y="150" on="1"/>
        <pt x="553" y="150" on="1"/>
        <pt x="531" y="14" on="1"/>
        <pt x="460" y="5" on="0"/>
        <pt x="286" y="-1" on="1"/>
        <pt x="228" y="-3" on="1"/>
        <pt x="223" y="-3" on="0"/>
        <pt x="200" y="-3" on="0"/>
        <pt x="160" y="3" on="0"/>
        <pt x="136" y="14" on="1"/>
        <pt x="70" y="45" on="0"/>
        <pt x="70" y="126" on="1"/>
        <pt x="70" y="142" on="0"/>
        <pt x="72" y="160" on="1"/>
        <pt x="139" y="580" on="1"/>
        <pt x="154" y="675" on="0"/>
      </contour>
    </TTGlyph>
    <TTGlyph name="Egrave" xMin="69" yMin="-4" xMax="642" yMax="933">
      <contour>
        <pt x="273" y="932" on="1"/>
        <pt x="404" y="932" on="1"/>
        <pt x="470" y="792" on="1"/>
        <pt x="372" y="792" on="1"/>
      </contour>
      <contour>
        <pt x="214" y="706" on="1"/>
        <pt x="242" y="721" on="0"/>
        <pt x="297" y="732" on="0"/>
        <pt x="333" y="732" on="0"/>
        <pt x="335" y="732" on="1"/>
        <pt x="556" y="728" on="0"/>
        <pt x="642" y="716" on="1"/>
        <pt x="620" y="579" on="1"/>
        <pt x="356" y="579" on="1"/>
        <pt x="307" y="579" on="0"/>
        <pt x="298" y="540" on="1"/>
        <pt x="297" y="534" on="0"/>
        <pt x="295" y="523" on="1"/>
        <pt x="283" y="443" on="1"/>
        <pt x="549" y="432" on="1"/>
        <pt x="527" y="297" on="1"/>
        <pt x="258" y="288" on="1"/>
        <pt x="244" y="202" on="1"/>
        <pt x="238" y="164" on="0"/>
        <pt x="258" y="156" on="1"/>
        <pt x="273" y="150" on="0"/>
        <pt x="298" y="150" on="1"/>
        <pt x="553" y="150" on="1"/>
        <pt x="531" y="14" on="1"/>
        <pt x="460" y="5" on="0"/>
        <pt x="286" y="-1" on="1"/>
        <pt x="228" y="-3" on="1"/>
        <pt x="223" y="-3" on="0"/>
        <pt x="200" y="-3" on="0"/>
        <pt x="160" y="3" on="0"/>
        <pt x="136" y="14" on="1"/>
        <pt x="70" y="45" on="0"/>
        <pt x="70" y="126" on="1"/>
        <pt x="70" y="142" on="0"/>
        <pt x="72" y="160" on="1"/>
        <pt x="139" y="580" on="1"/>
        <pt x="154" y="675" on="0"/>
      </contour>
    </TTGlyph>
    <TTGlyph name="Emacron" xMin="69" yMin="-4" xMax="642" yMax="878">
      <contour>
        <pt x="276" y="792" on="1"/>
        <pt x="290" y="878" on="1"/>
        <pt x="582" y="878" on="1"/>
        <pt x="568" y="792" on="1"/>
      </contour>
      <contour>
        <pt x="214" y="706" on="1"/>
        <pt x="242" y="721" on="0"/>
        <pt x="297" y="732" on="0"/>
        <pt x="333" y="732" on="0"/>
        <pt x="335" y="732" on="1"/>
        <pt x="556" y="728" on="0"/>
        <pt x="642" y="716" on="1"/>
        <pt x="620" y="579" on="1"/>
        <pt x="356" y="579" on="1"/>
        <pt x="307" y="579" on="0"/>
        <pt x="298" y="540" on="1"/>
        <pt x="297" y="534" on="0"/>
        <pt x="295" y="523" on="1"/>
        <pt x="283" y="443" on="1"/>
        <pt x="549" y="432" on="1"/>
        <pt x="527" y="297" on="1"/>
        <pt x="258" y="288" on="1"/>
        <pt x="244" y="202" on="1"/>
        <pt x="238" y="164" on="0"/>
        <pt x="258" y="156" on="1"/>
        <pt x="273" y="150" on="0"/>
        <pt x="298" y="150" on="1"/>
        <pt x="553" y="150" on="1"/>
        <pt x="531" y="14" on="1"/>
        <pt x="460" y="5" on="0"/>
        <pt x="286" y="-1" on="1"/>
        <pt x="228" y="-3" on="1"/>
        <pt x="223" y="-3" on="0"/>
        <pt x="200" y="-3" on="0"/>
        <pt x="160" y="3" on="0"/>
        <pt x="136" y="14" on="1"/>
        <pt x="70" y="45" on="0"/>
        <pt x="70" y="126" on="1"/>
        <pt x="70" y="142" on="0"/>
        <pt x="72" y="160" on="1"/>
        <pt x="139" y="580" on="1"/>
        <pt x="154" y="675" on="0"/>
      </contour>
    </TTGlyph>
    <TTGlyph name="Eng" xMin="53" yMin="-259" xMax="749" yMax="732">
      <contour>
        <pt x="569" y="-198" on="0"/>
        <pt x="509" y="-236" on="0"/>
        <pt x="437" y="-259" on="0"/>
        <pt x="418" y="-259" on="1"/>
        <pt x="375" y="-259" on="0"/>
        <pt x="325" y="-257" on="1"/>
        <pt x="344" y="-140" on="1"/>
        <pt x="347" y="-140" on="0"/>
        <pt x="370" y="-138" on="0"/>
        <pt x="387" y="-136" on="0"/>
        <pt x="414" y="-130" on="0"/>
        <pt x="429" y="-120" on="0"/>
        <pt x="437" y="-112" on="1"/>
        <pt x="453" y="-98" on="0"/>
        <pt x="458" y="-62" on="1"/>
        <pt x="469" y="2" on="1"/>
        <pt x="286" y="422" on="1"/>
        <pt x="219" y="0" on="1"/>
        <pt x="54" y="0" on="1"/>
        <pt x="170" y="732" on="1"/>
        <pt x="335" y="732" on="1"/>
        <pt x="517" y="303" on="1"/>
        <pt x="585" y="732" on="1"/>
        <pt x="749" y="732" on="1"/>
        <pt x="622" y="-69" on="1"/>
        <pt x="614" y="-122" on="0"/>
      </contour>
    </TTGlyph>
    <TTGlyph name="Eogonek" xMin="70" yMin="-179" xMax="643" yMax="733">
      <contour>
        <pt x="477" y="-55" on="1"/>
        <pt x="477" y="-60" on="0"/>
        <pt x="478" y="-66" on="1"/>
        <pt x="486" y="-96" on="0"/>
        <pt x="525" y="-92" on="1"/>
        <pt x="512" y="-174" on="1"/>
        <pt x="497" y="-179" on="0"/>
        <pt x="467" y="-179" on="0"/>
        <pt x="423" y="-164" on="0"/>
        <pt x="407" y="-142" on="1"/>
        <pt x="388" y="-115" on="0"/>
        <pt x="388" y="-62" on="0"/>
        <pt x="427" y="-7" on="0"/>
        <pt x="470" y="14" on="1"/>
        <pt x="531" y="14" on="1"/>
        <pt x="477" y="-22" on="0"/>
      </contour>
      <contour>
        <pt x="215" y="706" on="1"/>
        <pt x="243" y="721" on="0"/>
        <pt x="298" y="732" on="0"/>
        <pt x="334" y="732" on="0"/>
        <pt x="336" y="732" on="1"/>
        <pt x="557" y="728" on="0"/>
        <pt x="643" y="716" on="1"/>
        <pt x="621" y="579" on="1"/>
        <pt x="357" y="579" on="1"/>
        <pt x="308" y="579" on="0"/>
        <pt x="299" y="540" on="1"/>
        <pt x="298" y="534" on="0"/>
        <pt x="296" y="523" on="1"/>
        <pt x="284" y="443" on="1"/>
        <pt x="550" y="432" on="1"/>
        <pt x="528" y="297" on="1"/>
        <pt x="259" y="288" on="1"/>
        <pt x="245" y="202" on="1"/>
        <pt x="239" y="164" on="0"/>
        <pt x="259" y="156" on="1"/>
        <pt x="274" y="150" on="0"/>
        <pt x="300" y="150" on="1"/>
        <pt x="554" y="150" on="1"/>
        <pt x="532" y="14" on="1"/>
        <pt x="461" y="5" on="0"/>
        <pt x="287" y="-1" on="1"/>
        <pt x="230" y="-3" on="1"/>
        <pt x="224" y="-3" on="0"/>
        <pt x="201" y="-3" on="0"/>
        <pt x="161" y="3" on="0"/>
        <pt x="137" y="14" on="1"/>
        <pt x="71" y="45" on="0"/>
        <pt x="71" y="126" on="1"/>
        <pt x="71" y="142" on="0"/>
        <pt x="74" y="160" on="1"/>
        <pt x="140" y="580" on="1"/>
        <pt x="155" y="675" on="0"/>
      </contour>
    </TTGlyph>
    <TTGlyph name="Eth" xMin="42" yMin="0" xMax="686" yMax="732">
      <contour>
        <pt x="480" y="732" on="1"/>
        <pt x="539" y="732" on="0"/>
        <pt x="624" y="685" on="0"/>
        <pt x="646" y="648" on="1"/>
        <pt x="685" y="581" on="0"/>
        <pt x="685" y="470" on="1"/>
        <pt x="685" y="413" on="0"/>
        <pt x="673" y="340" on="1"/>
        <pt x="643" y="156" on="0"/>
        <pt x="508" y="0" on="0"/>
        <pt x="379" y="0" on="1"/>
        <pt x="54" y="0" on="1"/>
        <pt x="107" y="338" on="1"/>
        <pt x="42" y="338" on="1"/>
        <pt x="53" y="408" on="1"/>
        <pt x="118" y="408" on="1"/>
        <pt x="170" y="732" on="1"/>
        <pt x="170" y="732" on="0"/>
      </contour>
      <contour>
        <pt x="372" y="142" on="1"/>
        <pt x="426" y="142" on="0"/>
        <pt x="492" y="253" on="0"/>
        <pt x="506" y="343" on="1"/>
        <pt x="521" y="438" on="0"/>
        <pt x="521" y="525" on="0"/>
        <pt x="502" y="572" on="0"/>
        <pt x="469" y="590" on="0"/>
        <pt x="442" y="590" on="1"/>
        <pt x="311" y="590" on="1"/>
        <pt x="282" y="408" on="1"/>
        <pt x="384" y="408" on="1"/>
        <pt x="372" y="338" on="1"/>
        <pt x="271" y="338" on="1"/>
        <pt x="240" y="142" on="1"/>
      </contour>
    </TTGlyph>
    <TTGlyph name="Euro" xMin="51" yMin="-6" xMax="713" yMax="740">
      <contour>
        <pt x="451" y="740" on="1"/>
        <pt x="502" y="740" on="0"/>
        <pt x="661" y="721" on="0"/>
        <pt x="713" y="702" on="1"/>
        <pt x="694" y="584" on="1"/>
        <pt x="555" y="598" on="0"/>
        <pt x="446" y="598" on="0"/>
        <pt x="405" y="592" on="0"/>
        <pt x="376" y="584" on="0"/>
        <pt x="354" y="565" on="0"/>
        <pt x="342" y="550" on="0"/>
        <pt x="337" y="534" on="1"/>
        <pt x="331" y="513" on="0"/>
        <pt x="324" y="478" on="1"/>
        <pt x="558" y="470" on="1"/>
        <pt x="545" y="394" on="1"/>
        <pt x="310" y="388" on="1"/>
        <pt x="302" y="332" on="1"/>
        <pt x="534" y="324" on="1"/>
        <pt x="522" y="248" on="1"/>
        <pt x="383" y="245" on="0"/>
        <pt x="320" y="242" on="1"/>
        <pt x="287" y="240" on="1"/>
        <pt x="286" y="221" on="0"/>
        <pt x="283" y="190" on="0"/>
        <pt x="293" y="167" on="0"/>
        <pt x="302" y="151" on="0"/>
        <pt x="322" y="139" on="0"/>
        <pt x="338" y="133" on="0"/>
        <pt x="351" y="131" on="1"/>
        <pt x="372" y="128" on="0"/>
        <pt x="406" y="128" on="1"/>
        <pt x="478" y="128" on="0"/>
        <pt x="592" y="146" on="1"/>
        <pt x="630" y="152" on="1"/>
        <pt x="611" y="36" on="1"/>
        <pt x="557" y="12" on="0"/>
        <pt x="426" y="-6" on="0"/>
        <pt x="318" y="-6" on="0"/>
        <pt x="290" y="-4" on="0"/>
        <pt x="252" y="2" on="0"/>
        <pt x="221" y="13" on="0"/>
        <pt x="183" y="32" on="0"/>
        <pt x="158" y="58" on="0"/>
        <pt x="145" y="76" on="1"/>
        <pt x="125" y="103" on="0"/>
        <pt x="118" y="173" on="1"/>
        <pt x="118" y="181" on="0"/>
        <pt x="118" y="213" on="0"/>
        <pt x="123" y="240" on="1"/>
        <pt x="51" y="248" on="1"/>
        <pt x="64" y="324" on="1"/>
        <pt x="138" y="332" on="1"/>
        <pt x="146" y="388" on="1"/>
        <pt x="75" y="396" on="1"/>
        <pt x="86" y="468" on="1"/>
        <pt x="160" y="478" on="1"/>
        <pt x="173" y="560" on="0"/>
        <pt x="203" y="611" on="1"/>
        <pt x="236" y="670" on="0"/>
        <pt x="289" y="701" on="1"/>
        <pt x="355" y="740" on="0"/>
      </contour>
    </TTGlyph>
    <TTGlyph name="Euro.smcp" xMin="41" yMin="-5" xMax="583" yMax="577">
      <contour>
        <pt x="582" y="554" on="1"/>
        <pt x="564" y="432" on="1"/>
        <pt x="442" y="443" on="0"/>
        <pt x="336" y="443" on="0"/>
        <pt x="294" y="412" on="0"/>
        <pt x="288" y="378" on="1"/>
        <pt x="458" y="372" on="1"/>
        <pt x="446" y="304" on="1"/>
        <pt x="276" y="299" on="1"/>
        <pt x="271" y="270" on="1"/>
        <pt x="440" y="265" on="1"/>
        <pt x="429" y="195" on="1"/>
        <pt x="256" y="191" on="0"/>
        <pt x="258" y="189" on="1"/>
        <pt x="257" y="181" on="0"/>
        <pt x="257" y="164" on="0"/>
        <pt x="264" y="144" on="0"/>
        <pt x="277" y="139" on="1"/>
        <pt x="296" y="132" on="0"/>
        <pt x="329" y="132" on="1"/>
        <pt x="395" y="132" on="0"/>
        <pt x="489" y="141" on="1"/>
        <pt x="520" y="145" on="1"/>
        <pt x="501" y="23" on="1"/>
        <pt x="432" y="-5" on="0"/>
        <pt x="270" y="-5" on="1"/>
        <pt x="208" y="-5" on="0"/>
        <pt x="138" y="31" on="0"/>
        <pt x="120" y="51" on="1"/>
        <pt x="91" y="88" on="0"/>
        <pt x="91" y="152" on="1"/>
        <pt x="91" y="169" on="0"/>
        <pt x="93" y="189" on="1"/>
        <pt x="41" y="195" on="1"/>
        <pt x="52" y="265" on="1"/>
        <pt x="106" y="270" on="1"/>
        <pt x="110" y="299" on="1"/>
        <pt x="58" y="305" on="1"/>
        <pt x="69" y="371" on="1"/>
        <pt x="123" y="378" on="1"/>
        <pt x="134" y="452" on="0"/>
        <pt x="159" y="490" on="1"/>
        <pt x="186" y="531" on="0"/>
        <pt x="229" y="552" on="1"/>
        <pt x="283" y="577" on="0"/>
        <pt x="460" y="577" on="0"/>
      </contour>
    </TTGlyph>
    <TTGlyph name="F" xMin="50" yMin="0" xMax="644" yMax="733">
      <contour>
        <pt x="271" y="724" on="1"/>
        <pt x="301" y="732" on="0"/>
        <pt x="335" y="732" on="0"/>
        <pt x="337" y="732" on="1"/>
        <pt x="557" y="728" on="0"/>
        <pt x="644" y="716" on="1"/>
        <pt x="622" y="579" on="1"/>
        <pt x="358" y="579" on="1"/>
        <pt x="321" y="579" on="0"/>
        <pt x="310" y="561" on="1"/>
        <pt x="300" y="547" on="0"/>
        <pt x="297" y="523" on="1"/>
        <pt x="284" y="440" on="1"/>
        <pt x="551" y="430" on="1"/>
        <pt x="530" y="294" on="1"/>
        <pt x="259" y="285" on="1"/>
        <pt x="214" y="0" on="1"/>
        <pt x="50" y="0" on="1"/>
        <pt x="139" y="564" on="1"/>
        <pt x="160" y="695" on="0"/>
      </contour>
    </TTGlyph>
    <TTGlyph name="G" xMin="82" yMin="-6" xMax="683" yMax="740">
      <contour>
        <pt x="401" y="740" on="1"/>
        <pt x="404" y="740" on="0"/>
        <pt x="470" y="740" on="0"/>
        <pt x="510" y="737" on="1"/>
        <pt x="577" y="732" on="0"/>
        <pt x="682" y="703" on="1"/>
        <pt x="662" y="578" on="1"/>
        <pt x="659" y="579" on="0"/>
        <pt x="638" y="582" on="0"/>
        <pt x="612" y="585" on="0"/>
        <pt x="576" y="589" on="0"/>
        <pt x="536" y="593" on="0"/>
        <pt x="515" y="595" on="1"/>
        <pt x="467" y="598" on="0"/>
        <pt x="390" y="598" on="0"/>
        <pt x="345" y="582" on="0"/>
        <pt x="324" y="557" on="1"/>
        <pt x="286" y="512" on="0"/>
        <pt x="264" y="367" on="1"/>
        <pt x="251" y="292" on="0"/>
        <pt x="251" y="241" on="0"/>
        <pt x="251" y="237" on="1"/>
        <pt x="252" y="188" on="0"/>
        <pt x="293" y="146" on="0"/>
        <pt x="340" y="146" on="1"/>
        <pt x="393" y="146" on="0"/>
        <pt x="439" y="185" on="1"/>
        <pt x="444" y="189" on="0"/>
        <pt x="448" y="195" on="1"/>
        <pt x="466" y="299" on="1"/>
        <pt x="387" y="299" on="1"/>
        <pt x="403" y="402" on="1"/>
        <pt x="460" y="426" on="0"/>
        <pt x="582" y="426" on="1"/>
        <pt x="614" y="426" on="0"/>
        <pt x="650" y="424" on="1"/>
        <pt x="582" y="0" on="1"/>
        <pt x="465" y="0" on="1"/>
        <pt x="428" y="51" on="1"/>
        <pt x="393" y="15" on="0"/>
        <pt x="356" y="6" on="1"/>
        <pt x="311" y="-6" on="0"/>
        <pt x="226" y="-6" on="0"/>
        <pt x="157" y="22" on="0"/>
        <pt x="134" y="51" on="1"/>
        <pt x="83" y="119" on="0"/>
        <pt x="83" y="241" on="1"/>
        <pt x="83" y="315" on="0"/>
        <pt x="113" y="474" on="0"/>
        <pt x="144" y="576" on="0"/>
        <pt x="190" y="663" on="0"/>
        <pt x="222" y="688" on="1"/>
        <pt x="287" y="740" on="0"/>
      </contour>
    </TTGlyph>
    <TTGlyph name="Gbreve" xMin="82" yMin="-6" xMax="683" yMax="913">
      <contour>
        <pt x="404" y="912" on="1"/>
        <pt x="404" y="908" on="0"/>
        <pt x="404" y="885" on="0"/>
        <pt x="425" y="860" on="0"/>
        <pt x="450" y="860" on="1"/>
        <pt x="450" y="860" on="0"/>
        <pt x="450" y="860" on="1"/>
        <pt x="505" y="860" on="0"/>
        <pt x="510" y="912" on="1"/>
        <pt x="572" y="912" on="1"/>
        <pt x="566" y="859" on="0"/>
        <pt x="502" y="800" on="0"/>
        <pt x="399" y="800" on="0"/>
        <pt x="342" y="857" on="0"/>
        <pt x="342" y="900" on="1"/>
        <pt x="342" y="906" on="0"/>
        <pt x="343" y="912" on="1"/>
      </contour>
      <contour>
        <pt x="401" y="740" on="1"/>
        <pt x="404" y="740" on="0"/>
        <pt x="470" y="740" on="0"/>
        <pt x="510" y="737" on="1"/>
        <pt x="577" y="732" on="0"/>
        <pt x="682" y="703" on="1"/>
        <pt x="662" y="578" on="1"/>
        <pt x="659" y="579" on="0"/>
        <pt x="638" y="582" on="0"/>
        <pt x="612" y="585" on="0"/>
        <pt x="576" y="589" on="0"/>
        <pt x="536" y="593" on="0"/>
        <pt x="515" y="595" on="1"/>
        <pt x="467" y="598" on="0"/>
        <pt x="390" y="598" on="0"/>
        <pt x="345" y="582" on="0"/>
        <pt x="324" y="557" on="1"/>
        <pt x="286" y="512" on="0"/>
        <pt x="264" y="367" on="1"/>
        <pt x="251" y="292" on="0"/>
        <pt x="251" y="241" on="0"/>
        <pt x="251" y="237" on="1"/>
        <pt x="252" y="188" on="0"/>
        <pt x="293" y="146" on="0"/>
        <pt x="340" y="146" on="1"/>
        <pt x="393" y="146" on="0"/>
        <pt x="439" y="185" on="1"/>
        <pt x="444" y="189" on="0"/>
        <pt x="448" y="195" on="1"/>
        <pt x="466" y="299" on="1"/>
        <pt x="387" y="299" on="1"/>
        <pt x="403" y="402" on="1"/>
        <pt x="460" y="426" on="0"/>
        <pt x="582" y="426" on="1"/>
        <pt x="614" y="426" on="0"/>
        <pt x="650" y="424" on="1"/>
        <pt x="582" y="0" on="1"/>
        <pt x="465" y="0" on="1"/>
        <pt x="428" y="51" on="1"/>
        <pt x="393" y="15" on="0"/>
        <pt x="356" y="6" on="1"/>
        <pt x="311" y="-6" on="0"/>
        <pt x="226" y="-6" on="0"/>
        <pt x="157" y="22" on="0"/>
        <pt x="134" y="51" on="1"/>
        <pt x="83" y="119" on="0"/>
        <pt x="83" y="241" on="1"/>
        <pt x="83" y="315" on="0"/>
        <pt x="113" y="474" on="0"/>
        <pt x="144" y="576" on="0"/>
        <pt x="190" y="663" on="0"/>
        <pt x="222" y="688" on="1"/>
        <pt x="287" y="740" on="0"/>
      </contour>
    </TTGlyph>
    <TTGlyph name="Gcircumflex" xMin="82" yMin="-6" xMax="683" yMax="938">
      <contour>
        <pt x="283" y="800" on="1"/>
        <pt x="409" y="937" on="1"/>
        <pt x="525" y="937" on="1"/>
        <pt x="598" y="800" on="1"/>
        <pt x="498" y="800" on="1"/>
        <pt x="461" y="859" on="1"/>
        <pt x="395" y="800" on="1"/>
      </contour>
      <contour>
        <pt x="401" y="740" on="1"/>
        <pt x="404" y="740" on="0"/>
        <pt x="470" y="740" on="0"/>
        <pt x="510" y="737" on="1"/>
        <pt x="577" y="732" on="0"/>
        <pt x="682" y="703" on="1"/>
        <pt x="662" y="578" on="1"/>
        <pt x="659" y="579" on="0"/>
        <pt x="638" y="582" on="0"/>
        <pt x="612" y="585" on="0"/>
        <pt x="576" y="589" on="0"/>
        <pt x="536" y="593" on="0"/>
        <pt x="515" y="595" on="1"/>
        <pt x="467" y="598" on="0"/>
        <pt x="390" y="598" on="0"/>
        <pt x="345" y="582" on="0"/>
        <pt x="324" y="557" on="1"/>
        <pt x="286" y="512" on="0"/>
        <pt x="264" y="367" on="1"/>
        <pt x="251" y="292" on="0"/>
        <pt x="251" y="241" on="0"/>
        <pt x="251" y="237" on="1"/>
        <pt x="252" y="188" on="0"/>
        <pt x="293" y="146" on="0"/>
        <pt x="340" y="146" on="1"/>
        <pt x="393" y="146" on="0"/>
        <pt x="439" y="185" on="1"/>
        <pt x="444" y="189" on="0"/>
        <pt x="448" y="195" on="1"/>
        <pt x="466" y="299" on="1"/>
        <pt x="387" y="299" on="1"/>
        <pt x="403" y="402" on="1"/>
        <pt x="460" y="426" on="0"/>
        <pt x="582" y="426" on="1"/>
        <pt x="614" y="426" on="0"/>
        <pt x="650" y="424" on="1"/>
        <pt x="582" y="0" on="1"/>
        <pt x="465" y="0" on="1"/>
        <pt x="428" y="51" on="1"/>
        <pt x="393" y="15" on="0"/>
        <pt x="356" y="6" on="1"/>
        <pt x="311" y="-6" on="0"/>
        <pt x="226" y="-6" on="0"/>
        <pt x="157" y="22" on="0"/>
        <pt x="134" y="51" on="1"/>
        <pt x="83" y="119" on="0"/>
        <pt x="83" y="241" on="1"/>
        <pt x="83" y="315" on="0"/>
        <pt x="113" y="474" on="0"/>
        <pt x="144" y="576" on="0"/>
        <pt x="190" y="663" on="0"/>
        <pt x="222" y="688" on="1"/>
        <pt x="287" y="740" on="0"/>
      </contour>
    </TTGlyph>
    <TTGlyph name="Gcommaaccent" xMin="82" yMin="-285" xMax="683" yMax="740">
      <contour>
        <pt x="270" y="-200" on="1"/>
        <pt x="260" y="-200" on="0"/>
        <pt x="249" y="-188" on="0"/>
        <pt x="251" y="-178" on="1"/>
        <pt x="265" y="-88" on="1"/>
        <pt x="269" y="-64" on="0"/>
        <pt x="291" y="-64" on="1"/>
        <pt x="378" y="-64" on="1"/>
        <pt x="396" y="-64" on="0"/>
        <pt x="396" y="-82" on="1"/>
        <pt x="396" y="-85" on="0"/>
        <pt x="395" y="-88" on="1"/>
        <pt x="376" y="-210" on="1"/>
        <pt x="371" y="-239" on="0"/>
        <pt x="340" y="-275" on="0"/>
        <pt x="320" y="-280" on="1"/>
        <pt x="299" y="-285" on="0"/>
        <pt x="263" y="-285" on="0"/>
        <pt x="252" y="-282" on="1"/>
        <pt x="239" y="-279" on="1"/>
        <pt x="247" y="-230" on="1"/>
        <pt x="273" y="-231" on="0"/>
        <pt x="277" y="-213" on="1"/>
        <pt x="278" y="-211" on="0"/>
        <pt x="280" y="-200" on="1"/>
      </contour>
      <contour>
        <pt x="401" y="740" on="1"/>
        <pt x="404" y="740" on="0"/>
        <pt x="470" y="740" on="0"/>
        <pt x="510" y="737" on="1"/>
        <pt x="577" y="732" on="0"/>
        <pt x="682" y="703" on="1"/>
        <pt x="662" y="578" on="1"/>
        <pt x="659" y="579" on="0"/>
        <pt x="638" y="582" on="0"/>
        <pt x="612" y="585" on="0"/>
        <pt x="576" y="589" on="0"/>
        <pt x="536" y="593" on="0"/>
        <pt x="515" y="595" on="1"/>
        <pt x="467" y="598" on="0"/>
        <pt x="390" y="598" on="0"/>
        <pt x="345" y="582" on="0"/>
        <pt x="324" y="557" on="1"/>
        <pt x="286" y="512" on="0"/>
        <pt x="264" y="367" on="1"/>
        <pt x="251" y="292" on="0"/>
        <pt x="251" y="241" on="0"/>
        <pt x="251" y="237" on="1"/>
        <pt x="252" y="188" on="0"/>
        <pt x="293" y="146" on="0"/>
        <pt x="340" y="146" on="1"/>
        <pt x="393" y="146" on="0"/>
        <pt x="439" y="185" on="1"/>
        <pt x="444" y="189" on="0"/>
        <pt x="448" y="195" on="1"/>
        <pt x="466" y="299" on="1"/>
        <pt x="387" y="299" on="1"/>
        <pt x="403" y="402" on="1"/>
        <pt x="460" y="426" on="0"/>
        <pt x="582" y="426" on="1"/>
        <pt x="614" y="426" on="0"/>
        <pt x="650" y="424" on="1"/>
        <pt x="582" y="0" on="1"/>
        <pt x="465" y="0" on="1"/>
        <pt x="428" y="51" on="1"/>
        <pt x="393" y="15" on="0"/>
        <pt x="356" y="6" on="1"/>
        <pt x="311" y="-6" on="0"/>
        <pt x="226" y="-6" on="0"/>
        <pt x="157" y="22" on="0"/>
        <pt x="134" y="51" on="1"/>
        <pt x="83" y="119" on="0"/>
        <pt x="83" y="241" on="1"/>
        <pt x="83" y="315" on="0"/>
        <pt x="113" y="474" on="0"/>
        <pt x="144" y="576" on="0"/>
        <pt x="190" y="663" on="0"/>
        <pt x="222" y="688" on="1"/>
        <pt x="287" y="740" on="0"/>
      </contour>
    </TTGlyph>
    <TTGlyph name="Gdotaccent" xMin="82" yMin="-6" xMax="683" yMax="932">
      <contour>
        <pt x="426" y="932" on="1"/>
        <pt x="506" y="932" on="1"/>
        <pt x="528" y="932" on="0"/>
        <pt x="525" y="907" on="1"/>
        <pt x="511" y="823" on="1"/>
        <pt x="508" y="800" on="0"/>
        <pt x="485" y="800" on="1"/>
        <pt x="405" y="800" on="1"/>
        <pt x="395" y="800" on="0"/>
        <pt x="383" y="813" on="0"/>
        <pt x="384" y="823" on="1"/>
        <pt x="398" y="907" on="1"/>
        <pt x="401" y="932" on="0"/>
      </contour>
      <contour>
        <pt x="401" y="740" on="1"/>
        <pt x="404" y="740" on="0"/>
        <pt x="470" y="740" on="0"/>
        <pt x="510" y="737" on="1"/>
        <pt x="577" y="732" on="0"/>
        <pt x="682" y="703" on="1"/>
        <pt x="662" y="578" on="1"/>
        <pt x="659" y="579" on="0"/>
        <pt x="638" y="582" on="0"/>
        <pt x="612" y="585" on="0"/>
        <pt x="576" y="589" on="0"/>
        <pt x="536" y="593" on="0"/>
        <pt x="515" y="595" on="1"/>
        <pt x="467" y="598" on="0"/>
        <pt x="390" y="598" on="0"/>
        <pt x="345" y="582" on="0"/>
        <pt x="324" y="557" on="1"/>
        <pt x="286" y="512" on="0"/>
        <pt x="264" y="367" on="1"/>
        <pt x="251" y="292" on="0"/>
        <pt x="251" y="241" on="0"/>
        <pt x="251" y="237" on="1"/>
        <pt x="252" y="188" on="0"/>
        <pt x="293" y="146" on="0"/>
        <pt x="340" y="146" on="1"/>
        <pt x="393" y="146" on="0"/>
        <pt x="439" y="185" on="1"/>
        <pt x="444" y="189" on="0"/>
        <pt x="448" y="195" on="1"/>
        <pt x="466" y="299" on="1"/>
        <pt x="387" y="299" on="1"/>
        <pt x="403" y="402" on="1"/>
        <pt x="460" y="426" on="0"/>
        <pt x="582" y="426" on="1"/>
        <pt x="614" y="426" on="0"/>
        <pt x="650" y="424" on="1"/>
        <pt x="582" y="0" on="1"/>
        <pt x="465" y="0" on="1"/>
        <pt x="428" y="51" on="1"/>
        <pt x="393" y="15" on="0"/>
        <pt x="356" y="6" on="1"/>
        <pt x="311" y="-6" on="0"/>
        <pt x="226" y="-6" on="0"/>
        <pt x="157" y="22" on="0"/>
        <pt x="134" y="51" on="1"/>
        <pt x="83" y="119" on="0"/>
        <pt x="83" y="241" on="1"/>
        <pt x="83" y="315" on="0"/>
        <pt x="113" y="474" on="0"/>
        <pt x="144" y="576" on="0"/>
        <pt x="190" y="663" on="0"/>
        <pt x="222" y="688" on="1"/>
        <pt x="287" y="740" on="0"/>
      </contour>
    </TTGlyph>
    <TTGlyph name="H" xMin="55" yMin="0" xMax="714" yMax="732">
      <contour>
        <pt x="55" y="0" on="1"/>
        <pt x="171" y="732" on="1"/>
        <pt x="335" y="732" on="1"/>
        <pt x="287" y="428" on="1"/>
        <pt x="502" y="428" on="1"/>
        <pt x="550" y="732" on="1"/>
        <pt x="714" y="732" on="1"/>
        <pt x="598" y="0" on="1"/>
        <pt x="434" y="0" on="1"/>
        <pt x="478" y="280" on="1"/>
        <pt x="263" y="280" on="1"/>
        <pt x="219" y="0" on="1"/>
      </contour>
    </TTGlyph>
    <TTGlyph name="Hbar" xMin="55" yMin="0" xMax="755" yMax="732">
      <contour>
        <pt x="56" y="0" on="1"/>
        <pt x="138" y="516" on="1"/>
        <pt x="74" y="516" on="1"/>
        <pt x="84" y="586" on="1"/>
        <pt x="148" y="586" on="1"/>
        <pt x="172" y="732" on="1"/>
        <pt x="336" y="732" on="1"/>
        <pt x="312" y="586" on="1"/>
        <pt x="527" y="586" on="1"/>
        <pt x="551" y="732" on="1"/>
        <pt x="715" y="732" on="1"/>
        <pt x="691" y="586" on="1"/>
        <pt x="754" y="586" on="1"/>
        <pt x="744" y="516" on="1"/>
        <pt x="681" y="516" on="1"/>
        <pt x="599" y="0" on="1"/>
        <pt x="435" y="0" on="1"/>
        <pt x="479" y="280" on="1"/>
        <pt x="264" y="280" on="1"/>
        <pt x="220" y="0" on="1"/>
      </contour>
      <contour>
        <pt x="288" y="429" on="1"/>
        <pt x="503" y="429" on="1"/>
        <pt x="517" y="516" on="1"/>
        <pt x="302" y="516" on="1"/>
      </contour>
    </TTGlyph>
    <TTGlyph name="Hcircumflex" xMin="55" yMin="0" xMax="714" yMax="935">
      <contour>
        <pt x="295" y="797" on="1"/>
        <pt x="421" y="934" on="1"/>
        <pt x="537" y="934" on="1"/>
        <pt x="610" y="797" on="1"/>
        <pt x="510" y="797" on="1"/>
        <pt x="473" y="856" on="1"/>
        <pt x="407" y="797" on="1"/>
      </contour>
      <contour>
        <pt x="55" y="0" on="1"/>
        <pt x="171" y="732" on="1"/>
        <pt x="335" y="732" on="1"/>
        <pt x="287" y="428" on="1"/>
        <pt x="502" y="428" on="1"/>
        <pt x="550" y="732" on="1"/>
        <pt x="714" y="732" on="1"/>
        <pt x="598" y="0" on="1"/>
        <pt x="434" y="0" on="1"/>
        <pt x="478" y="280" on="1"/>
        <pt x="263" y="280" on="1"/>
        <pt x="219" y="0" on="1"/>
      </contour>
    </TTGlyph>
    <TTGlyph name="I" xMin="56" yMin="0" xMax="337" yMax="732">
      <contour>
        <pt x="56" y="0" on="1"/>
        <pt x="172" y="732" on="1"/>
        <pt x="336" y="732" on="1"/>
        <pt x="220" y="0" on="1"/>
      </contour>
    </TTGlyph>
    <TTGlyph name="Iacute" xMin="56" yMin="0" xMax="455" yMax="938">
      <contour>
        <pt x="215" y="797" on="1"/>
        <pt x="322" y="938" on="1"/>
        <pt x="455" y="938" on="1"/>
        <pt x="314" y="797" on="1"/>
      </contour>
      <contour>
        <pt x="56" y="0" on="1"/>
        <pt x="172" y="732" on="1"/>
        <pt x="336" y="732" on="1"/>
        <pt x="220" y="0" on="1"/>
      </contour>
    </TTGlyph>
    <TTGlyph name="Icircumflex" xMin="56" yMin="0" xMax="422" yMax="935">
      <contour>
        <pt x="107" y="797" on="1"/>
        <pt x="233" y="934" on="1"/>
        <pt x="349" y="934" on="1"/>
        <pt x="422" y="797" on="1"/>
        <pt x="322" y="797" on="1"/>
        <pt x="285" y="856" on="1"/>
        <pt x="219" y="797" on="1"/>
      </contour>
      <contour>
        <pt x="56" y="0" on="1"/>
        <pt x="172" y="732" on="1"/>
        <pt x="336" y="732" on="1"/>
        <pt x="220" y="0" on="1"/>
      </contour>
    </TTGlyph>
    <TTGlyph name="Idieresis" xMin="56" yMin="0" xMax="465" yMax="921">
      <contour>
        <pt x="132" y="920" on="0"/>
        <pt x="183" y="920" on="0"/>
        <pt x="210" y="889" on="0"/>
        <pt x="210" y="877" on="1"/>
        <pt x="210" y="838" on="0"/>
        <pt x="163" y="797" on="0"/>
        <pt x="112" y="797" on="0"/>
        <pt x="85" y="830" on="0"/>
        <pt x="85" y="842" on="1"/>
        <pt x="85" y="880" on="0"/>
      </contour>
      <contour>
        <pt x="387" y="920" on="0"/>
        <pt x="438" y="920" on="0"/>
        <pt x="465" y="889" on="0"/>
        <pt x="465" y="877" on="1"/>
        <pt x="465" y="838" on="0"/>
        <pt x="418" y="797" on="0"/>
        <pt x="367" y="797" on="0"/>
        <pt x="340" y="830" on="0"/>
        <pt x="340" y="842" on="1"/>
        <pt x="340" y="880" on="0"/>
      </contour>
      <contour>
        <pt x="56" y="0" on="1"/>
        <pt x="172" y="732" on="1"/>
        <pt x="336" y="732" on="1"/>
        <pt x="220" y="0" on="1"/>
      </contour>
    </TTGlyph>
    <TTGlyph name="Idotaccent" xMin="56" yMin="0" xMax="346" yMax="929">
      <contour>
        <pt x="326" y="929" on="1"/>
        <pt x="345" y="929" on="0"/>
        <pt x="345" y="909" on="1"/>
        <pt x="345" y="907" on="0"/>
        <pt x="345" y="904" on="1"/>
        <pt x="331" y="820" on="1"/>
        <pt x="328" y="797" on="0"/>
        <pt x="305" y="797" on="1"/>
        <pt x="225" y="797" on="1"/>
        <pt x="215" y="797" on="0"/>
        <pt x="203" y="810" on="0"/>
        <pt x="204" y="820" on="1"/>
        <pt x="218" y="904" on="1"/>
        <pt x="221" y="929" on="0"/>
        <pt x="246" y="929" on="1"/>
      </contour>
      <contour>
        <pt x="56" y="0" on="1"/>
        <pt x="172" y="732" on="1"/>
        <pt x="336" y="732" on="1"/>
        <pt x="220" y="0" on="1"/>
      </contour>
    </TTGlyph>
    <TTGlyph name="Idotaccent.smcp" xMin="36" yMin="0" xMax="298" yMax="749">
      <contour>
        <pt x="37" y="0" on="1"/>
        <pt x="127" y="570" on="1"/>
        <pt x="291" y="570" on="1"/>
        <pt x="201" y="0" on="1"/>
      </contour>
      <contour>
        <pt x="278" y="749" on="1"/>
        <pt x="298" y="749" on="0"/>
        <pt x="298" y="729" on="1"/>
        <pt x="298" y="727" on="0"/>
        <pt x="298" y="724" on="1"/>
        <pt x="284" y="640" on="1"/>
        <pt x="281" y="617" on="0"/>
        <pt x="258" y="617" on="1"/>
        <pt x="178" y="617" on="1"/>
        <pt x="154" y="617" on="0"/>
        <pt x="157" y="640" on="1"/>
        <pt x="170" y="724" on="1"/>
        <pt x="174" y="749" on="0"/>
        <pt x="198" y="749" on="1"/>
      </contour>
    </TTGlyph>
    <TTGlyph name="Igrave" xMin="56" yMin="0" xMax="337" yMax="938">
      <contour>
        <pt x="117" y="938" on="1"/>
        <pt x="247" y="938" on="1"/>
        <pt x="314" y="797" on="1"/>
        <pt x="215" y="797" on="1"/>
      </contour>
      <contour>
        <pt x="56" y="0" on="1"/>
        <pt x="172" y="732" on="1"/>
        <pt x="336" y="732" on="1"/>
        <pt x="220" y="0" on="1"/>
      </contour>
    </TTGlyph>
    <TTGlyph name="Imacron" xMin="44" yMin="0" xMax="410" yMax="882">
      <contour>
        <pt x="104" y="796" on="1"/>
        <pt x="117" y="881" on="1"/>
        <pt x="409" y="881" on="1"/>
        <pt x="396" y="796" on="1"/>
      </contour>
      <contour>
        <pt x="44" y="0" on="1"/>
        <pt x="160" y="732" on="1"/>
        <pt x="324" y="732" on="1"/>
        <pt x="208" y="0" on="1"/>
      </contour>
    </TTGlyph>
    <TTGlyph name="Iogonek" xMin="32" yMin="-192" xMax="337" yMax="732">
      <contour>
        <pt x="121" y="-68" on="1"/>
        <pt x="121" y="-74" on="0"/>
        <pt x="122" y="-79" on="1"/>
        <pt x="130" y="-110" on="0"/>
        <pt x="169" y="-105" on="1"/>
        <pt x="156" y="-188" on="1"/>
        <pt x="141" y="-192" on="0"/>
        <pt x="111" y="-192" on="0"/>
        <pt x="67" y="-177" on="0"/>
        <pt x="52" y="-155" on="1"/>
        <pt x="33" y="-128" on="0"/>
        <pt x="33" y="-76" on="0"/>
        <pt x="71" y="-20" on="0"/>
        <pt x="114" y="1" on="1"/>
        <pt x="175" y="1" on="1"/>
        <pt x="121" y="-35" on="0"/>
      </contour>
      <contour>
        <pt x="56" y="0" on="1"/>
        <pt x="172" y="732" on="1"/>
        <pt x="336" y="732" on="1"/>
        <pt x="220" y="0" on="1"/>
      </contour>
    </TTGlyph>
    <TTGlyph name="Itilde" xMin="56" yMin="0" xMax="449" yMax="933">
      <contour>
        <pt x="335" y="894" on="1"/>
        <pt x="337" y="894" on="0"/>
        <pt x="362" y="894" on="0"/>
        <pt x="417" y="917" on="0"/>
        <pt x="435" y="933" on="1"/>
        <pt x="449" y="867" on="1"/>
        <pt x="380" y="797" on="0"/>
        <pt x="325" y="797" on="1"/>
        <pt x="301" y="797" on="0"/>
        <pt x="235" y="832" on="0"/>
        <pt x="212" y="832" on="1"/>
        <pt x="173" y="832" on="0"/>
        <pt x="117" y="797" on="1"/>
        <pt x="101" y="858" on="1"/>
        <pt x="171" y="929" on="0"/>
        <pt x="235" y="929" on="1"/>
        <pt x="258" y="929" on="0"/>
        <pt x="317" y="894" on="0"/>
      </contour>
      <contour>
        <pt x="56" y="0" on="1"/>
        <pt x="172" y="732" on="1"/>
        <pt x="336" y="732" on="1"/>
        <pt x="220" y="0" on="1"/>
      </contour>
    </TTGlyph>
    <TTGlyph name="J" xMin="26" yMin="-5" xMax="432" yMax="732">
      <contour>
        <pt x="48" y="153" on="1"/>
        <pt x="68" y="152" on="0"/>
        <pt x="99" y="152" on="0"/>
        <pt x="131" y="155" on="0"/>
        <pt x="168" y="175" on="0"/>
        <pt x="186" y="214" on="0"/>
        <pt x="191" y="248" on="1"/>
        <pt x="268" y="732" on="1"/>
        <pt x="432" y="732" on="1"/>
        <pt x="342" y="165" on="1"/>
        <pt x="325" y="53" on="0"/>
        <pt x="265" y="18" on="1"/>
        <pt x="225" y="-5" on="0"/>
        <pt x="156" y="-5" on="1"/>
        <pt x="66" y="-5" on="0"/>
        <pt x="27" y="24" on="1"/>
      </contour>
    </TTGlyph>
    <TTGlyph name="Jcircumflex" xMin="26" yMin="-5" xMax="517" yMax="935">
      <contour>
        <pt x="202" y="797" on="1"/>
        <pt x="328" y="934" on="1"/>
        <pt x="444" y="934" on="1"/>
        <pt x="517" y="797" on="1"/>
        <pt x="417" y="797" on="1"/>
        <pt x="380" y="856" on="1"/>
        <pt x="314" y="797" on="1"/>
      </contour>
      <contour>
        <pt x="48" y="153" on="1"/>
        <pt x="68" y="152" on="0"/>
        <pt x="99" y="152" on="0"/>
        <pt x="131" y="155" on="0"/>
        <pt x="168" y="175" on="0"/>
        <pt x="186" y="214" on="0"/>
        <pt x="191" y="248" on="1"/>
        <pt x="268" y="732" on="1"/>
        <pt x="432" y="732" on="1"/>
        <pt x="342" y="165" on="1"/>
        <pt x="325" y="53" on="0"/>
        <pt x="265" y="18" on="1"/>
        <pt x="225" y="-5" on="0"/>
        <pt x="156" y="-5" on="1"/>
        <pt x="66" y="-5" on="0"/>
        <pt x="27" y="24" on="1"/>
      </contour>
    </TTGlyph>
    <TTGlyph name="K" xMin="53" yMin="0" xMax="736" yMax="732">
      <contour>
        <pt x="54" y="0" on="1"/>
        <pt x="170" y="732" on="1"/>
        <pt x="326" y="732" on="1"/>
        <pt x="279" y="434" on="1"/>
        <pt x="323" y="434" on="1"/>
        <pt x="538" y="732" on="1"/>
        <pt x="736" y="732" on="1"/>
        <pt x="466" y="352" on="1"/>
        <pt x="620" y="0" on="1"/>
        <pt x="434" y="0" on="1"/>
        <pt x="317" y="292" on="1"/>
        <pt x="257" y="292" on="1"/>
        <pt x="211" y="0" on="1"/>
      </contour>
    </TTGlyph>
    <TTGlyph name="Kcommaaccent" xMin="53" yMin="-280" xMax="736" yMax="732">
      <contour>
        <pt x="251" y="-195" on="1"/>
        <pt x="241" y="-195" on="0"/>
        <pt x="230" y="-183" on="0"/>
        <pt x="232" y="-172" on="1"/>
        <pt x="246" y="-83" on="1"/>
        <pt x="250" y="-59" on="0"/>
        <pt x="273" y="-59" on="1"/>
        <pt x="359" y="-59" on="1"/>
        <pt x="377" y="-59" on="0"/>
        <pt x="377" y="-77" on="1"/>
        <pt x="377" y="-80" on="0"/>
        <pt x="377" y="-83" on="1"/>
        <pt x="357" y="-205" on="1"/>
        <pt x="353" y="-234" on="0"/>
        <pt x="321" y="-270" on="0"/>
        <pt x="302" y="-275" on="1"/>
        <pt x="281" y="-280" on="0"/>
        <pt x="244" y="-280" on="0"/>
        <pt x="233" y="-277" on="1"/>
        <pt x="221" y="-274" on="1"/>
        <pt x="229" y="-225" on="1"/>
        <pt x="255" y="-226" on="0"/>
        <pt x="259" y="-208" on="1"/>
        <pt x="259" y="-206" on="0"/>
        <pt x="261" y="-195" on="1"/>
      </contour>
      <contour>
        <pt x="54" y="0" on="1"/>
        <pt x="170" y="732" on="1"/>
        <pt x="326" y="732" on="1"/>
        <pt x="279" y="434" on="1"/>
        <pt x="323" y="434" on="1"/>
        <pt x="538" y="732" on="1"/>
        <pt x="736" y="732" on="1"/>
        <pt x="466" y="352" on="1"/>
        <pt x="620" y="0" on="1"/>
        <pt x="434" y="0" on="1"/>
        <pt x="317" y="292" on="1"/>
        <pt x="257" y="292" on="1"/>
        <pt x="211" y="0" on="1"/>
      </contour>
    </TTGlyph>
    <TTGlyph name="L" xMin="73" yMin="0" xMax="534" yMax="732">
      <contour>
        <pt x="303" y="149" on="1"/>
        <pt x="534" y="149" on="1"/>
        <pt x="510" y="0" on="1"/>
        <pt x="211" y="0" on="1"/>
        <pt x="142" y="0" on="0"/>
        <pt x="74" y="64" on="0"/>
        <pt x="74" y="114" on="1"/>
        <pt x="74" y="130" on="0"/>
        <pt x="76" y="148" on="1"/>
        <pt x="169" y="732" on="1"/>
        <pt x="333" y="732" on="1"/>
        <pt x="249" y="201" on="1"/>
        <pt x="243" y="163" on="0"/>
        <pt x="263" y="155" on="1"/>
        <pt x="277" y="149" on="0"/>
      </contour>
    </TTGlyph>
    <TTGlyph name="Lacute" xMin="27" yMin="0" xMax="488" yMax="933">
      <contour>
        <pt x="159" y="792" on="1"/>
        <pt x="266" y="932" on="1"/>
        <pt x="399" y="932" on="1"/>
        <pt x="258" y="792" on="1"/>
      </contour>
      <contour>
        <pt x="257" y="149" on="1"/>
        <pt x="488" y="149" on="1"/>
        <pt x="464" y="0" on="1"/>
        <pt x="165" y="0" on="1"/>
        <pt x="95" y="0" on="0"/>
        <pt x="27" y="64" on="0"/>
        <pt x="27" y="114" on="1"/>
        <pt x="27" y="130" on="0"/>
        <pt x="30" y="148" on="1"/>
        <pt x="123" y="732" on="1"/>
        <pt x="287" y="732" on="1"/>
        <pt x="202" y="201" on="1"/>
        <pt x="197" y="163" on="0"/>
        <pt x="216" y="155" on="1"/>
        <pt x="231" y="149" on="0"/>
      </contour>
    </TTGlyph>
    <TTGlyph name="Lcaron" xMin="73" yMin="0" xMax="534" yMax="772">
      <contour>
        <pt x="303" y="149" on="1"/>
        <pt x="534" y="149" on="1"/>
        <pt x="510" y="0" on="1"/>
        <pt x="211" y="0" on="1"/>
        <pt x="142" y="0" on="0"/>
        <pt x="74" y="64" on="0"/>
        <pt x="74" y="114" on="1"/>
        <pt x="74" y="130" on="0"/>
        <pt x="76" y="148" on="1"/>
        <pt x="169" y="732" on="1"/>
        <pt x="333" y="732" on="1"/>
        <pt x="249" y="201" on="1"/>
        <pt x="243" y="163" on="0"/>
        <pt x="263" y="155" on="1"/>
        <pt x="277" y="149" on="0"/>
      </contour>
      <contour>
        <pt x="374" y="571" on="1"/>
        <pt x="384" y="705" on="1"/>
        <pt x="394" y="772" on="1"/>
        <pt x="498" y="772" on="1"/>
        <pt x="488" y="705" on="1"/>
        <pt x="457" y="571" on="1"/>
      </contour>
    </TTGlyph>
    <TTGlyph name="Lcommaaccent" xMin="73" yMin="-281" xMax="534" yMax="732">
      <contour>
        <pt x="223" y="-195" on="1"/>
        <pt x="213" y="-195" on="0"/>
        <pt x="202" y="-183" on="0"/>
        <pt x="204" y="-172" on="1"/>
        <pt x="218" y="-83" on="1"/>
        <pt x="222" y="-59" on="0"/>
        <pt x="245" y="-59" on="1"/>
        <pt x="331" y="-59" on="1"/>
        <pt x="349" y="-59" on="0"/>
        <pt x="349" y="-77" on="1"/>
        <pt x="349" y="-80" on="0"/>
        <pt x="349" y="-83" on="1"/>
        <pt x="329" y="-205" on="1"/>
        <pt x="323" y="-248" on="0"/>
        <pt x="295" y="-265" on="1"/>
        <pt x="270" y="-280" on="0"/>
        <pt x="243" y="-280" on="1"/>
        <pt x="215" y="-280" on="0"/>
        <pt x="193" y="-274" on="1"/>
        <pt x="201" y="-225" on="1"/>
        <pt x="220" y="-226" on="0"/>
        <pt x="224" y="-220" on="1"/>
        <pt x="230" y="-212" on="0"/>
        <pt x="233" y="-195" on="1"/>
      </contour>
      <contour>
        <pt x="303" y="149" on="1"/>
        <pt x="534" y="149" on="1"/>
        <pt x="510" y="0" on="1"/>
        <pt x="211" y="0" on="1"/>
        <pt x="142" y="0" on="0"/>
        <pt x="74" y="64" on="0"/>
        <pt x="74" y="114" on="1"/>
        <pt x="74" y="130" on="0"/>
        <pt x="76" y="148" on="1"/>
        <pt x="169" y="732" on="1"/>
        <pt x="333" y="732" on="1"/>
        <pt x="249" y="201" on="1"/>
        <pt x="243" y="163" on="0"/>
        <pt x="263" y="155" on="1"/>
        <pt x="277" y="149" on="0"/>
      </contour>
    </TTGlyph>
    <TTGlyph name="Lslash" xMin="24" yMin="0" xMax="535" yMax="732">
      <contour>
        <pt x="303" y="149" on="1"/>
        <pt x="534" y="149" on="1"/>
        <pt x="511" y="0" on="1"/>
        <pt x="212" y="0" on="1"/>
        <pt x="142" y="0" on="0"/>
        <pt x="74" y="64" on="0"/>
        <pt x="74" y="114" on="1"/>
        <pt x="74" y="130" on="0"/>
        <pt x="77" y="148" on="1"/>
        <pt x="106" y="332" on="1"/>
        <pt x="24" y="300" on="1"/>
        <pt x="37" y="376" on="1"/>
        <pt x="118" y="408" on="1"/>
        <pt x="169" y="732" on="1"/>
        <pt x="333" y="732" on="1"/>
        <pt x="293" y="478" on="1"/>
        <pt x="402" y="522" on="1"/>
        <pt x="390" y="446" on="1"/>
        <pt x="281" y="402" on="1"/>
        <pt x="249" y="201" on="1"/>
        <pt x="243" y="162" on="0"/>
        <pt x="262" y="155" on="1"/>
        <pt x="278" y="149" on="0"/>
      </contour>
    </TTGlyph>
    <TTGlyph name="M" xMin="41" yMin="0" xMax="876" yMax="732">
      <contour>
        <pt x="41" y="0" on="1"/>
        <pt x="228" y="732" on="1"/>
        <pt x="454" y="732" on="1"/>
        <pt x="477" y="272" on="1"/>
        <pt x="644" y="732" on="1"/>
        <pt x="875" y="732" on="1"/>
        <pt x="832" y="0" on="1"/>
        <pt x="671" y="0" on="1"/>
        <pt x="699" y="449" on="1"/>
        <pt x="533" y="0" on="1"/>
        <pt x="344" y="0" on="1"/>
        <pt x="318" y="449" on="1"/>
        <pt x="206" y="0" on="1"/>
      </contour>
    </TTGlyph>
    <TTGlyph name="M.salt" xMin="37" yMin="0" xMax="905" yMax="737">
      <contour>
        <pt x="260" y="719" on="1"/>
        <pt x="301" y="735" on="0"/>
        <pt x="375" y="735" on="0"/>
        <pt x="409" y="722" on="1"/>
        <pt x="495" y="689" on="0"/>
        <pt x="486" y="598" on="1"/>
        <pt x="472" y="322" on="1"/>
        <pt x="471" y="313" on="0"/>
        <pt x="484" y="307" on="0"/>
        <pt x="500" y="315" on="0"/>
        <pt x="501" y="322" on="1"/>
        <pt x="572" y="607" on="1"/>
        <pt x="588" y="687" on="0"/>
        <pt x="675" y="720" on="1"/>
        <pt x="717" y="737" on="0"/>
        <pt x="794" y="737" on="0"/>
        <pt x="828" y="725" on="1"/>
        <pt x="904" y="698" on="0"/>
        <pt x="904" y="631" on="1"/>
        <pt x="904" y="626" on="0"/>
        <pt x="904" y="621" on="1"/>
        <pt x="844" y="0" on="1"/>
        <pt x="678" y="0" on="1"/>
        <pt x="736" y="535" on="1"/>
        <pt x="738" y="546" on="0"/>
        <pt x="727" y="546" on="1"/>
        <pt x="712" y="546" on="0"/>
        <pt x="709" y="532" on="1"/>
        <pt x="638" y="263" on="1"/>
        <pt x="627" y="224" on="0"/>
        <pt x="554" y="171" on="0"/>
        <pt x="486" y="161" on="0"/>
        <pt x="464" y="161" on="1"/>
        <pt x="387" y="161" on="0"/>
        <pt x="349" y="199" on="1"/>
        <pt x="322" y="226" on="0"/>
        <pt x="322" y="265" on="1"/>
        <pt x="322" y="267" on="0"/>
        <pt x="322" y="270" on="1"/>
        <pt x="333" y="539" on="1"/>
        <pt x="334" y="551" on="0"/>
        <pt x="308" y="548" on="0"/>
        <pt x="306" y="533" on="1"/>
        <pt x="200" y="0" on="1"/>
        <pt x="37" y="0" on="1"/>
        <pt x="166" y="613" on="1"/>
        <pt x="180" y="687" on="0"/>
      </contour>
    </TTGlyph>
    <TTGlyph name="N" xMin="53" yMin="0" xMax="749" yMax="732">
      <contour>
        <pt x="54" y="0" on="1"/>
        <pt x="170" y="732" on="1"/>
        <pt x="335" y="732" on="1"/>
        <pt x="517" y="299" on="1"/>
        <pt x="585" y="732" on="1"/>
        <pt x="749" y="732" on="1"/>
        <pt x="633" y="0" on="1"/>
        <pt x="470" y="0" on="1"/>
        <pt x="286" y="425" on="1"/>
        <pt x="219" y="0" on="1"/>
      </contour>
    </TTGlyph>
    <TTGlyph name="N.salt" xMin="53" yMin="-7" xMax="802" yMax="739">
      <contour>
        <pt x="194" y="690" on="1"/>
        <pt x="246" y="739" on="0"/>
        <pt x="418" y="739" on="0"/>
        <pt x="463" y="691" on="1"/>
        <pt x="496" y="656" on="0"/>
        <pt x="496" y="607" on="1"/>
        <pt x="523" y="158" on="1"/>
        <pt x="523" y="145" on="0"/>
        <pt x="533" y="146" on="1"/>
        <pt x="545" y="146" on="0"/>
        <pt x="547" y="161" on="1"/>
        <pt x="638" y="732" on="1"/>
        <pt x="802" y="732" on="1"/>
        <pt x="710" y="136" on="1"/>
        <pt x="703" y="98" on="0"/>
        <pt x="681" y="67" on="1"/>
        <pt x="642" y="15" on="0"/>
        <pt x="560" y="-3" on="1"/>
        <pt x="542" y="-6" on="0"/>
        <pt x="506" y="-6" on="0"/>
        <pt x="455" y="4" on="0"/>
        <pt x="398" y="36" on="0"/>
        <pt x="363" y="99" on="0"/>
        <pt x="363" y="140" on="1"/>
        <pt x="337" y="590" on="1"/>
        <pt x="337" y="603" on="0"/>
        <pt x="323" y="598" on="1"/>
        <pt x="313" y="593" on="0"/>
        <pt x="311" y="583" on="1"/>
        <pt x="218" y="0" on="1"/>
        <pt x="54" y="0" on="1"/>
        <pt x="146" y="597" on="1"/>
        <pt x="155" y="653" on="0"/>
      </contour>
    </TTGlyph>
    <TTGlyph name="Nacute" xMin="53" yMin="0" xMax="749" yMax="938">
      <contour>
        <pt x="420" y="797" on="1"/>
        <pt x="527" y="938" on="1"/>
        <pt x="659" y="938" on="1"/>
        <pt x="519" y="797" on="1"/>
      </contour>
      <contour>
        <pt x="54" y="0" on="1"/>
        <pt x="170" y="732" on="1"/>
        <pt x="335" y="732" on="1"/>
        <pt x="517" y="299" on="1"/>
        <pt x="585" y="732" on="1"/>
        <pt x="749" y="732" on="1"/>
        <pt x="633" y="0" on="1"/>
        <pt x="470" y="0" on="1"/>
        <pt x="286" y="425" on="1"/>
        <pt x="219" y="0" on="1"/>
      </contour>
    </TTGlyph>
    <TTGlyph name="Nacute.salt" xMin="53" yMin="-7" xMax="802" yMax="941">
      <contour>
        <pt x="476" y="800" on="1"/>
        <pt x="582" y="940" on="1"/>
        <pt x="715" y="940" on="1"/>
        <pt x="574" y="800" on="1"/>
      </contour>
      <contour>
        <pt x="194" y="690" on="1"/>
        <pt x="246" y="739" on="0"/>
        <pt x="418" y="739" on="0"/>
        <pt x="463" y="691" on="1"/>
        <pt x="496" y="656" on="0"/>
        <pt x="496" y="607" on="1"/>
        <pt x="523" y="158" on="1"/>
        <pt x="523" y="145" on="0"/>
        <pt x="533" y="146" on="1"/>
        <pt x="545" y="146" on="0"/>
        <pt x="547" y="161" on="1"/>
        <pt x="638" y="732" on="1"/>
        <pt x="802" y="732" on="1"/>
        <pt x="710" y="136" on="1"/>
        <pt x="703" y="98" on="0"/>
        <pt x="681" y="67" on="1"/>
        <pt x="642" y="15" on="0"/>
        <pt x="560" y="-3" on="1"/>
        <pt x="542" y="-6" on="0"/>
        <pt x="506" y="-6" on="0"/>
        <pt x="455" y="4" on="0"/>
        <pt x="398" y="36" on="0"/>
        <pt x="363" y="99" on="0"/>
        <pt x="363" y="140" on="1"/>
        <pt x="337" y="590" on="1"/>
        <pt x="337" y="603" on="0"/>
        <pt x="323" y="598" on="1"/>
        <pt x="313" y="593" on="0"/>
        <pt x="311" y="583" on="1"/>
        <pt x="218" y="0" on="1"/>
        <pt x="54" y="0" on="1"/>
        <pt x="146" y="597" on="1"/>
        <pt x="155" y="653" on="0"/>
      </contour>
    </TTGlyph>
    <TTGlyph name="Ncaron" xMin="53" yMin="0" xMax="749" yMax="935">
      <contour>
        <pt x="334" y="934" on="1"/>
        <pt x="434" y="934" on="1"/>
        <pt x="474" y="876" on="1"/>
        <pt x="537" y="934" on="1"/>
        <pt x="649" y="934" on="1"/>
        <pt x="523" y="797" on="1"/>
        <pt x="410" y="797" on="1"/>
      </contour>
      <contour>
        <pt x="54" y="0" on="1"/>
        <pt x="170" y="732" on="1"/>
        <pt x="335" y="732" on="1"/>
        <pt x="517" y="299" on="1"/>
        <pt x="585" y="732" on="1"/>
        <pt x="749" y="732" on="1"/>
        <pt x="633" y="0" on="1"/>
        <pt x="470" y="0" on="1"/>
        <pt x="286" y="425" on="1"/>
        <pt x="219" y="0" on="1"/>
      </contour>
    </TTGlyph>
    <TTGlyph name="Ncaron.salt" xMin="53" yMin="-7" xMax="802" yMax="938">
      <contour>
        <pt x="364" y="938" on="1"/>
        <pt x="464" y="938" on="1"/>
        <pt x="504" y="878" on="1"/>
        <pt x="567" y="938" on="1"/>
        <pt x="679" y="938" on="1"/>
        <pt x="553" y="800" on="1"/>
        <pt x="440" y="800" on="1"/>
      </contour>
      <contour>
        <pt x="194" y="690" on="1"/>
        <pt x="246" y="739" on="0"/>
        <pt x="418" y="739" on="0"/>
        <pt x="463" y="691" on="1"/>
        <pt x="496" y="656" on="0"/>
        <pt x="496" y="607" on="1"/>
        <pt x="523" y="158" on="1"/>
        <pt x="523" y="145" on="0"/>
        <pt x="533" y="146" on="1"/>
        <pt x="545" y="146" on="0"/>
        <pt x="547" y="161" on="1"/>
        <pt x="638" y="732" on="1"/>
        <pt x="802" y="732" on="1"/>
        <pt x="710" y="136" on="1"/>
        <pt x="703" y="98" on="0"/>
        <pt x="681" y="67" on="1"/>
        <pt x="642" y="15" on="0"/>
        <pt x="560" y="-3" on="1"/>
        <pt x="542" y="-6" on="0"/>
        <pt x="506" y="-6" on="0"/>
        <pt x="455" y="4" on="0"/>
        <pt x="398" y="36" on="0"/>
        <pt x="363" y="99" on="0"/>
        <pt x="363" y="140" on="1"/>
        <pt x="337" y="590" on="1"/>
        <pt x="337" y="603" on="0"/>
        <pt x="323" y="598" on="1"/>
        <pt x="313" y="593" on="0"/>
        <pt x="311" y="583" on="1"/>
        <pt x="218" y="0" on="1"/>
        <pt x="54" y="0" on="1"/>
        <pt x="146" y="597" on="1"/>
        <pt x="155" y="653" on="0"/>
      </contour>
    </TTGlyph>
    <TTGlyph name="Ncommaaccent" xMin="53" yMin="-280" xMax="749" yMax="732">
      <contour>
        <pt x="282" y="-195" on="1"/>
        <pt x="272" y="-195" on="0"/>
        <pt x="261" y="-183" on="0"/>
        <pt x="263" y="-172" on="1"/>
        <pt x="277" y="-83" on="1"/>
        <pt x="281" y="-59" on="0"/>
        <pt x="303" y="-59" on="1"/>
        <pt x="389" y="-59" on="1"/>
        <pt x="408" y="-59" on="0"/>
        <pt x="408" y="-77" on="1"/>
        <pt x="408" y="-80" on="0"/>
        <pt x="407" y="-83" on="1"/>
        <pt x="388" y="-205" on="1"/>
        <pt x="383" y="-234" on="0"/>
        <pt x="351" y="-270" on="0"/>
        <pt x="332" y="-275" on="1"/>
        <pt x="311" y="-280" on="0"/>
        <pt x="274" y="-280" on="0"/>
        <pt x="263" y="-277" on="1"/>
        <pt x="251" y="-274" on="1"/>
        <pt x="259" y="-225" on="1"/>
        <pt x="284" y="-226" on="0"/>
        <pt x="289" y="-209" on="1"/>
        <pt x="289" y="-207" on="0"/>
        <pt x="291" y="-195" on="1"/>
      </contour>
      <contour>
        <pt x="54" y="0" on="1"/>
        <pt x="170" y="732" on="1"/>
        <pt x="335" y="732" on="1"/>
        <pt x="517" y="299" on="1"/>
        <pt x="585" y="732" on="1"/>
        <pt x="749" y="732" on="1"/>
        <pt x="633" y="0" on="1"/>
        <pt x="470" y="0" on="1"/>
        <pt x="286" y="425" on="1"/>
        <pt x="219" y="0" on="1"/>
      </contour>
    </TTGlyph>
    <TTGlyph name="Ncommaaccent.salt" xMin="53" yMin="-309" xMax="802" yMax="739">
      <contour>
        <pt x="313" y="-216" on="1"/>
        <pt x="302" y="-216" on="0"/>
        <pt x="290" y="-204" on="0"/>
        <pt x="292" y="-192" on="1"/>
        <pt x="308" y="-95" on="1"/>
        <pt x="312" y="-69" on="0"/>
        <pt x="336" y="-69" on="1"/>
        <pt x="430" y="-69" on="1"/>
        <pt x="449" y="-69" on="0"/>
        <pt x="449" y="-89" on="1"/>
        <pt x="449" y="-92" on="0"/>
        <pt x="449" y="-95" on="1"/>
        <pt x="428" y="-227" on="1"/>
        <pt x="423" y="-259" on="0"/>
        <pt x="389" y="-298" on="0"/>
        <pt x="368" y="-303" on="1"/>
        <pt x="345" y="-308" on="0"/>
        <pt x="305" y="-308" on="0"/>
        <pt x="293" y="-305" on="1"/>
        <pt x="280" y="-302" on="1"/>
        <pt x="288" y="-249" on="1"/>
        <pt x="302" y="-249" on="0"/>
        <pt x="317" y="-241" on="0"/>
        <pt x="319" y="-237" on="1"/>
        <pt x="321" y="-233" on="0"/>
        <pt x="324" y="-216" on="1"/>
      </contour>
      <contour>
        <pt x="194" y="690" on="1"/>
        <pt x="246" y="739" on="0"/>
        <pt x="418" y="739" on="0"/>
        <pt x="463" y="691" on="1"/>
        <pt x="496" y="656" on="0"/>
        <pt x="496" y="607" on="1"/>
        <pt x="523" y="158" on="1"/>
        <pt x="523" y="145" on="0"/>
        <pt x="533" y="146" on="1"/>
        <pt x="545" y="146" on="0"/>
        <pt x="547" y="161" on="1"/>
        <pt x="638" y="732" on="1"/>
        <pt x="802" y="732" on="1"/>
        <pt x="710" y="136" on="1"/>
        <pt x="703" y="98" on="0"/>
        <pt x="681" y="67" on="1"/>
        <pt x="642" y="15" on="0"/>
        <pt x="560" y="-3" on="1"/>
        <pt x="542" y="-6" on="0"/>
        <pt x="506" y="-6" on="0"/>
        <pt x="455" y="4" on="0"/>
        <pt x="398" y="36" on="0"/>
        <pt x="363" y="99" on="0"/>
        <pt x="363" y="140" on="1"/>
        <pt x="337" y="590" on="1"/>
        <pt x="337" y="603" on="0"/>
        <pt x="323" y="598" on="1"/>
        <pt x="313" y="593" on="0"/>
        <pt x="311" y="583" on="1"/>
        <pt x="218" y="0" on="1"/>
        <pt x="54" y="0" on="1"/>
        <pt x="146" y="597" on="1"/>
        <pt x="155" y="653" on="0"/>
      </contour>
    </TTGlyph>
    <TTGlyph name="Ntilde" xMin="53" yMin="0" xMax="749" yMax="932">
      <contour>
        <pt x="538" y="893" on="1"/>
        <pt x="540" y="893" on="0"/>
        <pt x="566" y="893" on="0"/>
        <pt x="620" y="916" on="0"/>
        <pt x="638" y="932" on="1"/>
        <pt x="652" y="866" on="1"/>
        <pt x="584" y="796" on="0"/>
        <pt x="528" y="796" on="1"/>
        <pt x="504" y="796" on="0"/>
        <pt x="438" y="831" on="0"/>
        <pt x="412" y="831" on="0"/>
        <pt x="395" y="829" on="0"/>
        <pt x="382" y="826" on="0"/>
        <pt x="367" y="821" on="0"/>
        <pt x="355" y="816" on="0"/>
        <pt x="348" y="812" on="1"/>
        <pt x="336" y="806" on="0"/>
        <pt x="320" y="796" on="1"/>
        <pt x="305" y="856" on="1"/>
        <pt x="375" y="928" on="0"/>
        <pt x="438" y="928" on="1"/>
        <pt x="462" y="927" on="0"/>
        <pt x="520" y="893" on="0"/>
      </contour>
      <contour>
        <pt x="54" y="0" on="1"/>
        <pt x="170" y="732" on="1"/>
        <pt x="335" y="732" on="1"/>
        <pt x="517" y="299" on="1"/>
        <pt x="585" y="732" on="1"/>
        <pt x="749" y="732" on="1"/>
        <pt x="633" y="0" on="1"/>
        <pt x="470" y="0" on="1"/>
        <pt x="286" y="425" on="1"/>
        <pt x="219" y="0" on="1"/>
      </contour>
    </TTGlyph>
    <TTGlyph name="Ntilde.salt" xMin="53" yMin="-7" xMax="802" yMax="933">
      <contour>
        <pt x="545" y="894" on="1"/>
        <pt x="547" y="894" on="0"/>
        <pt x="572" y="894" on="0"/>
        <pt x="627" y="917" on="0"/>
        <pt x="645" y="933" on="1"/>
        <pt x="659" y="867" on="1"/>
        <pt x="591" y="797" on="0"/>
        <pt x="535" y="797" on="1"/>
        <pt x="511" y="797" on="0"/>
        <pt x="445" y="832" on="0"/>
        <pt x="422" y="832" on="1"/>
        <pt x="383" y="832" on="0"/>
        <pt x="327" y="797" on="1"/>
        <pt x="312" y="858" on="1"/>
        <pt x="381" y="929" on="0"/>
        <pt x="445" y="929" on="1"/>
        <pt x="468" y="929" on="0"/>
        <pt x="527" y="894" on="0"/>
      </contour>
      <contour>
        <pt x="194" y="690" on="1"/>
        <pt x="246" y="739" on="0"/>
        <pt x="418" y="739" on="0"/>
        <pt x="463" y="691" on="1"/>
        <pt x="496" y="656" on="0"/>
        <pt x="496" y="607" on="1"/>
        <pt x="523" y="158" on="1"/>
        <pt x="523" y="145" on="0"/>
        <pt x="533" y="146" on="1"/>
        <pt x="545" y="146" on="0"/>
        <pt x="547" y="161" on="1"/>
        <pt x="638" y="732" on="1"/>
        <pt x="802" y="732" on="1"/>
        <pt x="710" y="136" on="1"/>
        <pt x="703" y="98" on="0"/>
        <pt x="681" y="67" on="1"/>
        <pt x="642" y="15" on="0"/>
        <pt x="560" y="-3" on="1"/>
        <pt x="542" y="-6" on="0"/>
        <pt x="506" y="-6" on="0"/>
        <pt x="455" y="4" on="0"/>
        <pt x="398" y="36" on="0"/>
        <pt x="363" y="99" on="0"/>
        <pt x="363" y="140" on="1"/>
        <pt x="337" y="590" on="1"/>
        <pt x="337" y="603" on="0"/>
        <pt x="323" y="598" on="1"/>
        <pt x="313" y="593" on="0"/>
        <pt x="311" y="583" on="1"/>
        <pt x="218" y="0" on="1"/>
        <pt x="54" y="0" on="1"/>
        <pt x="146" y="597" on="1"/>
        <pt x="155" y="653" on="0"/>
      </contour>
    </TTGlyph>
    <TTGlyph name="O" xMin="86" yMin="-5" xMax="708" yMax="737">
      <contour>
        <pt x="356" y="734" on="0"/>
        <pt x="411" y="737" on="0"/>
        <pt x="494" y="737" on="0"/>
        <pt x="556" y="729" on="0"/>
        <pt x="617" y="707" on="0"/>
        <pt x="639" y="689" on="1"/>
        <pt x="708" y="629" on="0"/>
        <pt x="708" y="485" on="1"/>
        <pt x="708" y="421" on="0"/>
        <pt x="685" y="274" on="0"/>
        <pt x="653" y="169" on="0"/>
        <pt x="617" y="96" on="0"/>
        <pt x="565" y="45" on="0"/>
        <pt x="516" y="16" on="0"/>
        <pt x="481" y="8" on="1"/>
        <pt x="426" y="-4" on="0"/>
        <pt x="301" y="-4" on="0"/>
        <pt x="239" y="3" on="0"/>
        <pt x="177" y="24" on="0"/>
        <pt x="156" y="42" on="1"/>
        <pt x="107" y="83" on="0"/>
        <pt x="93" y="158" on="1"/>
        <pt x="87" y="193" on="0"/>
        <pt x="87" y="247" on="0"/>
        <pt x="88" y="310" on="0"/>
        <pt x="111" y="452" on="0"/>
        <pt x="145" y="563" on="0"/>
        <pt x="181" y="638" on="0"/>
        <pt x="236" y="690" on="0"/>
        <pt x="283" y="719" on="0"/>
      </contour>
      <contour>
        <pt x="296" y="506" on="0"/>
        <pt x="273" y="424" on="0"/>
        <pt x="251" y="284" on="0"/>
        <pt x="251" y="236" on="0"/>
        <pt x="254" y="200" on="0"/>
        <pt x="267" y="171" on="0"/>
        <pt x="281" y="161" on="1"/>
        <pt x="305" y="145" on="0"/>
        <pt x="415" y="145" on="0"/>
        <pt x="475" y="179" on="0"/>
        <pt x="517" y="272" on="0"/>
        <pt x="529" y="347" on="1"/>
        <pt x="543" y="435" on="0"/>
        <pt x="543" y="509" on="0"/>
        <pt x="535" y="554" on="0"/>
        <pt x="504" y="579" on="0"/>
        <pt x="466" y="588" on="0"/>
        <pt x="400" y="588" on="0"/>
        <pt x="360" y="581" on="0"/>
        <pt x="321" y="556" on="0"/>
      </contour>
    </TTGlyph>
    <TTGlyph name="OE" xMin="68" yMin="-4" xMax="1058" yMax="737">
      <contour>
        <pt x="634" y="-3" on="1"/>
        <pt x="565" y="-3" on="0"/>
        <pt x="526" y="36" on="1"/>
        <pt x="488" y="12" on="0"/>
        <pt x="392" y="-4" on="0"/>
        <pt x="283" y="-4" on="0"/>
        <pt x="220" y="3" on="0"/>
        <pt x="158" y="24" on="0"/>
        <pt x="137" y="42" on="1"/>
        <pt x="88" y="83" on="0"/>
        <pt x="75" y="158" on="1"/>
        <pt x="68" y="193" on="0"/>
        <pt x="68" y="247" on="0"/>
        <pt x="70" y="310" on="0"/>
        <pt x="92" y="452" on="0"/>
        <pt x="126" y="563" on="0"/>
        <pt x="163" y="638" on="0"/>
        <pt x="217" y="690" on="0"/>
        <pt x="265" y="719" on="0"/>
        <pt x="301" y="726" on="1"/>
        <pt x="354" y="737" on="0"/>
        <pt x="436" y="737" on="1"/>
        <pt x="558" y="737" on="0"/>
        <pt x="612" y="690" on="1"/>
        <pt x="654" y="733" on="0"/>
        <pt x="732" y="733" on="1"/>
        <pt x="741" y="733" on="0"/>
        <pt x="750" y="732" on="1"/>
        <pt x="972" y="728" on="0"/>
        <pt x="1058" y="716" on="1"/>
        <pt x="1036" y="579" on="1"/>
        <pt x="772" y="579" on="1"/>
        <pt x="735" y="579" on="0"/>
        <pt x="723" y="561" on="1"/>
        <pt x="714" y="547" on="0"/>
        <pt x="710" y="523" on="1"/>
        <pt x="698" y="443" on="1"/>
        <pt x="964" y="432" on="1"/>
        <pt x="944" y="297" on="1"/>
        <pt x="674" y="288" on="1"/>
        <pt x="660" y="202" on="1"/>
        <pt x="654" y="164" on="0"/>
        <pt x="673" y="156" on="1"/>
        <pt x="688" y="150" on="0"/>
        <pt x="714" y="150" on="1"/>
        <pt x="968" y="150" on="1"/>
        <pt x="947" y="14" on="1"/>
        <pt x="870" y="4" on="0"/>
        <pt x="657" y="-3" on="1"/>
        <pt x="644" y="-3" on="1"/>
        <pt x="639" y="-3" on="0"/>
      </contour>
      <contour>
        <pt x="277" y="506" on="0"/>
        <pt x="255" y="424" on="0"/>
        <pt x="233" y="284" on="0"/>
        <pt x="233" y="236" on="0"/>
        <pt x="235" y="200" on="0"/>
        <pt x="249" y="171" on="0"/>
        <pt x="263" y="161" on="1"/>
        <pt x="287" y="145" on="0"/>
        <pt x="397" y="145" on="0"/>
        <pt x="457" y="179" on="0"/>
        <pt x="498" y="272" on="0"/>
        <pt x="510" y="347" on="1"/>
        <pt x="524" y="435" on="0"/>
        <pt x="524" y="509" on="0"/>
        <pt x="516" y="554" on="0"/>
        <pt x="486" y="579" on="0"/>
        <pt x="447" y="588" on="0"/>
        <pt x="381" y="588" on="0"/>
        <pt x="342" y="581" on="0"/>
        <pt x="302" y="556" on="0"/>
      </contour>
    </TTGlyph>
    <TTGlyph name="Oacute" xMin="86" yMin="-5" xMax="708" yMax="938">
      <contour>
        <pt x="414" y="797" on="1"/>
        <pt x="521" y="938" on="1"/>
        <pt x="654" y="938" on="1"/>
        <pt x="513" y="797" on="1"/>
      </contour>
      <contour>
        <pt x="356" y="734" on="0"/>
        <pt x="411" y="737" on="0"/>
        <pt x="494" y="737" on="0"/>
        <pt x="556" y="729" on="0"/>
        <pt x="617" y="707" on="0"/>
        <pt x="639" y="689" on="1"/>
        <pt x="708" y="629" on="0"/>
        <pt x="708" y="485" on="1"/>
        <pt x="708" y="421" on="0"/>
        <pt x="685" y="274" on="0"/>
        <pt x="653" y="169" on="0"/>
        <pt x="617" y="96" on="0"/>
        <pt x="565" y="45" on="0"/>
        <pt x="516" y="16" on="0"/>
        <pt x="481" y="8" on="1"/>
        <pt x="426" y="-4" on="0"/>
        <pt x="301" y="-4" on="0"/>
        <pt x="239" y="3" on="0"/>
        <pt x="177" y="24" on="0"/>
        <pt x="156" y="42" on="1"/>
        <pt x="107" y="83" on="0"/>
        <pt x="93" y="158" on="1"/>
        <pt x="87" y="193" on="0"/>
        <pt x="87" y="247" on="0"/>
        <pt x="88" y="310" on="0"/>
        <pt x="111" y="452" on="0"/>
        <pt x="145" y="563" on="0"/>
        <pt x="181" y="638" on="0"/>
        <pt x="236" y="690" on="0"/>
        <pt x="283" y="719" on="0"/>
      </contour>
      <contour>
        <pt x="296" y="506" on="0"/>
        <pt x="273" y="424" on="0"/>
        <pt x="251" y="284" on="0"/>
        <pt x="251" y="236" on="0"/>
        <pt x="254" y="200" on="0"/>
        <pt x="267" y="171" on="0"/>
        <pt x="281" y="161" on="1"/>
        <pt x="305" y="145" on="0"/>
        <pt x="415" y="145" on="0"/>
        <pt x="475" y="179" on="0"/>
        <pt x="517" y="272" on="0"/>
        <pt x="529" y="347" on="1"/>
        <pt x="543" y="435" on="0"/>
        <pt x="543" y="509" on="0"/>
        <pt x="535" y="554" on="0"/>
        <pt x="504" y="579" on="0"/>
        <pt x="466" y="588" on="0"/>
        <pt x="400" y="588" on="0"/>
        <pt x="360" y="581" on="0"/>
        <pt x="321" y="556" on="0"/>
      </contour>
    </TTGlyph>
    <TTGlyph name="Ocircumflex" xMin="86" yMin="-5" xMax="708" yMax="935">
      <contour>
        <pt x="307" y="797" on="1"/>
        <pt x="433" y="934" on="1"/>
        <pt x="549" y="934" on="1"/>
        <pt x="621" y="797" on="1"/>
        <pt x="522" y="797" on="1"/>
        <pt x="484" y="856" on="1"/>
        <pt x="418" y="797" on="1"/>
      </contour>
      <contour>
        <pt x="356" y="734" on="0"/>
        <pt x="411" y="737" on="0"/>
        <pt x="494" y="737" on="0"/>
        <pt x="556" y="729" on="0"/>
        <pt x="617" y="707" on="0"/>
        <pt x="639" y="689" on="1"/>
        <pt x="708" y="629" on="0"/>
        <pt x="708" y="485" on="1"/>
        <pt x="708" y="421" on="0"/>
        <pt x="685" y="274" on="0"/>
        <pt x="653" y="169" on="0"/>
        <pt x="617" y="96" on="0"/>
        <pt x="565" y="45" on="0"/>
        <pt x="516" y="16" on="0"/>
        <pt x="481" y="8" on="1"/>
        <pt x="426" y="-4" on="0"/>
        <pt x="301" y="-4" on="0"/>
        <pt x="239" y="3" on="0"/>
        <pt x="177" y="24" on="0"/>
        <pt x="156" y="42" on="1"/>
        <pt x="107" y="83" on="0"/>
        <pt x="93" y="158" on="1"/>
        <pt x="87" y="193" on="0"/>
        <pt x="87" y="247" on="0"/>
        <pt x="88" y="310" on="0"/>
        <pt x="111" y="452" on="0"/>
        <pt x="145" y="563" on="0"/>
        <pt x="181" y="638" on="0"/>
        <pt x="236" y="690" on="0"/>
        <pt x="283" y="719" on="0"/>
      </contour>
      <contour>
        <pt x="296" y="506" on="0"/>
        <pt x="273" y="424" on="0"/>
        <pt x="251" y="284" on="0"/>
        <pt x="251" y="236" on="0"/>
        <pt x="254" y="200" on="0"/>
        <pt x="267" y="171" on="0"/>
        <pt x="281" y="161" on="1"/>
        <pt x="305" y="145" on="0"/>
        <pt x="415" y="145" on="0"/>
        <pt x="475" y="179" on="0"/>
        <pt x="517" y="272" on="0"/>
        <pt x="529" y="347" on="1"/>
        <pt x="543" y="435" on="0"/>
        <pt x="543" y="509" on="0"/>
        <pt x="535" y="554" on="0"/>
        <pt x="504" y="579" on="0"/>
        <pt x="466" y="588" on="0"/>
        <pt x="400" y="588" on="0"/>
        <pt x="360" y="581" on="0"/>
        <pt x="321" y="556" on="0"/>
      </contour>
    </TTGlyph>
    <TTGlyph name="Odieresis" xMin="86" yMin="-5" xMax="708" yMax="921">
      <contour>
        <pt x="331" y="920" on="0"/>
        <pt x="382" y="920" on="0"/>
        <pt x="409" y="889" on="0"/>
        <pt x="409" y="877" on="1"/>
        <pt x="409" y="838" on="0"/>
        <pt x="362" y="797" on="0"/>
        <pt x="311" y="797" on="0"/>
        <pt x="284" y="830" on="0"/>
        <pt x="284" y="842" on="1"/>
        <pt x="284" y="880" on="0"/>
      </contour>
      <contour>
        <pt x="586" y="920" on="0"/>
        <pt x="637" y="920" on="0"/>
        <pt x="664" y="889" on="0"/>
        <pt x="664" y="877" on="1"/>
        <pt x="664" y="838" on="0"/>
        <pt x="617" y="797" on="0"/>
        <pt x="566" y="797" on="0"/>
        <pt x="539" y="830" on="0"/>
        <pt x="539" y="842" on="1"/>
        <pt x="539" y="880" on="0"/>
      </contour>
      <contour>
        <pt x="356" y="734" on="0"/>
        <pt x="411" y="737" on="0"/>
        <pt x="494" y="737" on="0"/>
        <pt x="556" y="729" on="0"/>
        <pt x="617" y="707" on="0"/>
        <pt x="639" y="689" on="1"/>
        <pt x="708" y="629" on="0"/>
        <pt x="708" y="485" on="1"/>
        <pt x="708" y="421" on="0"/>
        <pt x="685" y="274" on="0"/>
        <pt x="653" y="169" on="0"/>
        <pt x="617" y="96" on="0"/>
        <pt x="565" y="45" on="0"/>
        <pt x="516" y="16" on="0"/>
        <pt x="481" y="8" on="1"/>
        <pt x="426" y="-4" on="0"/>
        <pt x="301" y="-4" on="0"/>
        <pt x="239" y="3" on="0"/>
        <pt x="177" y="24" on="0"/>
        <pt x="156" y="42" on="1"/>
        <pt x="107" y="83" on="0"/>
        <pt x="93" y="158" on="1"/>
        <pt x="87" y="193" on="0"/>
        <pt x="87" y="247" on="0"/>
        <pt x="88" y="310" on="0"/>
        <pt x="111" y="452" on="0"/>
        <pt x="145" y="563" on="0"/>
        <pt x="181" y="638" on="0"/>
        <pt x="236" y="690" on="0"/>
        <pt x="283" y="719" on="0"/>
      </contour>
      <contour>
        <pt x="296" y="506" on="0"/>
        <pt x="273" y="424" on="0"/>
        <pt x="251" y="284" on="0"/>
        <pt x="251" y="236" on="0"/>
        <pt x="254" y="200" on="0"/>
        <pt x="267" y="171" on="0"/>
        <pt x="281" y="161" on="1"/>
        <pt x="305" y="145" on="0"/>
        <pt x="415" y="145" on="0"/>
        <pt x="475" y="179" on="0"/>
        <pt x="517" y="272" on="0"/>
        <pt x="529" y="347" on="1"/>
        <pt x="543" y="435" on="0"/>
        <pt x="543" y="509" on="0"/>
        <pt x="535" y="554" on="0"/>
        <pt x="504" y="579" on="0"/>
        <pt x="466" y="588" on="0"/>
        <pt x="400" y="588" on="0"/>
        <pt x="360" y="581" on="0"/>
        <pt x="321" y="556" on="0"/>
      </contour>
    </TTGlyph>
    <TTGlyph name="Ograve" xMin="86" yMin="-5" xMax="708" yMax="938">
      <contour>
        <pt x="316" y="938" on="1"/>
        <pt x="446" y="938" on="1"/>
        <pt x="513" y="797" on="1"/>
        <pt x="414" y="797" on="1"/>
      </contour>
      <contour>
        <pt x="356" y="734" on="0"/>
        <pt x="411" y="737" on="0"/>
        <pt x="494" y="737" on="0"/>
        <pt x="556" y="729" on="0"/>
        <pt x="617" y="707" on="0"/>
        <pt x="639" y="689" on="1"/>
        <pt x="708" y="629" on="0"/>
        <pt x="708" y="485" on="1"/>
        <pt x="708" y="421" on="0"/>
        <pt x="685" y="274" on="0"/>
        <pt x="653" y="169" on="0"/>
        <pt x="617" y="96" on="0"/>
        <pt x="565" y="45" on="0"/>
        <pt x="516" y="16" on="0"/>
        <pt x="481" y="8" on="1"/>
        <pt x="426" y="-4" on="0"/>
        <pt x="301" y="-4" on="0"/>
        <pt x="239" y="3" on="0"/>
        <pt x="177" y="24" on="0"/>
        <pt x="156" y="42" on="1"/>
        <pt x="107" y="83" on="0"/>
        <pt x="93" y="158" on="1"/>
        <pt x="87" y="193" on="0"/>
        <pt x="87" y="247" on="0"/>
        <pt x="88" y="310" on="0"/>
        <pt x="111" y="452" on="0"/>
        <pt x="145" y="563" on="0"/>
        <pt x="181" y="638" on="0"/>
        <pt x="236" y="690" on="0"/>
        <pt x="283" y="719" on="0"/>
      </contour>
      <contour>
        <pt x="296" y="506" on="0"/>
        <pt x="273" y="424" on="0"/>
        <pt x="251" y="284" on="0"/>
        <pt x="251" y="236" on="0"/>
        <pt x="254" y="200" on="0"/>
        <pt x="267" y="171" on="0"/>
        <pt x="281" y="161" on="1"/>
        <pt x="305" y="145" on="0"/>
        <pt x="415" y="145" on="0"/>
        <pt x="475" y="179" on="0"/>
        <pt x="517" y="272" on="0"/>
        <pt x="529" y="347" on="1"/>
        <pt x="543" y="435" on="0"/>
        <pt x="543" y="509" on="0"/>
        <pt x="535" y="554" on="0"/>
        <pt x="504" y="579" on="0"/>
        <pt x="466" y="588" on="0"/>
        <pt x="400" y="588" on="0"/>
        <pt x="360" y="581" on="0"/>
        <pt x="321" y="556" on="0"/>
      </contour>
    </TTGlyph>
    <TTGlyph name="Ohungarumlaut" xMin="86" yMin="-5" xMax="736" yMax="938">
      <contour>
        <pt x="333" y="797" on="1"/>
        <pt x="440" y="938" on="1"/>
        <pt x="572" y="938" on="1"/>
        <pt x="432" y="797" on="1"/>
      </contour>
      <contour>
        <pt x="496" y="797" on="1"/>
        <pt x="603" y="938" on="1"/>
        <pt x="736" y="938" on="1"/>
        <pt x="595" y="797" on="1"/>
      </contour>
      <contour>
        <pt x="356" y="734" on="0"/>
        <pt x="411" y="737" on="0"/>
        <pt x="494" y="737" on="0"/>
        <pt x="556" y="729" on="0"/>
        <pt x="617" y="707" on="0"/>
        <pt x="639" y="689" on="1"/>
        <pt x="708" y="629" on="0"/>
        <pt x="708" y="485" on="1"/>
        <pt x="708" y="421" on="0"/>
        <pt x="685" y="274" on="0"/>
        <pt x="653" y="169" on="0"/>
        <pt x="617" y="96" on="0"/>
        <pt x="565" y="45" on="0"/>
        <pt x="516" y="16" on="0"/>
        <pt x="481" y="8" on="1"/>
        <pt x="426" y="-4" on="0"/>
        <pt x="301" y="-4" on="0"/>
        <pt x="239" y="3" on="0"/>
        <pt x="177" y="24" on="0"/>
        <pt x="156" y="42" on="1"/>
        <pt x="107" y="83" on="0"/>
        <pt x="93" y="158" on="1"/>
        <pt x="87" y="193" on="0"/>
        <pt x="87" y="247" on="0"/>
        <pt x="88" y="310" on="0"/>
        <pt x="111" y="452" on="0"/>
        <pt x="145" y="563" on="0"/>
        <pt x="181" y="638" on="0"/>
        <pt x="236" y="690" on="0"/>
        <pt x="283" y="719" on="0"/>
      </contour>
      <contour>
        <pt x="296" y="506" on="0"/>
        <pt x="273" y="424" on="0"/>
        <pt x="251" y="284" on="0"/>
        <pt x="251" y="236" on="0"/>
        <pt x="254" y="200" on="0"/>
        <pt x="267" y="171" on="0"/>
        <pt x="281" y="161" on="1"/>
        <pt x="305" y="145" on="0"/>
        <pt x="415" y="145" on="0"/>
        <pt x="475" y="179" on="0"/>
        <pt x="517" y="272" on="0"/>
        <pt x="529" y="347" on="1"/>
        <pt x="543" y="435" on="0"/>
        <pt x="543" y="509" on="0"/>
        <pt x="535" y="554" on="0"/>
        <pt x="504" y="579" on="0"/>
        <pt x="466" y="588" on="0"/>
        <pt x="400" y="588" on="0"/>
        <pt x="360" y="581" on="0"/>
        <pt x="321" y="556" on="0"/>
      </contour>
    </TTGlyph>
    <TTGlyph name="Omacron" xMin="86" yMin="-5" xMax="708" yMax="882">
      <contour>
        <pt x="320" y="796" on="1"/>
        <pt x="334" y="881" on="1"/>
        <pt x="626" y="881" on="1"/>
        <pt x="612" y="796" on="1"/>
      </contour>
      <contour>
        <pt x="356" y="734" on="0"/>
        <pt x="411" y="737" on="0"/>
        <pt x="494" y="737" on="0"/>
        <pt x="556" y="729" on="0"/>
        <pt x="617" y="707" on="0"/>
        <pt x="639" y="689" on="1"/>
        <pt x="708" y="629" on="0"/>
        <pt x="708" y="485" on="1"/>
        <pt x="708" y="421" on="0"/>
        <pt x="685" y="274" on="0"/>
        <pt x="653" y="169" on="0"/>
        <pt x="617" y="96" on="0"/>
        <pt x="565" y="45" on="0"/>
        <pt x="516" y="16" on="0"/>
        <pt x="481" y="8" on="1"/>
        <pt x="426" y="-4" on="0"/>
        <pt x="301" y="-4" on="0"/>
        <pt x="239" y="3" on="0"/>
        <pt x="177" y="24" on="0"/>
        <pt x="156" y="42" on="1"/>
        <pt x="107" y="83" on="0"/>
        <pt x="93" y="158" on="1"/>
        <pt x="87" y="193" on="0"/>
        <pt x="87" y="247" on="0"/>
        <pt x="88" y="310" on="0"/>
        <pt x="111" y="452" on="0"/>
        <pt x="145" y="563" on="0"/>
        <pt x="181" y="638" on="0"/>
        <pt x="236" y="690" on="0"/>
        <pt x="283" y="719" on="0"/>
      </contour>
      <contour>
        <pt x="296" y="506" on="0"/>
        <pt x="273" y="424" on="0"/>
        <pt x="251" y="284" on="0"/>
        <pt x="251" y="236" on="0"/>
        <pt x="254" y="200" on="0"/>
        <pt x="267" y="171" on="0"/>
        <pt x="281" y="161" on="1"/>
        <pt x="305" y="145" on="0"/>
        <pt x="415" y="145" on="0"/>
        <pt x="475" y="179" on="0"/>
        <pt x="517" y="272" on="0"/>
        <pt x="529" y="347" on="1"/>
        <pt x="543" y="435" on="0"/>
        <pt x="543" y="509" on="0"/>
        <pt x="535" y="554" on="0"/>
        <pt x="504" y="579" on="0"/>
        <pt x="466" y="588" on="0"/>
        <pt x="400" y="588" on="0"/>
        <pt x="360" y="581" on="0"/>
        <pt x="321" y="556" on="0"/>
      </contour>
    </TTGlyph>
    <TTGlyph name="Omega" xMin="49" yMin="0" xMax="777" yMax="739">
      <contour>
        <pt x="259" y="289" on="1"/>
        <pt x="259" y="213" on="0"/>
        <pt x="323" y="146" on="1"/>
        <pt x="299" y="0" on="1"/>
        <pt x="49" y="0" on="1"/>
        <pt x="71" y="136" on="1"/>
        <pt x="176" y="146" on="1"/>
        <pt x="140" y="173" on="0"/>
        <pt x="121" y="221" on="1"/>
        <pt x="101" y="272" on="0"/>
        <pt x="101" y="377" on="0"/>
        <pt x="116" y="475" on="0"/>
        <pt x="147" y="560" on="0"/>
        <pt x="208" y="644" on="0"/>
        <pt x="249" y="673" on="1"/>
        <pt x="340" y="739" on="0"/>
        <pt x="489" y="739" on="1"/>
        <pt x="631" y="739" on="0"/>
        <pt x="702" y="669" on="1"/>
        <pt x="773" y="597" on="0"/>
        <pt x="777" y="497" on="1"/>
        <pt x="777" y="486" on="0"/>
        <pt x="777" y="434" on="0"/>
        <pt x="772" y="390" on="1"/>
        <pt x="758" y="304" on="0"/>
        <pt x="697" y="194" on="0"/>
        <pt x="639" y="144" on="1"/>
        <pt x="736" y="134" on="1"/>
        <pt x="715" y="0" on="1"/>
        <pt x="457" y="0" on="1"/>
        <pt x="480" y="146" on="1"/>
        <pt x="560" y="204" on="0"/>
        <pt x="586" y="292" on="1"/>
        <pt x="612" y="373" on="0"/>
        <pt x="612" y="442" on="1"/>
        <pt x="612" y="543" on="0"/>
        <pt x="541" y="577" on="1"/>
        <pt x="513" y="590" on="0"/>
        <pt x="431" y="590" on="0"/>
        <pt x="363" y="563" on="0"/>
        <pt x="320" y="521" on="0"/>
        <pt x="304" y="492" on="1"/>
        <pt x="277" y="444" on="0"/>
        <pt x="259" y="326" on="0"/>
      </contour>
    </TTGlyph>
    <TTGlyph name="Oslash" xMin="33" yMin="-5" xMax="740" yMax="737">
      <contour>
        <pt x="110" y="89" on="1"/>
        <pt x="85" y="140" on="0"/>
        <pt x="85" y="302" on="0"/>
        <pt x="107" y="440" on="0"/>
        <pt x="131" y="532" on="0"/>
        <pt x="158" y="601" on="0"/>
        <pt x="195" y="654" on="0"/>
        <pt x="229" y="690" on="0"/>
        <pt x="278" y="715" on="0"/>
        <pt x="317" y="728" on="0"/>
        <pt x="346" y="732" on="1"/>
        <pt x="390" y="737" on="0"/>
        <pt x="453" y="737" on="1"/>
        <pt x="579" y="737" on="0"/>
        <pt x="632" y="699" on="1"/>
        <pt x="660" y="732" on="1"/>
        <pt x="740" y="732" on="1"/>
        <pt x="674" y="655" on="1"/>
        <pt x="706" y="601" on="0"/>
        <pt x="706" y="489" on="1"/>
        <pt x="706" y="364" on="0"/>
        <pt x="674" y="242" on="1"/>
        <pt x="650" y="151" on="0"/>
        <pt x="619" y="106" on="1"/>
        <pt x="582" y="53" on="0"/>
        <pt x="544" y="33" on="1"/>
        <pt x="499" y="8" on="0"/>
        <pt x="460" y="3" on="1"/>
        <pt x="405" y="-4" on="0"/>
        <pt x="272" y="-4" on="0"/>
        <pt x="179" y="14" on="0"/>
        <pt x="147" y="40" on="1"/>
        <pt x="113" y="0" on="1"/>
        <pt x="33" y="0" on="1"/>
      </contour>
      <contour>
        <pt x="294" y="506" on="0"/>
        <pt x="272" y="424" on="0"/>
        <pt x="253" y="306" on="0"/>
        <pt x="253" y="263" on="0"/>
        <pt x="254" y="256" on="1"/>
        <pt x="518" y="568" on="1"/>
        <pt x="496" y="588" on="0"/>
        <pt x="432" y="588" on="1"/>
        <pt x="398" y="588" on="0"/>
        <pt x="359" y="581" on="0"/>
        <pt x="319" y="556" on="0"/>
      </contour>
      <contour>
        <pt x="362" y="145" on="1"/>
        <pt x="401" y="145" on="0"/>
        <pt x="452" y="162" on="0"/>
        <pt x="472" y="186" on="1"/>
        <pt x="509" y="229" on="0"/>
        <pt x="530" y="361" on="1"/>
        <pt x="540" y="430" on="0"/>
        <pt x="540" y="488" on="0"/>
        <pt x="539" y="500" on="1"/>
        <pt x="266" y="177" on="1"/>
        <pt x="287" y="145" on="0"/>
      </contour>
    </TTGlyph>
    <TTGlyph name="Otilde" xMin="86" yMin="-5" xMax="708" yMax="933">
      <contour>
        <pt x="533" y="894" on="1"/>
        <pt x="536" y="894" on="0"/>
        <pt x="561" y="894" on="0"/>
        <pt x="615" y="917" on="0"/>
        <pt x="633" y="933" on="1"/>
        <pt x="648" y="867" on="1"/>
        <pt x="579" y="797" on="0"/>
        <pt x="524" y="797" on="1"/>
        <pt x="499" y="797" on="0"/>
        <pt x="434" y="832" on="0"/>
        <pt x="411" y="832" on="1"/>
        <pt x="372" y="832" on="0"/>
        <pt x="316" y="797" on="1"/>
        <pt x="300" y="858" on="1"/>
        <pt x="370" y="929" on="0"/>
        <pt x="433" y="929" on="1"/>
        <pt x="457" y="929" on="0"/>
        <pt x="516" y="894" on="0"/>
      </contour>
      <contour>
        <pt x="356" y="734" on="0"/>
        <pt x="411" y="737" on="0"/>
        <pt x="494" y="737" on="0"/>
        <pt x="556" y="729" on="0"/>
        <pt x="617" y="707" on="0"/>
        <pt x="639" y="689" on="1"/>
        <pt x="708" y="629" on="0"/>
        <pt x="708" y="485" on="1"/>
        <pt x="708" y="421" on="0"/>
        <pt x="685" y="274" on="0"/>
        <pt x="653" y="169" on="0"/>
        <pt x="617" y="96" on="0"/>
        <pt x="565" y="45" on="0"/>
        <pt x="516" y="16" on="0"/>
        <pt x="481" y="8" on="1"/>
        <pt x="426" y="-4" on="0"/>
        <pt x="301" y="-4" on="0"/>
        <pt x="239" y="3" on="0"/>
        <pt x="177" y="24" on="0"/>
        <pt x="156" y="42" on="1"/>
        <pt x="107" y="83" on="0"/>
        <pt x="93" y="158" on="1"/>
        <pt x="87" y="193" on="0"/>
        <pt x="87" y="247" on="0"/>
        <pt x="88" y="310" on="0"/>
        <pt x="111" y="452" on="0"/>
        <pt x="145" y="563" on="0"/>
        <pt x="181" y="638" on="0"/>
        <pt x="236" y="690" on="0"/>
        <pt x="283" y="719" on="0"/>
      </contour>
      <contour>
        <pt x="296" y="506" on="0"/>
        <pt x="273" y="424" on="0"/>
        <pt x="251" y="284" on="0"/>
        <pt x="251" y="236" on="0"/>
        <pt x="254" y="200" on="0"/>
        <pt x="267" y="171" on="0"/>
        <pt x="281" y="161" on="1"/>
        <pt x="305" y="145" on="0"/>
        <pt x="415" y="145" on="0"/>
        <pt x="475" y="179" on="0"/>
        <pt x="517" y="272" on="0"/>
        <pt x="529" y="347" on="1"/>
        <pt x="543" y="435" on="0"/>
        <pt x="543" y="509" on="0"/>
        <pt x="535" y="554" on="0"/>
        <pt x="504" y="579" on="0"/>
        <pt x="466" y="588" on="0"/>
        <pt x="400" y="588" on="0"/>
        <pt x="360" y="581" on="0"/>
        <pt x="321" y="556" on="0"/>
      </contour>
    </TTGlyph>
    <TTGlyph name="P" xMin="51" yMin="0" xMax="657" yMax="732">
      <contour>
        <pt x="474" y="732" on="1"/>
        <pt x="537" y="732" on="0"/>
        <pt x="586" y="700" on="1"/>
        <pt x="637" y="668" on="0"/>
        <pt x="653" y="582" on="1"/>
        <pt x="656" y="563" on="0"/>
        <pt x="656" y="513" on="0"/>
        <pt x="642" y="423" on="0"/>
        <pt x="609" y="340" on="0"/>
        <pt x="568" y="295" on="0"/>
        <pt x="519" y="266" on="0"/>
        <pt x="495" y="263" on="1"/>
        <pt x="449" y="258" on="0"/>
        <pt x="413" y="258" on="0"/>
        <pt x="371" y="262" on="0"/>
        <pt x="264" y="277" on="0"/>
        <pt x="260" y="280" on="1"/>
        <pt x="216" y="0" on="1"/>
        <pt x="52" y="0" on="1"/>
        <pt x="168" y="732" on="1"/>
      </contour>
      <contour>
        <pt x="406" y="402" on="1"/>
        <pt x="438" y="402" on="0"/>
        <pt x="477" y="447" on="0"/>
        <pt x="485" y="499" on="1"/>
        <pt x="488" y="515" on="0"/>
        <pt x="488" y="529" on="1"/>
        <pt x="488" y="590" on="0"/>
        <pt x="436" y="590" on="1"/>
        <pt x="309" y="590" on="1"/>
        <pt x="279" y="402" on="1"/>
      </contour>
    </TTGlyph>
    <TTGlyph name="Q" xMin="87" yMin="-190" xMax="709" yMax="737">
      <contour>
        <pt x="357" y="734" on="0"/>
        <pt x="411" y="737" on="0"/>
        <pt x="495" y="737" on="0"/>
        <pt x="557" y="729" on="0"/>
        <pt x="618" y="706" on="0"/>
        <pt x="640" y="687" on="1"/>
        <pt x="709" y="627" on="0"/>
        <pt x="709" y="482" on="1"/>
        <pt x="709" y="363" on="0"/>
        <pt x="676" y="242" on="1"/>
        <pt x="652" y="151" on="0"/>
        <pt x="604" y="81" on="0"/>
        <pt x="570" y="46" on="0"/>
        <pt x="523" y="21" on="0"/>
        <pt x="482" y="7" on="0"/>
        <pt x="453" y="3" on="1"/>
        <pt x="318" y="-16" on="0"/>
        <pt x="224" y="10" on="1"/>
        <pt x="173" y="23" on="0"/>
        <pt x="136" y="65" on="1"/>
        <pt x="103" y="102" on="0"/>
        <pt x="91" y="182" on="1"/>
        <pt x="87" y="209" on="0"/>
        <pt x="87" y="233" on="1"/>
        <pt x="87" y="303" on="0"/>
        <pt x="112" y="456" on="0"/>
        <pt x="146" y="566" on="0"/>
        <pt x="182" y="641" on="0"/>
        <pt x="237" y="692" on="0"/>
        <pt x="284" y="720" on="0"/>
      </contour>
      <contour>
        <pt x="297" y="506" on="0"/>
        <pt x="274" y="424" on="0"/>
        <pt x="252" y="284" on="0"/>
        <pt x="252" y="236" on="0"/>
        <pt x="255" y="200" on="0"/>
        <pt x="268" y="171" on="0"/>
        <pt x="282" y="161" on="1"/>
        <pt x="306" y="145" on="0"/>
        <pt x="416" y="145" on="0"/>
        <pt x="476" y="179" on="0"/>
        <pt x="518" y="272" on="0"/>
        <pt x="530" y="347" on="1"/>
        <pt x="544" y="435" on="0"/>
        <pt x="544" y="509" on="0"/>
        <pt x="536" y="554" on="0"/>
        <pt x="505" y="579" on="0"/>
        <pt x="467" y="588" on="0"/>
        <pt x="401" y="588" on="0"/>
        <pt x="361" y="581" on="0"/>
        <pt x="322" y="556" on="0"/>
      </contour>
      <contour>
        <pt x="450" y="-76" on="1"/>
        <pt x="484" y="-76" on="0"/>
        <pt x="533" y="-64" on="1"/>
        <pt x="513" y="-189" on="1"/>
        <pt x="428" y="-201" on="0"/>
        <pt x="379" y="-183" on="1"/>
        <pt x="349" y="-172" on="0"/>
        <pt x="326" y="-154" on="1"/>
        <pt x="286" y="-121" on="0"/>
        <pt x="286" y="-57" on="1"/>
        <pt x="286" y="-46" on="0"/>
        <pt x="287" y="-33" on="1"/>
        <pt x="377" y="-33" on="1"/>
        <pt x="385" y="-76" on="0"/>
      </contour>
    </TTGlyph>
    <TTGlyph name="R" xMin="51" yMin="0" xMax="655" yMax="732">
      <contour>
        <pt x="476" y="732" on="1"/>
        <pt x="571" y="732" on="0"/>
        <pt x="620" y="671" on="1"/>
        <pt x="655" y="626" on="0"/>
        <pt x="655" y="547" on="1"/>
        <pt x="655" y="463" on="0"/>
        <pt x="628" y="393" on="1"/>
        <pt x="613" y="356" on="0"/>
        <pt x="584" y="317" on="0"/>
        <pt x="542" y="292" on="0"/>
        <pt x="519" y="286" on="0"/>
        <pt x="503" y="283" on="1"/>
        <pt x="606" y="0" on="1"/>
        <pt x="420" y="0" on="1"/>
        <pt x="339" y="275" on="1"/>
        <pt x="260" y="282" on="1"/>
        <pt x="216" y="0" on="1"/>
        <pt x="52" y="0" on="1"/>
        <pt x="168" y="732" on="1"/>
      </contour>
      <contour>
        <pt x="404" y="407" on="1"/>
        <pt x="454" y="407" on="0"/>
        <pt x="472" y="447" on="1"/>
        <pt x="487" y="481" on="0"/>
        <pt x="487" y="557" on="0"/>
        <pt x="480" y="570" on="1"/>
        <pt x="469" y="590" on="0"/>
        <pt x="435" y="590" on="1"/>
        <pt x="310" y="590" on="1"/>
        <pt x="281" y="407" on="1"/>
      </contour>
    </TTGlyph>
    <TTGlyph name="Racute" xMin="42" yMin="0" xMax="646" yMax="934">
      <contour>
        <pt x="360" y="793" on="1"/>
        <pt x="467" y="934" on="1"/>
        <pt x="599" y="934" on="1"/>
        <pt x="459" y="793" on="1"/>
      </contour>
      <contour>
        <pt x="467" y="732" on="1"/>
        <pt x="562" y="732" on="0"/>
        <pt x="611" y="671" on="1"/>
        <pt x="646" y="626" on="0"/>
        <pt x="646" y="547" on="1"/>
        <pt x="646" y="463" on="0"/>
        <pt x="619" y="393" on="1"/>
        <pt x="604" y="356" on="0"/>
        <pt x="575" y="317" on="0"/>
        <pt x="533" y="292" on="0"/>
        <pt x="510" y="286" on="0"/>
        <pt x="494" y="283" on="1"/>
        <pt x="597" y="0" on="1"/>
        <pt x="411" y="0" on="1"/>
        <pt x="330" y="275" on="1"/>
        <pt x="251" y="282" on="1"/>
        <pt x="207" y="0" on="1"/>
        <pt x="43" y="0" on="1"/>
        <pt x="159" y="732" on="1"/>
      </contour>
      <contour>
        <pt x="395" y="407" on="1"/>
        <pt x="445" y="407" on="0"/>
        <pt x="463" y="447" on="1"/>
        <pt x="478" y="481" on="0"/>
        <pt x="478" y="557" on="0"/>
        <pt x="471" y="570" on="1"/>
        <pt x="460" y="590" on="0"/>
        <pt x="426" y="590" on="1"/>
        <pt x="301" y="590" on="1"/>
        <pt x="272" y="407" on="1"/>
      </contour>
    </TTGlyph>
    <TTGlyph name="Rcaron" xMin="51" yMin="0" xMax="655" yMax="935">
      <contour>
        <pt x="290" y="934" on="1"/>
        <pt x="389" y="934" on="1"/>
        <pt x="430" y="876" on="1"/>
        <pt x="493" y="934" on="1"/>
        <pt x="604" y="934" on="1"/>
        <pt x="478" y="797" on="1"/>
        <pt x="366" y="797" on="1"/>
      </contour>
      <contour>
        <pt x="476" y="732" on="1"/>
        <pt x="571" y="732" on="0"/>
        <pt x="620" y="671" on="1"/>
        <pt x="655" y="626" on="0"/>
        <pt x="655" y="547" on="1"/>
        <pt x="655" y="463" on="0"/>
        <pt x="628" y="393" on="1"/>
        <pt x="613" y="356" on="0"/>
        <pt x="584" y="317" on="0"/>
        <pt x="542" y="292" on="0"/>
        <pt x="519" y="286" on="0"/>
        <pt x="503" y="283" on="1"/>
        <pt x="606" y="0" on="1"/>
        <pt x="420" y="0" on="1"/>
        <pt x="339" y="275" on="1"/>
        <pt x="260" y="282" on="1"/>
        <pt x="216" y="0" on="1"/>
        <pt x="52" y="0" on="1"/>
        <pt x="168" y="732" on="1"/>
      </contour>
      <contour>
        <pt x="404" y="407" on="1"/>
        <pt x="454" y="407" on="0"/>
        <pt x="472" y="447" on="1"/>
        <pt x="487" y="481" on="0"/>
        <pt x="487" y="557" on="0"/>
        <pt x="480" y="570" on="1"/>
        <pt x="469" y="590" on="0"/>
        <pt x="435" y="590" on="1"/>
        <pt x="310" y="590" on="1"/>
        <pt x="281" y="407" on="1"/>
      </contour>
    </TTGlyph>
    <TTGlyph name="Rcommaaccent" xMin="51" yMin="-280" xMax="655" yMax="732">
      <contour>
        <pt x="249" y="-195" on="1"/>
        <pt x="239" y="-195" on="0"/>
        <pt x="228" y="-183" on="0"/>
        <pt x="230" y="-172" on="1"/>
        <pt x="244" y="-83" on="1"/>
        <pt x="248" y="-59" on="0"/>
        <pt x="270" y="-59" on="1"/>
        <pt x="356" y="-59" on="1"/>
        <pt x="375" y="-59" on="0"/>
        <pt x="375" y="-77" on="1"/>
        <pt x="375" y="-80" on="0"/>
        <pt x="374" y="-83" on="1"/>
        <pt x="355" y="-205" on="1"/>
        <pt x="350" y="-234" on="0"/>
        <pt x="318" y="-270" on="0"/>
        <pt x="299" y="-275" on="1"/>
        <pt x="278" y="-280" on="0"/>
        <pt x="241" y="-280" on="0"/>
        <pt x="230" y="-277" on="1"/>
        <pt x="218" y="-274" on="1"/>
        <pt x="226" y="-225" on="1"/>
        <pt x="245" y="-226" on="0"/>
        <pt x="250" y="-220" on="1"/>
        <pt x="255" y="-212" on="0"/>
        <pt x="258" y="-195" on="1"/>
      </contour>
      <contour>
        <pt x="476" y="732" on="1"/>
        <pt x="571" y="732" on="0"/>
        <pt x="620" y="671" on="1"/>
        <pt x="655" y="626" on="0"/>
        <pt x="655" y="547" on="1"/>
        <pt x="655" y="463" on="0"/>
        <pt x="628" y="393" on="1"/>
        <pt x="613" y="356" on="0"/>
        <pt x="584" y="317" on="0"/>
        <pt x="542" y="292" on="0"/>
        <pt x="519" y="286" on="0"/>
        <pt x="503" y="283" on="1"/>
        <pt x="606" y="0" on="1"/>
        <pt x="420" y="0" on="1"/>
        <pt x="339" y="275" on="1"/>
        <pt x="260" y="282" on="1"/>
        <pt x="216" y="0" on="1"/>
        <pt x="52" y="0" on="1"/>
        <pt x="168" y="732" on="1"/>
      </contour>
      <contour>
        <pt x="404" y="407" on="1"/>
        <pt x="454" y="407" on="0"/>
        <pt x="472" y="447" on="1"/>
        <pt x="487" y="481" on="0"/>
        <pt x="487" y="557" on="0"/>
        <pt x="480" y="570" on="1"/>
        <pt x="469" y="590" on="0"/>
        <pt x="435" y="590" on="1"/>
        <pt x="310" y="590" on="1"/>
        <pt x="281" y="407" on="1"/>
      </contour>
    </TTGlyph>
    <TTGlyph name="S" xMin="67" yMin="-8" xMax="639" yMax="739">
      <contour>
        <pt x="335" y="141" on="1"/>
        <pt x="371" y="141" on="0"/>
        <pt x="415" y="164" on="0"/>
        <pt x="420" y="194" on="1"/>
        <pt x="424" y="223" on="1"/>
        <pt x="427" y="241" on="0"/>
        <pt x="425" y="254" on="1"/>
        <pt x="421" y="281" on="0"/>
        <pt x="373" y="281" on="1"/>
        <pt x="286" y="281" on="1"/>
        <pt x="182" y="281" on="0"/>
        <pt x="140" y="345" on="1"/>
        <pt x="113" y="387" on="0"/>
        <pt x="113" y="450" on="1"/>
        <pt x="113" y="466" on="0"/>
        <pt x="116" y="486" on="1"/>
        <pt x="126" y="566" on="1"/>
        <pt x="144" y="686" on="0"/>
        <pt x="234" y="719" on="1"/>
        <pt x="285" y="738" on="0"/>
        <pt x="546" y="738" on="0"/>
        <pt x="638" y="707" on="1"/>
        <pt x="618" y="579" on="1"/>
        <pt x="507" y="589" on="0"/>
        <pt x="377" y="589" on="1"/>
        <pt x="334" y="589" on="0"/>
        <pt x="295" y="569" on="0"/>
        <pt x="289" y="530" on="1"/>
        <pt x="285" y="505" on="1"/>
        <pt x="283" y="494" on="0"/>
        <pt x="283" y="465" on="0"/>
        <pt x="305" y="445" on="0"/>
        <pt x="346" y="445" on="1"/>
        <pt x="437" y="445" on="1"/>
        <pt x="478" y="445" on="0"/>
        <pt x="540" y="418" on="0"/>
        <pt x="556" y="397" on="1"/>
        <pt x="591" y="349" on="0"/>
        <pt x="591" y="297" on="1"/>
        <pt x="591" y="274" on="0"/>
        <pt x="589" y="243" on="1"/>
        <pt x="585" y="178" on="1"/>
        <pt x="578" y="72" on="0"/>
        <pt x="514" y="30" on="1"/>
        <pt x="476" y="5" on="0"/>
        <pt x="439" y="-1" on="1"/>
        <pt x="392" y="-8" on="0"/>
        <pt x="240" y="-8" on="0"/>
        <pt x="125" y="4" on="0"/>
        <pt x="68" y="24" on="1"/>
        <pt x="88" y="152" on="1"/>
        <pt x="184" y="141" on="0"/>
      </contour>
    </TTGlyph>
    <TTGlyph name="Sacute" xMin="64" yMin="-8" xMax="636" yMax="940">
      <contour>
        <pt x="359" y="799" on="1"/>
        <pt x="466" y="939" on="1"/>
        <pt x="598" y="939" on="1"/>
        <pt x="458" y="799" on="1"/>
      </contour>
      <contour>
        <pt x="332" y="141" on="1"/>
        <pt x="368" y="141" on="0"/>
        <pt x="412" y="164" on="0"/>
        <pt x="417" y="194" on="1"/>
        <pt x="422" y="223" on="1"/>
        <pt x="424" y="241" on="0"/>
        <pt x="422" y="254" on="1"/>
        <pt x="418" y="281" on="0"/>
        <pt x="370" y="281" on="1"/>
        <pt x="283" y="281" on="1"/>
        <pt x="179" y="281" on="0"/>
        <pt x="137" y="345" on="1"/>
        <pt x="110" y="387" on="0"/>
        <pt x="110" y="450" on="1"/>
        <pt x="110" y="466" on="0"/>
        <pt x="112" y="486" on="1"/>
        <pt x="123" y="566" on="1"/>
        <pt x="141" y="686" on="0"/>
        <pt x="231" y="719" on="1"/>
        <pt x="282" y="738" on="0"/>
        <pt x="543" y="738" on="0"/>
        <pt x="636" y="707" on="1"/>
        <pt x="615" y="579" on="1"/>
        <pt x="504" y="589" on="0"/>
        <pt x="374" y="589" on="1"/>
        <pt x="331" y="589" on="0"/>
        <pt x="292" y="569" on="0"/>
        <pt x="286" y="530" on="1"/>
        <pt x="282" y="505" on="1"/>
        <pt x="280" y="494" on="0"/>
        <pt x="280" y="465" on="0"/>
        <pt x="302" y="445" on="0"/>
        <pt x="344" y="445" on="1"/>
        <pt x="434" y="445" on="1"/>
        <pt x="475" y="445" on="0"/>
        <pt x="537" y="418" on="0"/>
        <pt x="553" y="397" on="1"/>
        <pt x="588" y="349" on="0"/>
        <pt x="588" y="297" on="1"/>
        <pt x="588" y="274" on="0"/>
        <pt x="586" y="243" on="1"/>
        <pt x="582" y="178" on="1"/>
        <pt x="575" y="72" on="0"/>
        <pt x="511" y="30" on="1"/>
        <pt x="473" y="5" on="0"/>
        <pt x="436" y="-1" on="1"/>
        <pt x="389" y="-8" on="0"/>
        <pt x="237" y="-8" on="0"/>
        <pt x="122" y="4" on="0"/>
        <pt x="65" y="24" on="1"/>
        <pt x="85" y="152" on="1"/>
        <pt x="181" y="141" on="0"/>
      </contour>
    </TTGlyph>
    <TTGlyph name="Scaron" xMin="67" yMin="-8" xMax="639" yMax="937">
      <contour>
        <pt x="278" y="936" on="1"/>
        <pt x="377" y="936" on="1"/>
        <pt x="418" y="877" on="1"/>
        <pt x="481" y="936" on="1"/>
        <pt x="592" y="936" on="1"/>
        <pt x="466" y="799" on="1"/>
        <pt x="354" y="799" on="1"/>
      </contour>
      <contour>
        <pt x="335" y="141" on="1"/>
        <pt x="371" y="141" on="0"/>
        <pt x="415" y="164" on="0"/>
        <pt x="420" y="194" on="1"/>
        <pt x="424" y="223" on="1"/>
        <pt x="427" y="241" on="0"/>
        <pt x="425" y="254" on="1"/>
        <pt x="421" y="281" on="0"/>
        <pt x="373" y="281" on="1"/>
        <pt x="286" y="281" on="1"/>
        <pt x="182" y="281" on="0"/>
        <pt x="140" y="345" on="1"/>
        <pt x="113" y="387" on="0"/>
        <pt x="113" y="450" on="1"/>
        <pt x="113" y="466" on="0"/>
        <pt x="116" y="486" on="1"/>
        <pt x="126" y="566" on="1"/>
        <pt x="144" y="686" on="0"/>
        <pt x="234" y="719" on="1"/>
        <pt x="285" y="738" on="0"/>
        <pt x="546" y="738" on="0"/>
        <pt x="638" y="707" on="1"/>
        <pt x="618" y="579" on="1"/>
        <pt x="507" y="589" on="0"/>
        <pt x="377" y="589" on="1"/>
        <pt x="334" y="589" on="0"/>
        <pt x="295" y="569" on="0"/>
        <pt x="289" y="530" on="1"/>
        <pt x="285" y="505" on="1"/>
        <pt x="283" y="494" on="0"/>
        <pt x="283" y="465" on="0"/>
        <pt x="305" y="445" on="0"/>
        <pt x="346" y="445" on="1"/>
        <pt x="437" y="445" on="1"/>
        <pt x="478" y="445" on="0"/>
        <pt x="540" y="418" on="0"/>
        <pt x="556" y="397" on="1"/>
        <pt x="591" y="349" on="0"/>
        <pt x="591" y="297" on="1"/>
        <pt x="591" y="274" on="0"/>
        <pt x="589" y="243" on="1"/>
        <pt x="585" y="178" on="1"/>
        <pt x="578" y="72" on="0"/>
        <pt x="514" y="30" on="1"/>
        <pt x="476" y="5" on="0"/>
        <pt x="439" y="-1" on="1"/>
        <pt x="392" y="-8" on="0"/>
        <pt x="240" y="-8" on="0"/>
        <pt x="125" y="4" on="0"/>
        <pt x="68" y="24" on="1"/>
        <pt x="88" y="152" on="1"/>
        <pt x="184" y="141" on="0"/>
      </contour>
    </TTGlyph>
    <TTGlyph name="Scedilla" xMin="67" yMin="-189" xMax="639" yMax="739">
      <contour>
        <pt x="242" y="-188" on="1"/>
        <pt x="184" y="-188" on="1"/>
        <pt x="195" y="-120" on="1"/>
        <pt x="238" y="-105" on="1"/>
        <pt x="259" y="-96" on="0"/>
        <pt x="272" y="-75" on="0"/>
        <pt x="276" y="-45" on="1"/>
        <pt x="381" y="-45" on="1"/>
        <pt x="373" y="-98" on="0"/>
        <pt x="357" y="-128" on="1"/>
        <pt x="327" y="-189" on="0"/>
      </contour>
      <contour>
        <pt x="335" y="141" on="1"/>
        <pt x="371" y="141" on="0"/>
        <pt x="415" y="164" on="0"/>
        <pt x="420" y="194" on="1"/>
        <pt x="424" y="223" on="1"/>
        <pt x="427" y="241" on="0"/>
        <pt x="425" y="254" on="1"/>
        <pt x="421" y="281" on="0"/>
        <pt x="373" y="281" on="1"/>
        <pt x="286" y="281" on="1"/>
        <pt x="182" y="281" on="0"/>
        <pt x="140" y="345" on="1"/>
        <pt x="113" y="387" on="0"/>
        <pt x="113" y="450" on="1"/>
        <pt x="113" y="466" on="0"/>
        <pt x="116" y="486" on="1"/>
        <pt x="126" y="566" on="1"/>
        <pt x="144" y="686" on="0"/>
        <pt x="234" y="719" on="1"/>
        <pt x="285" y="738" on="0"/>
        <pt x="546" y="738" on="0"/>
        <pt x="638" y="707" on="1"/>
        <pt x="618" y="579" on="1"/>
        <pt x="507" y="589" on="0"/>
        <pt x="377" y="589" on="1"/>
        <pt x="334" y="589" on="0"/>
        <pt x="295" y="569" on="0"/>
        <pt x="289" y="530" on="1"/>
        <pt x="285" y="505" on="1"/>
        <pt x="283" y="494" on="0"/>
        <pt x="283" y="465" on="0"/>
        <pt x="305" y="445" on="0"/>
        <pt x="346" y="445" on="1"/>
        <pt x="437" y="445" on="1"/>
        <pt x="478" y="445" on="0"/>
        <pt x="540" y="418" on="0"/>
        <pt x="556" y="397" on="1"/>
        <pt x="591" y="349" on="0"/>
        <pt x="591" y="297" on="1"/>
        <pt x="591" y="274" on="0"/>
        <pt x="589" y="243" on="1"/>
        <pt x="585" y="178" on="1"/>
        <pt x="578" y="72" on="0"/>
        <pt x="514" y="30" on="1"/>
        <pt x="476" y="5" on="0"/>
        <pt x="439" y="-1" on="1"/>
        <pt x="392" y="-8" on="0"/>
        <pt x="240" y="-8" on="0"/>
        <pt x="125" y="4" on="0"/>
        <pt x="68" y="24" on="1"/>
        <pt x="88" y="152" on="1"/>
        <pt x="184" y="141" on="0"/>
      </contour>
    </TTGlyph>
    <TTGlyph name="Scircumflex" xMin="67" yMin="-8" xMax="639" yMax="937">
      <contour>
        <pt x="253" y="799" on="1"/>
        <pt x="379" y="936" on="1"/>
        <pt x="495" y="936" on="1"/>
        <pt x="567" y="799" on="1"/>
        <pt x="468" y="799" on="1"/>
        <pt x="430" y="858" on="1"/>
        <pt x="364" y="799" on="1"/>
      </contour>
      <contour>
        <pt x="335" y="141" on="1"/>
        <pt x="371" y="141" on="0"/>
        <pt x="415" y="164" on="0"/>
        <pt x="420" y="194" on="1"/>
        <pt x="424" y="223" on="1"/>
        <pt x="427" y="241" on="0"/>
        <pt x="425" y="254" on="1"/>
        <pt x="421" y="281" on="0"/>
        <pt x="373" y="281" on="1"/>
        <pt x="286" y="281" on="1"/>
        <pt x="182" y="281" on="0"/>
        <pt x="140" y="345" on="1"/>
        <pt x="113" y="387" on="0"/>
        <pt x="113" y="450" on="1"/>
        <pt x="113" y="466" on="0"/>
        <pt x="116" y="486" on="1"/>
        <pt x="126" y="566" on="1"/>
        <pt x="144" y="686" on="0"/>
        <pt x="234" y="719" on="1"/>
        <pt x="285" y="738" on="0"/>
        <pt x="546" y="738" on="0"/>
        <pt x="638" y="707" on="1"/>
        <pt x="618" y="579" on="1"/>
        <pt x="507" y="589" on="0"/>
        <pt x="377" y="589" on="1"/>
        <pt x="334" y="589" on="0"/>
        <pt x="295" y="569" on="0"/>
        <pt x="289" y="530" on="1"/>
        <pt x="285" y="505" on="1"/>
        <pt x="283" y="494" on="0"/>
        <pt x="283" y="465" on="0"/>
        <pt x="305" y="445" on="0"/>
        <pt x="346" y="445" on="1"/>
        <pt x="437" y="445" on="1"/>
        <pt x="478" y="445" on="0"/>
        <pt x="540" y="418" on="0"/>
        <pt x="556" y="397" on="1"/>
        <pt x="591" y="349" on="0"/>
        <pt x="591" y="297" on="1"/>
        <pt x="591" y="274" on="0"/>
        <pt x="589" y="243" on="1"/>
        <pt x="585" y="178" on="1"/>
        <pt x="578" y="72" on="0"/>
        <pt x="514" y="30" on="1"/>
        <pt x="476" y="5" on="0"/>
        <pt x="439" y="-1" on="1"/>
        <pt x="392" y="-8" on="0"/>
        <pt x="240" y="-8" on="0"/>
        <pt x="125" y="4" on="0"/>
        <pt x="68" y="24" on="1"/>
        <pt x="88" y="152" on="1"/>
        <pt x="184" y="141" on="0"/>
      </contour>
    </TTGlyph>
    <TTGlyph name="T" xMin="115" yMin="0" xMax="693" yMax="732">
      <contour>
        <pt x="116" y="583" on="1"/>
        <pt x="140" y="732" on="1"/>
        <pt x="693" y="732" on="1"/>
        <pt x="669" y="583" on="1"/>
        <pt x="471" y="583" on="1"/>
        <pt x="379" y="0" on="1"/>
        <pt x="215" y="0" on="1"/>
        <pt x="307" y="583" on="1"/>
      </contour>
    </TTGlyph>
    <TTGlyph name="Tbar" xMin="115" yMin="0" xMax="693" yMax="732">
      <contour>
        <pt x="116" y="583" on="1"/>
        <pt x="140" y="732" on="1"/>
        <pt x="693" y="732" on="1"/>
        <pt x="669" y="583" on="1"/>
        <pt x="471" y="583" on="1"/>
        <pt x="447" y="429" on="1"/>
        <pt x="537" y="429" on="1"/>
        <pt x="526" y="360" on="1"/>
        <pt x="436" y="360" on="1"/>
        <pt x="379" y="0" on="1"/>
        <pt x="215" y="0" on="1"/>
        <pt x="272" y="360" on="1"/>
        <pt x="182" y="360" on="1"/>
        <pt x="193" y="429" on="1"/>
        <pt x="283" y="429" on="1"/>
        <pt x="307" y="583" on="1"/>
      </contour>
    </TTGlyph>
    <TTGlyph name="Tcaron" xMin="115" yMin="0" xMax="693" yMax="935">
      <contour>
        <pt x="291" y="934" on="1"/>
        <pt x="390" y="934" on="1"/>
        <pt x="431" y="876" on="1"/>
        <pt x="494" y="934" on="1"/>
        <pt x="605" y="934" on="1"/>
        <pt x="479" y="797" on="1"/>
        <pt x="367" y="797" on="1"/>
      </contour>
      <contour>
        <pt x="116" y="583" on="1"/>
        <pt x="140" y="732" on="1"/>
        <pt x="693" y="732" on="1"/>
        <pt x="669" y="583" on="1"/>
        <pt x="471" y="583" on="1"/>
        <pt x="379" y="0" on="1"/>
        <pt x="215" y="0" on="1"/>
        <pt x="307" y="583" on="1"/>
      </contour>
    </TTGlyph>
    <TTGlyph name="Tcommaaccent" xMin="93" yMin="-182" xMax="671" yMax="732">
      <contour>
        <pt x="183" y="-182" on="1"/>
        <pt x="124" y="-182" on="1"/>
        <pt x="136" y="-114" on="1"/>
        <pt x="178" y="-98" on="1"/>
        <pt x="200" y="-90" on="0"/>
        <pt x="212" y="-69" on="0"/>
        <pt x="217" y="-38" on="1"/>
        <pt x="322" y="-38" on="1"/>
        <pt x="309" y="-117" on="0"/>
        <pt x="248" y="-182" on="0"/>
      </contour>
      <contour>
        <pt x="94" y="583" on="1"/>
        <pt x="118" y="732" on="1"/>
        <pt x="670" y="732" on="1"/>
        <pt x="646" y="583" on="1"/>
        <pt x="449" y="583" on="1"/>
        <pt x="357" y="0" on="1"/>
        <pt x="193" y="0" on="1"/>
        <pt x="285" y="583" on="1"/>
      </contour>
    </TTGlyph>
    <TTGlyph name="Thorn" xMin="40" yMin="0" xMax="574" yMax="729">
      <contour>
        <pt x="40" y="0" on="1"/>
        <pt x="40" y="0" on="0"/>
        <pt x="156" y="729" on="1"/>
        <pt x="320" y="729" on="1"/>
        <pt x="298" y="588" on="1"/>
        <pt x="427" y="588" on="1"/>
        <pt x="491" y="588" on="0"/>
        <pt x="535" y="544" on="1"/>
        <pt x="574" y="507" on="0"/>
        <pt x="574" y="424" on="1"/>
        <pt x="574" y="363" on="0"/>
        <pt x="546" y="267" on="0"/>
        <pt x="522" y="224" on="0"/>
        <pt x="498" y="191" on="0"/>
        <pt x="465" y="171" on="0"/>
        <pt x="439" y="159" on="0"/>
        <pt x="420" y="156" on="1"/>
        <pt x="381" y="150" on="0"/>
        <pt x="275" y="150" on="0"/>
        <pt x="232" y="170" on="1"/>
        <pt x="204" y="0" on="1"/>
      </contour>
      <contour>
        <pt x="320" y="292" on="1"/>
        <pt x="343" y="292" on="0"/>
        <pt x="367" y="296" on="0"/>
        <pt x="378" y="305" on="1"/>
        <pt x="395" y="319" on="0"/>
        <pt x="404" y="373" on="1"/>
        <pt x="406" y="383" on="0"/>
        <pt x="406" y="396" on="0"/>
        <pt x="404" y="411" on="0"/>
        <pt x="403" y="427" on="0"/>
        <pt x="391" y="437" on="0"/>
        <pt x="383" y="443" on="0"/>
        <pt x="375" y="444" on="1"/>
        <pt x="362" y="446" on="0"/>
        <pt x="344" y="446" on="1"/>
        <pt x="275" y="446" on="1"/>
        <pt x="251" y="292" on="1"/>
      </contour>
    </TTGlyph>
    <TTGlyph name="U" xMin="93" yMin="-5" xMax="730" yMax="732">
      <contour>
        <pt x="266" y="316" on="1"/>
        <pt x="259" y="270" on="0"/>
        <pt x="259" y="202" on="0"/>
        <pt x="267" y="182" on="1"/>
        <pt x="284" y="144" on="0"/>
        <pt x="426" y="144" on="0"/>
        <pt x="484" y="224" on="0"/>
        <pt x="498" y="316" on="1"/>
        <pt x="564" y="732" on="1"/>
        <pt x="729" y="732" on="1"/>
        <pt x="667" y="293" on="1"/>
        <pt x="641" y="124" on="0"/>
        <pt x="565" y="59" on="1"/>
        <pt x="500" y="4" on="0"/>
        <pt x="398" y="-3" on="1"/>
        <pt x="371" y="-5" on="0"/>
        <pt x="304" y="-5" on="0"/>
        <pt x="257" y="0" on="0"/>
        <pt x="205" y="12" on="0"/>
        <pt x="165" y="35" on="0"/>
        <pt x="147" y="52" on="1"/>
        <pt x="114" y="83" on="0"/>
        <pt x="99" y="156" on="1"/>
        <pt x="93" y="184" on="0"/>
        <pt x="93" y="207" on="1"/>
        <pt x="93" y="273" on="0"/>
        <pt x="104" y="338" on="1"/>
        <pt x="167" y="732" on="1"/>
        <pt x="332" y="732" on="1"/>
      </contour>
    </TTGlyph>
    <TTGlyph name="Uacute" xMin="93" yMin="-5" xMax="730" yMax="938">
      <contour>
        <pt x="409" y="797" on="1"/>
        <pt x="516" y="938" on="1"/>
        <pt x="648" y="938" on="1"/>
        <pt x="508" y="797" on="1"/>
      </contour>
      <contour>
        <pt x="266" y="316" on="1"/>
        <pt x="259" y="270" on="0"/>
        <pt x="259" y="202" on="0"/>
        <pt x="267" y="182" on="1"/>
        <pt x="284" y="144" on="0"/>
        <pt x="426" y="144" on="0"/>
        <pt x="484" y="224" on="0"/>
        <pt x="498" y="316" on="1"/>
        <pt x="564" y="732" on="1"/>
        <pt x="729" y="732" on="1"/>
        <pt x="667" y="293" on="1"/>
        <pt x="641" y="124" on="0"/>
        <pt x="565" y="59" on="1"/>
        <pt x="500" y="4" on="0"/>
        <pt x="398" y="-3" on="1"/>
        <pt x="371" y="-5" on="0"/>
        <pt x="304" y="-5" on="0"/>
        <pt x="257" y="0" on="0"/>
        <pt x="205" y="12" on="0"/>
        <pt x="165" y="35" on="0"/>
        <pt x="147" y="52" on="1"/>
        <pt x="114" y="83" on="0"/>
        <pt x="99" y="156" on="1"/>
        <pt x="93" y="184" on="0"/>
        <pt x="93" y="207" on="1"/>
        <pt x="93" y="273" on="0"/>
        <pt x="104" y="338" on="1"/>
        <pt x="167" y="732" on="1"/>
        <pt x="332" y="732" on="1"/>
      </contour>
    </TTGlyph>
    <TTGlyph name="Ubreve" xMin="93" yMin="-5" xMax="730" yMax="910">
      <contour>
        <pt x="424" y="910" on="1"/>
        <pt x="423" y="905" on="0"/>
        <pt x="423" y="882" on="0"/>
        <pt x="445" y="857" on="0"/>
        <pt x="469" y="857" on="1"/>
        <pt x="469" y="857" on="0"/>
        <pt x="470" y="857" on="1"/>
        <pt x="524" y="857" on="0"/>
        <pt x="530" y="910" on="1"/>
        <pt x="591" y="910" on="1"/>
        <pt x="586" y="856" on="0"/>
        <pt x="521" y="797" on="0"/>
        <pt x="418" y="797" on="0"/>
        <pt x="362" y="855" on="0"/>
        <pt x="362" y="897" on="1"/>
        <pt x="362" y="903" on="0"/>
        <pt x="362" y="910" on="1"/>
      </contour>
      <contour>
        <pt x="266" y="316" on="1"/>
        <pt x="259" y="270" on="0"/>
        <pt x="259" y="202" on="0"/>
        <pt x="267" y="182" on="1"/>
        <pt x="284" y="144" on="0"/>
        <pt x="426" y="144" on="0"/>
        <pt x="484" y="224" on="0"/>
        <pt x="498" y="316" on="1"/>
        <pt x="564" y="732" on="1"/>
        <pt x="729" y="732" on="1"/>
        <pt x="667" y="293" on="1"/>
        <pt x="641" y="124" on="0"/>
        <pt x="565" y="59" on="1"/>
        <pt x="500" y="4" on="0"/>
        <pt x="398" y="-3" on="1"/>
        <pt x="371" y="-5" on="0"/>
        <pt x="304" y="-5" on="0"/>
        <pt x="257" y="0" on="0"/>
        <pt x="205" y="12" on="0"/>
        <pt x="165" y="35" on="0"/>
        <pt x="147" y="52" on="1"/>
        <pt x="114" y="83" on="0"/>
        <pt x="99" y="156" on="1"/>
        <pt x="93" y="184" on="0"/>
        <pt x="93" y="207" on="1"/>
        <pt x="93" y="273" on="0"/>
        <pt x="104" y="338" on="1"/>
        <pt x="167" y="732" on="1"/>
        <pt x="332" y="732" on="1"/>
      </contour>
    </TTGlyph>
    <TTGlyph name="Ucircumflex" xMin="93" yMin="-5" xMax="730" yMax="935">
      <contour>
        <pt x="301" y="797" on="1"/>
        <pt x="427" y="934" on="1"/>
        <pt x="543" y="934" on="1"/>
        <pt x="616" y="797" on="1"/>
        <pt x="516" y="797" on="1"/>
        <pt x="479" y="856" on="1"/>
        <pt x="413" y="797" on="1"/>
      </contour>
      <contour>
        <pt x="266" y="316" on="1"/>
        <pt x="259" y="270" on="0"/>
        <pt x="259" y="202" on="0"/>
        <pt x="267" y="182" on="1"/>
        <pt x="284" y="144" on="0"/>
        <pt x="426" y="144" on="0"/>
        <pt x="484" y="224" on="0"/>
        <pt x="498" y="316" on="1"/>
        <pt x="564" y="732" on="1"/>
        <pt x="729" y="732" on="1"/>
        <pt x="667" y="293" on="1"/>
        <pt x="641" y="124" on="0"/>
        <pt x="565" y="59" on="1"/>
        <pt x="500" y="4" on="0"/>
        <pt x="398" y="-3" on="1"/>
        <pt x="371" y="-5" on="0"/>
        <pt x="304" y="-5" on="0"/>
        <pt x="257" y="0" on="0"/>
        <pt x="205" y="12" on="0"/>
        <pt x="165" y="35" on="0"/>
        <pt x="147" y="52" on="1"/>
        <pt x="114" y="83" on="0"/>
        <pt x="99" y="156" on="1"/>
        <pt x="93" y="184" on="0"/>
        <pt x="93" y="207" on="1"/>
        <pt x="93" y="273" on="0"/>
        <pt x="104" y="338" on="1"/>
        <pt x="167" y="732" on="1"/>
        <pt x="332" y="732" on="1"/>
      </contour>
    </TTGlyph>
    <TTGlyph name="Udieresis" xMin="93" yMin="-5" xMax="730" yMax="921">
      <contour>
        <pt x="326" y="920" on="0"/>
        <pt x="377" y="920" on="0"/>
        <pt x="404" y="889" on="0"/>
        <pt x="404" y="877" on="1"/>
        <pt x="404" y="838" on="0"/>
        <pt x="357" y="797" on="0"/>
        <pt x="306" y="797" on="0"/>
        <pt x="279" y="830" on="0"/>
        <pt x="279" y="842" on="1"/>
        <pt x="279" y="880" on="0"/>
      </contour>
      <contour>
        <pt x="581" y="920" on="0"/>
        <pt x="632" y="920" on="0"/>
        <pt x="659" y="889" on="0"/>
        <pt x="659" y="877" on="1"/>
        <pt x="659" y="838" on="0"/>
        <pt x="612" y="797" on="0"/>
        <pt x="561" y="797" on="0"/>
        <pt x="534" y="830" on="0"/>
        <pt x="534" y="842" on="1"/>
        <pt x="534" y="880" on="0"/>
      </contour>
      <contour>
        <pt x="266" y="316" on="1"/>
        <pt x="259" y="270" on="0"/>
        <pt x="259" y="202" on="0"/>
        <pt x="267" y="182" on="1"/>
        <pt x="284" y="144" on="0"/>
        <pt x="426" y="144" on="0"/>
        <pt x="484" y="224" on="0"/>
        <pt x="498" y="316" on="1"/>
        <pt x="564" y="732" on="1"/>
        <pt x="729" y="732" on="1"/>
        <pt x="667" y="293" on="1"/>
        <pt x="641" y="124" on="0"/>
        <pt x="565" y="59" on="1"/>
        <pt x="500" y="4" on="0"/>
        <pt x="398" y="-3" on="1"/>
        <pt x="371" y="-5" on="0"/>
        <pt x="304" y="-5" on="0"/>
        <pt x="257" y="0" on="0"/>
        <pt x="205" y="12" on="0"/>
        <pt x="165" y="35" on="0"/>
        <pt x="147" y="52" on="1"/>
        <pt x="114" y="83" on="0"/>
        <pt x="99" y="156" on="1"/>
        <pt x="93" y="184" on="0"/>
        <pt x="93" y="207" on="1"/>
        <pt x="93" y="273" on="0"/>
        <pt x="104" y="338" on="1"/>
        <pt x="167" y="732" on="1"/>
        <pt x="332" y="732" on="1"/>
      </contour>
    </TTGlyph>
    <TTGlyph name="Ugrave" xMin="93" yMin="-5" xMax="730" yMax="938">
      <contour>
        <pt x="310" y="938" on="1"/>
        <pt x="441" y="938" on="1"/>
        <pt x="508" y="797" on="1"/>
        <pt x="409" y="797" on="1"/>
      </contour>
      <contour>
        <pt x="266" y="316" on="1"/>
        <pt x="259" y="270" on="0"/>
        <pt x="259" y="202" on="0"/>
        <pt x="267" y="182" on="1"/>
        <pt x="284" y="144" on="0"/>
        <pt x="426" y="144" on="0"/>
        <pt x="484" y="224" on="0"/>
        <pt x="498" y="316" on="1"/>
        <pt x="564" y="732" on="1"/>
        <pt x="729" y="732" on="1"/>
        <pt x="667" y="293" on="1"/>
        <pt x="641" y="124" on="0"/>
        <pt x="565" y="59" on="1"/>
        <pt x="500" y="4" on="0"/>
        <pt x="398" y="-3" on="1"/>
        <pt x="371" y="-5" on="0"/>
        <pt x="304" y="-5" on="0"/>
        <pt x="257" y="0" on="0"/>
        <pt x="205" y="12" on="0"/>
        <pt x="165" y="35" on="0"/>
        <pt x="147" y="52" on="1"/>
        <pt x="114" y="83" on="0"/>
        <pt x="99" y="156" on="1"/>
        <pt x="93" y="184" on="0"/>
        <pt x="93" y="207" on="1"/>
        <pt x="93" y="273" on="0"/>
        <pt x="104" y="338" on="1"/>
        <pt x="167" y="732" on="1"/>
        <pt x="332" y="732" on="1"/>
      </contour>
    </TTGlyph>
    <TTGlyph name="Uhungarumlaut" xMin="93" yMin="-5" xMax="731" yMax="938">
      <contour>
        <pt x="327" y="797" on="1"/>
        <pt x="434" y="938" on="1"/>
        <pt x="567" y="938" on="1"/>
        <pt x="426" y="797" on="1"/>
      </contour>
      <contour>
        <pt x="491" y="797" on="1"/>
        <pt x="598" y="938" on="1"/>
        <pt x="730" y="938" on="1"/>
        <pt x="590" y="797" on="1"/>
      </contour>
      <contour>
        <pt x="266" y="316" on="1"/>
        <pt x="259" y="270" on="0"/>
        <pt x="259" y="202" on="0"/>
        <pt x="267" y="182" on="1"/>
        <pt x="284" y="144" on="0"/>
        <pt x="426" y="144" on="0"/>
        <pt x="484" y="224" on="0"/>
        <pt x="498" y="316" on="1"/>
        <pt x="564" y="732" on="1"/>
        <pt x="729" y="732" on="1"/>
        <pt x="667" y="293" on="1"/>
        <pt x="641" y="124" on="0"/>
        <pt x="565" y="59" on="1"/>
        <pt x="500" y="4" on="0"/>
        <pt x="398" y="-3" on="1"/>
        <pt x="371" y="-5" on="0"/>
        <pt x="304" y="-5" on="0"/>
        <pt x="257" y="0" on="0"/>
        <pt x="205" y="12" on="0"/>
        <pt x="165" y="35" on="0"/>
        <pt x="147" y="52" on="1"/>
        <pt x="114" y="83" on="0"/>
        <pt x="99" y="156" on="1"/>
        <pt x="93" y="184" on="0"/>
        <pt x="93" y="207" on="1"/>
        <pt x="93" y="273" on="0"/>
        <pt x="104" y="338" on="1"/>
        <pt x="167" y="732" on="1"/>
        <pt x="332" y="732" on="1"/>
      </contour>
    </TTGlyph>
    <TTGlyph name="Umacron" xMin="93" yMin="-5" xMax="730" yMax="883">
      <contour>
        <pt x="313" y="797" on="1"/>
        <pt x="326" y="882" on="1"/>
        <pt x="618" y="882" on="1"/>
        <pt x="605" y="797" on="1"/>
      </contour>
      <contour>
        <pt x="266" y="316" on="1"/>
        <pt x="259" y="270" on="0"/>
        <pt x="259" y="202" on="0"/>
        <pt x="267" y="182" on="1"/>
        <pt x="284" y="144" on="0"/>
        <pt x="426" y="144" on="0"/>
        <pt x="484" y="224" on="0"/>
        <pt x="498" y="316" on="1"/>
        <pt x="564" y="732" on="1"/>
        <pt x="729" y="732" on="1"/>
        <pt x="667" y="293" on="1"/>
        <pt x="641" y="124" on="0"/>
        <pt x="565" y="59" on="1"/>
        <pt x="500" y="4" on="0"/>
        <pt x="398" y="-3" on="1"/>
        <pt x="371" y="-5" on="0"/>
        <pt x="304" y="-5" on="0"/>
        <pt x="257" y="0" on="0"/>
        <pt x="205" y="12" on="0"/>
        <pt x="165" y="35" on="0"/>
        <pt x="147" y="52" on="1"/>
        <pt x="114" y="83" on="0"/>
        <pt x="99" y="156" on="1"/>
        <pt x="93" y="184" on="0"/>
        <pt x="93" y="207" on="1"/>
        <pt x="93" y="273" on="0"/>
        <pt x="104" y="338" on="1"/>
        <pt x="167" y="732" on="1"/>
        <pt x="332" y="732" on="1"/>
      </contour>
    </TTGlyph>
    <TTGlyph name="Uogonek" xMin="93" yMin="-192" xMax="730" yMax="732">
      <contour>
        <pt x="318" y="-68" on="1"/>
        <pt x="318" y="-73" on="0"/>
        <pt x="320" y="-79" on="1"/>
        <pt x="328" y="-109" on="0"/>
        <pt x="367" y="-105" on="1"/>
        <pt x="354" y="-188" on="1"/>
        <pt x="339" y="-192" on="0"/>
        <pt x="309" y="-192" on="0"/>
        <pt x="264" y="-177" on="0"/>
        <pt x="249" y="-155" on="1"/>
        <pt x="230" y="-128" on="0"/>
        <pt x="230" y="-75" on="0"/>
        <pt x="269" y="-20" on="0"/>
        <pt x="312" y="1" on="1"/>
        <pt x="373" y="1" on="1"/>
        <pt x="318" y="-35" on="0"/>
      </contour>
      <contour>
        <pt x="266" y="316" on="1"/>
        <pt x="259" y="270" on="0"/>
        <pt x="259" y="202" on="0"/>
        <pt x="267" y="182" on="1"/>
        <pt x="284" y="144" on="0"/>
        <pt x="426" y="144" on="0"/>
        <pt x="484" y="224" on="0"/>
        <pt x="498" y="316" on="1"/>
        <pt x="564" y="732" on="1"/>
        <pt x="729" y="732" on="1"/>
        <pt x="667" y="293" on="1"/>
        <pt x="641" y="124" on="0"/>
        <pt x="565" y="59" on="1"/>
        <pt x="500" y="4" on="0"/>
        <pt x="398" y="-3" on="1"/>
        <pt x="371" y="-5" on="0"/>
        <pt x="304" y="-5" on="0"/>
        <pt x="257" y="0" on="0"/>
        <pt x="205" y="12" on="0"/>
        <pt x="165" y="35" on="0"/>
        <pt x="147" y="52" on="1"/>
        <pt x="114" y="83" on="0"/>
        <pt x="99" y="156" on="1"/>
        <pt x="93" y="184" on="0"/>
        <pt x="93" y="207" on="1"/>
        <pt x="93" y="273" on="0"/>
        <pt x="104" y="338" on="1"/>
        <pt x="167" y="732" on="1"/>
        <pt x="332" y="732" on="1"/>
      </contour>
    </TTGlyph>
    <TTGlyph name="Uring" xMin="93" yMin="-5" xMax="730" yMax="999">
      <contour>
        <pt x="440" y="998" on="0"/>
        <pt x="525" y="998" on="0"/>
        <pt x="576" y="943" on="0"/>
        <pt x="576" y="907" on="1"/>
        <pt x="576" y="859" on="0"/>
        <pt x="510" y="797" on="0"/>
        <pt x="426" y="797" on="0"/>
        <pt x="372" y="852" on="0"/>
        <pt x="372" y="888" on="1"/>
        <pt x="372" y="936" on="0"/>
      </contour>
      <contour>
        <pt x="455" y="859" on="0"/>
        <pt x="488" y="859" on="0"/>
        <pt x="512" y="881" on="0"/>
        <pt x="514" y="906" on="0"/>
        <pt x="509" y="920" on="0"/>
        <pt x="505" y="925" on="1"/>
        <pt x="495" y="937" on="0"/>
        <pt x="462" y="937" on="0"/>
        <pt x="437" y="914" on="0"/>
        <pt x="434" y="881" on="0"/>
      </contour>
      <contour>
        <pt x="266" y="316" on="1"/>
        <pt x="259" y="270" on="0"/>
        <pt x="259" y="202" on="0"/>
        <pt x="267" y="182" on="1"/>
        <pt x="284" y="144" on="0"/>
        <pt x="426" y="144" on="0"/>
        <pt x="484" y="224" on="0"/>
        <pt x="498" y="316" on="1"/>
        <pt x="564" y="732" on="1"/>
        <pt x="729" y="732" on="1"/>
        <pt x="667" y="293" on="1"/>
        <pt x="641" y="124" on="0"/>
        <pt x="565" y="59" on="1"/>
        <pt x="500" y="4" on="0"/>
        <pt x="398" y="-3" on="1"/>
        <pt x="371" y="-5" on="0"/>
        <pt x="304" y="-5" on="0"/>
        <pt x="257" y="0" on="0"/>
        <pt x="205" y="12" on="0"/>
        <pt x="165" y="35" on="0"/>
        <pt x="147" y="52" on="1"/>
        <pt x="114" y="83" on="0"/>
        <pt x="99" y="156" on="1"/>
        <pt x="93" y="184" on="0"/>
        <pt x="93" y="207" on="1"/>
        <pt x="93" y="273" on="0"/>
        <pt x="104" y="338" on="1"/>
        <pt x="167" y="732" on="1"/>
        <pt x="332" y="732" on="1"/>
      </contour>
    </TTGlyph>
    <TTGlyph name="Utilde" xMin="93" yMin="-5" xMax="730" yMax="933">
      <contour>
        <pt x="528" y="894" on="1"/>
        <pt x="530" y="894" on="0"/>
        <pt x="548" y="894" on="0"/>
        <pt x="566" y="900" on="1"/>
        <pt x="603" y="911" on="0"/>
        <pt x="628" y="933" on="1"/>
        <pt x="642" y="867" on="1"/>
        <pt x="574" y="797" on="0"/>
        <pt x="518" y="797" on="1"/>
        <pt x="494" y="797" on="0"/>
        <pt x="428" y="832" on="0"/>
        <pt x="405" y="832" on="1"/>
        <pt x="366" y="832" on="0"/>
        <pt x="311" y="797" on="1"/>
        <pt x="295" y="858" on="1"/>
        <pt x="365" y="929" on="0"/>
        <pt x="428" y="929" on="1"/>
        <pt x="452" y="929" on="0"/>
        <pt x="511" y="894" on="0"/>
      </contour>
      <contour>
        <pt x="266" y="316" on="1"/>
        <pt x="259" y="270" on="0"/>
        <pt x="259" y="202" on="0"/>
        <pt x="267" y="182" on="1"/>
        <pt x="284" y="144" on="0"/>
        <pt x="426" y="144" on="0"/>
        <pt x="484" y="224" on="0"/>
        <pt x="498" y="316" on="1"/>
        <pt x="564" y="732" on="1"/>
        <pt x="729" y="732" on="1"/>
        <pt x="667" y="293" on="1"/>
        <pt x="641" y="124" on="0"/>
        <pt x="565" y="59" on="1"/>
        <pt x="500" y="4" on="0"/>
        <pt x="398" y="-3" on="1"/>
        <pt x="371" y="-5" on="0"/>
        <pt x="304" y="-5" on="0"/>
        <pt x="257" y="0" on="0"/>
        <pt x="205" y="12" on="0"/>
        <pt x="165" y="35" on="0"/>
        <pt x="147" y="52" on="1"/>
        <pt x="114" y="83" on="0"/>
        <pt x="99" y="156" on="1"/>
        <pt x="93" y="184" on="0"/>
        <pt x="93" y="207" on="1"/>
        <pt x="93" y="273" on="0"/>
        <pt x="104" y="338" on="1"/>
        <pt x="167" y="732" on="1"/>
        <pt x="332" y="732" on="1"/>
      </contour>
    </TTGlyph>
    <TTGlyph name="V" xMin="135" yMin="0" xMax="780" yMax="732">
      <contour>
        <pt x="135" y="732" on="1"/>
        <pt x="308" y="732" on="1"/>
        <pt x="366" y="208" on="1"/>
        <pt x="598" y="732" on="1"/>
        <pt x="780" y="732" on="1"/>
        <pt x="432" y="0" on="1"/>
        <pt x="238" y="0" on="1"/>
      </contour>
    </TTGlyph>
    <TTGlyph name="W" xMin="135" yMin="0" xMax="1103" yMax="732">
      <contour>
        <pt x="135" y="732" on="1"/>
        <pt x="307" y="732" on="1"/>
        <pt x="367" y="216" on="1"/>
        <pt x="576" y="732" on="1"/>
        <pt x="750" y="732" on="1"/>
        <pt x="669" y="548" on="1"/>
        <pt x="717" y="215" on="1"/>
        <pt x="930" y="732" on="1"/>
        <pt x="1103" y="732" on="1"/>
        <pt x="786" y="0" on="1"/>
        <pt x="598" y="0" on="1"/>
        <pt x="556" y="274" on="1"/>
        <pt x="438" y="0" on="1"/>
        <pt x="238" y="0" on="1"/>
      </contour>
    </TTGlyph>
    <TTGlyph name="Wacute" xMin="135" yMin="0" xMax="1103" yMax="938">
      <contour>
        <pt x="580" y="797" on="1"/>
        <pt x="687" y="938" on="1"/>
        <pt x="819" y="938" on="1"/>
        <pt x="679" y="797" on="1"/>
      </contour>
      <contour>
        <pt x="135" y="732" on="1"/>
        <pt x="307" y="732" on="1"/>
        <pt x="367" y="216" on="1"/>
        <pt x="576" y="732" on="1"/>
        <pt x="750" y="732" on="1"/>
        <pt x="669" y="548" on="1"/>
        <pt x="717" y="215" on="1"/>
        <pt x="930" y="732" on="1"/>
        <pt x="1103" y="732" on="1"/>
        <pt x="786" y="0" on="1"/>
        <pt x="598" y="0" on="1"/>
        <pt x="556" y="274" on="1"/>
        <pt x="438" y="0" on="1"/>
        <pt x="238" y="0" on="1"/>
      </contour>
    </TTGlyph>
    <TTGlyph name="Wcircumflex" xMin="135" yMin="0" xMax="1103" yMax="935">
      <contour>
        <pt x="440" y="797" on="1"/>
        <pt x="566" y="934" on="1"/>
        <pt x="682" y="934" on="1"/>
        <pt x="755" y="797" on="1"/>
        <pt x="655" y="797" on="1"/>
        <pt x="618" y="856" on="1"/>
        <pt x="552" y="797" on="1"/>
      </contour>
      <contour>
        <pt x="135" y="732" on="1"/>
        <pt x="307" y="732" on="1"/>
        <pt x="367" y="216" on="1"/>
        <pt x="576" y="732" on="1"/>
        <pt x="750" y="732" on="1"/>
        <pt x="669" y="548" on="1"/>
        <pt x="717" y="215" on="1"/>
        <pt x="930" y="732" on="1"/>
        <pt x="1103" y="732" on="1"/>
        <pt x="786" y="0" on="1"/>
        <pt x="598" y="0" on="1"/>
        <pt x="556" y="274" on="1"/>
        <pt x="438" y="0" on="1"/>
        <pt x="238" y="0" on="1"/>
      </contour>
    </TTGlyph>
    <TTGlyph name="Wdieresis" xMin="135" yMin="0" xMax="1103" yMax="921">
      <contour>
        <pt x="504" y="920" on="0"/>
        <pt x="555" y="920" on="0"/>
        <pt x="582" y="889" on="0"/>
        <pt x="582" y="877" on="1"/>
        <pt x="582" y="838" on="0"/>
        <pt x="535" y="797" on="0"/>
        <pt x="484" y="797" on="0"/>
        <pt x="457" y="830" on="0"/>
        <pt x="457" y="842" on="1"/>
        <pt x="457" y="880" on="0"/>
      </contour>
      <contour>
        <pt x="759" y="920" on="0"/>
        <pt x="810" y="920" on="0"/>
        <pt x="837" y="889" on="0"/>
        <pt x="837" y="877" on="1"/>
        <pt x="837" y="838" on="0"/>
        <pt x="790" y="797" on="0"/>
        <pt x="769" y="797" on="1"/>
        <pt x="729" y="797" on="0"/>
        <pt x="716" y="828" on="1"/>
        <pt x="712" y="838" on="0"/>
        <pt x="712" y="846" on="1"/>
        <pt x="712" y="880" on="0"/>
      </contour>
      <contour>
        <pt x="135" y="732" on="1"/>
        <pt x="307" y="732" on="1"/>
        <pt x="367" y="216" on="1"/>
        <pt x="576" y="732" on="1"/>
        <pt x="750" y="732" on="1"/>
        <pt x="669" y="548" on="1"/>
        <pt x="717" y="215" on="1"/>
        <pt x="930" y="732" on="1"/>
        <pt x="1103" y="732" on="1"/>
        <pt x="786" y="0" on="1"/>
        <pt x="598" y="0" on="1"/>
        <pt x="556" y="274" on="1"/>
        <pt x="438" y="0" on="1"/>
        <pt x="238" y="0" on="1"/>
      </contour>
    </TTGlyph>
    <TTGlyph name="Wgrave" xMin="135" yMin="0" xMax="1103" yMax="938">
      <contour>
        <pt x="481" y="938" on="1"/>
        <pt x="612" y="938" on="1"/>
        <pt x="679" y="797" on="1"/>
        <pt x="580" y="797" on="1"/>
      </contour>
      <contour>
        <pt x="135" y="732" on="1"/>
        <pt x="307" y="732" on="1"/>
        <pt x="367" y="216" on="1"/>
        <pt x="576" y="732" on="1"/>
        <pt x="750" y="732" on="1"/>
        <pt x="669" y="548" on="1"/>
        <pt x="717" y="215" on="1"/>
        <pt x="930" y="732" on="1"/>
        <pt x="1103" y="732" on="1"/>
        <pt x="786" y="0" on="1"/>
        <pt x="598" y="0" on="1"/>
        <pt x="556" y="274" on="1"/>
        <pt x="438" y="0" on="1"/>
        <pt x="238" y="0" on="1"/>
      </contour>
    </TTGlyph>
    <TTGlyph name="X" xMin="30" yMin="0" xMax="756" yMax="732">
      <contour>
        <pt x="30" y="0" on="1"/>
        <pt x="299" y="378" on="1"/>
        <pt x="144" y="732" on="1"/>
        <pt x="324" y="732" on="1"/>
        <pt x="412" y="504" on="1"/>
        <pt x="572" y="732" on="1"/>
        <pt x="756" y="732" on="1"/>
        <pt x="481" y="346" on="1"/>
        <pt x="633" y="0" on="1"/>
        <pt x="452" y="0" on="1"/>
        <pt x="368" y="220" on="1"/>
        <pt x="214" y="0" on="1"/>
      </contour>
    </TTGlyph>
    <TTGlyph name="X.salt" xMin="13" yMin="0" xMax="776" yMax="732">
      <contour>
        <pt x="235" y="387" on="1"/>
        <pt x="236" y="392" on="0"/>
        <pt x="236" y="424" on="0"/>
        <pt x="223" y="464" on="1"/>
        <pt x="129" y="732" on="1"/>
        <pt x="306" y="732" on="1"/>
        <pt x="387" y="480" on="1"/>
        <pt x="389" y="475" on="0"/>
        <pt x="389" y="433" on="0"/>
        <pt x="370" y="272" on="0"/>
        <pt x="360" y="259" on="1"/>
        <pt x="200" y="0" on="1"/>
        <pt x="13" y="0" on="1"/>
        <pt x="202" y="312" on="1"/>
        <pt x="231" y="360" on="0"/>
      </contour>
      <contour>
        <pt x="399" y="259" on="1"/>
        <pt x="397" y="262" on="0"/>
        <pt x="397" y="296" on="0"/>
        <pt x="426" y="466" on="0"/>
        <pt x="436" y="480" on="1"/>
        <pt x="596" y="732" on="1"/>
        <pt x="776" y="732" on="1"/>
        <pt x="594" y="450" on="1"/>
        <pt x="556" y="390" on="0"/>
        <pt x="556" y="332" on="0"/>
        <pt x="567" y="298" on="1"/>
        <pt x="660" y="0" on="1"/>
        <pt x="482" y="0" on="1"/>
      </contour>
    </TTGlyph>
    <TTGlyph name="Y" xMin="135" yMin="0" xMax="755" yMax="732">
      <contour>
        <pt x="135" y="732" on="1"/>
        <pt x="313" y="732" on="1"/>
        <pt x="381" y="394" on="1"/>
        <pt x="569" y="732" on="1"/>
        <pt x="755" y="732" on="1"/>
        <pt x="437" y="215" on="1"/>
        <pt x="402" y="0" on="1"/>
        <pt x="238" y="0" on="1"/>
        <pt x="273" y="215" on="1"/>
      </contour>
    </TTGlyph>
    <TTGlyph name="Yacute" xMin="135" yMin="0" xMax="755" yMax="938">
      <contour>
        <pt x="406" y="797" on="1"/>
        <pt x="513" y="938" on="1"/>
        <pt x="645" y="938" on="1"/>
        <pt x="505" y="797" on="1"/>
      </contour>
      <contour>
        <pt x="135" y="732" on="1"/>
        <pt x="313" y="732" on="1"/>
        <pt x="381" y="394" on="1"/>
        <pt x="569" y="732" on="1"/>
        <pt x="755" y="732" on="1"/>
        <pt x="437" y="215" on="1"/>
        <pt x="402" y="0" on="1"/>
        <pt x="238" y="0" on="1"/>
        <pt x="273" y="215" on="1"/>
      </contour>
    </TTGlyph>
    <TTGlyph name="Ycircumflex" xMin="135" yMin="0" xMax="755" yMax="935">
      <contour>
        <pt x="298" y="797" on="1"/>
        <pt x="424" y="934" on="1"/>
        <pt x="540" y="934" on="1"/>
        <pt x="612" y="797" on="1"/>
        <pt x="513" y="797" on="1"/>
        <pt x="475" y="856" on="1"/>
        <pt x="409" y="797" on="1"/>
      </contour>
      <contour>
        <pt x="135" y="732" on="1"/>
        <pt x="313" y="732" on="1"/>
        <pt x="381" y="394" on="1"/>
        <pt x="569" y="732" on="1"/>
        <pt x="755" y="732" on="1"/>
        <pt x="437" y="215" on="1"/>
        <pt x="402" y="0" on="1"/>
        <pt x="238" y="0" on="1"/>
        <pt x="273" y="215" on="1"/>
      </contour>
    </TTGlyph>
    <TTGlyph name="Ydieresis" xMin="124" yMin="0" xMax="745" yMax="920">
      <contour>
        <pt x="311" y="919" on="0"/>
        <pt x="363" y="919" on="0"/>
        <pt x="390" y="887" on="0"/>
        <pt x="390" y="875" on="1"/>
        <pt x="390" y="837" on="0"/>
        <pt x="343" y="796" on="0"/>
        <pt x="322" y="796" on="1"/>
        <pt x="282" y="796" on="0"/>
        <pt x="269" y="827" on="1"/>
        <pt x="264" y="837" on="0"/>
        <pt x="264" y="845" on="1"/>
        <pt x="264" y="879" on="0"/>
      </contour>
      <contour>
        <pt x="566" y="919" on="0"/>
        <pt x="618" y="919" on="0"/>
        <pt x="645" y="887" on="0"/>
        <pt x="645" y="875" on="1"/>
        <pt x="645" y="837" on="0"/>
        <pt x="598" y="796" on="0"/>
        <pt x="577" y="796" on="1"/>
        <pt x="537" y="796" on="0"/>
        <pt x="524" y="827" on="1"/>
        <pt x="519" y="837" on="0"/>
        <pt x="519" y="845" on="1"/>
        <pt x="519" y="879" on="0"/>
      </contour>
      <contour>
        <pt x="124" y="732" on="1"/>
        <pt x="302" y="732" on="1"/>
        <pt x="370" y="394" on="1"/>
        <pt x="558" y="732" on="1"/>
        <pt x="744" y="732" on="1"/>
        <pt x="426" y="215" on="1"/>
        <pt x="392" y="0" on="1"/>
        <pt x="228" y="0" on="1"/>
        <pt x="262" y="215" on="1"/>
      </contour>
    </TTGlyph>
    <TTGlyph name="Ygrave" xMin="135" yMin="0" xMax="755" yMax="938">
      <contour>
        <pt x="307" y="938" on="1"/>
        <pt x="438" y="938" on="1"/>
        <pt x="505" y="797" on="1"/>
        <pt x="406" y="797" on="1"/>
      </contour>
      <contour>
        <pt x="135" y="732" on="1"/>
        <pt x="313" y="732" on="1"/>
        <pt x="381" y="394" on="1"/>
        <pt x="569" y="732" on="1"/>
        <pt x="755" y="732" on="1"/>
        <pt x="437" y="215" on="1"/>
        <pt x="402" y="0" on="1"/>
        <pt x="238" y="0" on="1"/>
        <pt x="273" y="215" on="1"/>
      </contour>
    </TTGlyph>
    <TTGlyph name="Z" xMin="23" yMin="0" xMax="648" yMax="732">
      <contour>
        <pt x="24" y="0" on="1"/>
        <pt x="48" y="149" on="1"/>
        <pt x="426" y="583" on="1"/>
        <pt x="116" y="583" on="1"/>
        <pt x="140" y="732" on="1"/>
        <pt x="648" y="732" on="1"/>
        <pt x="624" y="583" on="1"/>
        <pt x="260" y="149" on="1"/>
        <pt x="556" y="149" on="1"/>
        <pt x="532" y="0" on="1"/>
      </contour>
    </TTGlyph>
    <TTGlyph name="Zacute" xMin="49" yMin="0" xMax="674" yMax="937">
      <contour>
        <pt x="380" y="796" on="1"/>
        <pt x="487" y="936" on="1"/>
        <pt x="620" y="936" on="1"/>
        <pt x="479" y="796" on="1"/>
      </contour>
      <contour>
        <pt x="50" y="0" on="1"/>
        <pt x="74" y="149" on="1"/>
        <pt x="452" y="583" on="1"/>
        <pt x="142" y="583" on="1"/>
        <pt x="166" y="732" on="1"/>
        <pt x="674" y="732" on="1"/>
        <pt x="650" y="583" on="1"/>
        <pt x="286" y="149" on="1"/>
        <pt x="582" y="149" on="1"/>
        <pt x="558" y="0" on="1"/>
      </contour>
    </TTGlyph>
    <TTGlyph name="Zcaron" xMin="23" yMin="0" xMax="648" yMax="935">
      <contour>
        <pt x="269" y="934" on="1"/>
        <pt x="368" y="934" on="1"/>
        <pt x="409" y="876" on="1"/>
        <pt x="472" y="934" on="1"/>
        <pt x="583" y="934" on="1"/>
        <pt x="457" y="797" on="1"/>
        <pt x="345" y="797" on="1"/>
      </contour>
      <contour>
        <pt x="24" y="0" on="1"/>
        <pt x="48" y="149" on="1"/>
        <pt x="426" y="583" on="1"/>
        <pt x="116" y="583" on="1"/>
        <pt x="140" y="732" on="1"/>
        <pt x="648" y="732" on="1"/>
        <pt x="624" y="583" on="1"/>
        <pt x="260" y="149" on="1"/>
        <pt x="556" y="149" on="1"/>
        <pt x="532" y="0" on="1"/>
      </contour>
    </TTGlyph>
    <TTGlyph name="Zdotaccent" xMin="23" yMin="0" xMax="648" yMax="929">
      <contour>
        <pt x="386" y="929" on="1"/>
        <pt x="466" y="929" on="1"/>
        <pt x="488" y="929" on="0"/>
        <pt x="485" y="904" on="1"/>
        <pt x="471" y="820" on="1"/>
        <pt x="468" y="797" on="0"/>
        <pt x="445" y="797" on="1"/>
        <pt x="365" y="797" on="1"/>
        <pt x="355" y="797" on="0"/>
        <pt x="343" y="810" on="0"/>
        <pt x="344" y="820" on="1"/>
        <pt x="358" y="904" on="1"/>
        <pt x="361" y="929" on="0"/>
      </contour>
      <contour>
        <pt x="24" y="0" on="1"/>
        <pt x="48" y="149" on="1"/>
        <pt x="426" y="583" on="1"/>
        <pt x="116" y="583" on="1"/>
        <pt x="140" y="732" on="1"/>
        <pt x="648" y="732" on="1"/>
        <pt x="624" y="583" on="1"/>
        <pt x="260" y="149" on="1"/>
        <pt x="556" y="149" on="1"/>
        <pt x="532" y="0" on="1"/>
      </contour>
    </TTGlyph>
    <TTGlyph name="a" xMin="61" yMin="-6" xMax="583" yMax="542">
      <contour>
        <pt x="414" y="541" on="0"/>
        <pt x="548" y="513" on="0"/>
        <pt x="583" y="479" on="1"/>
        <pt x="513" y="2" on="1"/>
        <pt x="385" y="2" on="1"/>
        <pt x="360" y="54" on="1"/>
        <pt x="341" y="27" on="0"/>
        <pt x="254" y="-6" on="0"/>
        <pt x="208" y="-6" on="1"/>
        <pt x="127" y="-6" on="0"/>
        <pt x="85" y="74" on="1"/>
        <pt x="61" y="121" on="0"/>
        <pt x="61" y="241" on="0"/>
        <pt x="83" y="349" on="0"/>
        <pt x="112" y="422" on="0"/>
        <pt x="144" y="471" on="0"/>
        <pt x="187" y="506" on="0"/>
        <pt x="224" y="526" on="0"/>
        <pt x="250" y="531" on="1"/>
        <pt x="293" y="541" on="0"/>
      </contour>
      <contour>
        <pt x="408" y="407" on="1"/>
        <pt x="385" y="417" on="0"/>
        <pt x="338" y="417" on="0"/>
        <pt x="313" y="412" on="0"/>
        <pt x="298" y="406" on="0"/>
        <pt x="278" y="395" on="0"/>
        <pt x="264" y="376" on="0"/>
        <pt x="257" y="362" on="1"/>
        <pt x="242" y="335" on="0"/>
        <pt x="235" y="285" on="1"/>
        <pt x="227" y="227" on="0"/>
        <pt x="227" y="196" on="1"/>
        <pt x="227" y="129" on="0"/>
        <pt x="278" y="129" on="1"/>
        <pt x="344" y="129" on="0"/>
        <pt x="374" y="180" on="1"/>
      </contour>
    </TTGlyph>
    <TTGlyph name="a.salt" xMin="65" yMin="-8" xMax="582" yMax="538">
      <contour>
        <pt x="260" y="-8" on="1"/>
        <pt x="66" y="-8" on="0"/>
        <pt x="66" y="195" on="1"/>
        <pt x="66" y="236" on="0"/>
        <pt x="74" y="287" on="1"/>
        <pt x="95" y="427" on="0"/>
        <pt x="211" y="538" on="0"/>
        <pt x="320" y="538" on="1"/>
        <pt x="490" y="538" on="0"/>
        <pt x="581" y="471" on="1"/>
        <pt x="520" y="24" on="1"/>
        <pt x="469" y="-8" on="0"/>
      </contour>
      <contour>
        <pt x="229" y="177" on="1"/>
        <pt x="229" y="112" on="0"/>
        <pt x="283" y="112" on="1"/>
        <pt x="366" y="113" on="1"/>
        <pt x="410" y="402" on="1"/>
        <pt x="373" y="416" on="0"/>
        <pt x="288" y="416" on="0"/>
        <pt x="250" y="352" on="0"/>
        <pt x="229" y="206" on="0"/>
      </contour>
    </TTGlyph>
    <TTGlyph name="a.smcp" xMin="23" yMin="0" xMax="590" yMax="570">
      <contour>
        <pt x="24" y="0" on="1"/>
        <pt x="302" y="570" on="1"/>
        <pt x="503" y="570" on="1"/>
        <pt x="590" y="0" on="1"/>
        <pt x="431" y="0" on="1"/>
        <pt x="413" y="103" on="1"/>
        <pt x="245" y="103" on="1"/>
        <pt x="196" y="0" on="1"/>
      </contour>
      <contour>
        <pt x="303" y="230" on="1"/>
        <pt x="400" y="230" on="1"/>
        <pt x="376" y="375" on="1"/>
      </contour>
    </TTGlyph>
    <TTGlyph name="a.superior" xMin="94" yMin="360" xMax="473" yMax="731">
      <contour>
        <pt x="231" y="727" on="0"/>
        <pt x="266" y="730" on="0"/>
        <pt x="295" y="731" on="0"/>
        <pt x="346" y="731" on="0"/>
        <pt x="448" y="709" on="0"/>
        <pt x="472" y="686" on="1"/>
        <pt x="426" y="365" on="1"/>
        <pt x="331" y="365" on="1"/>
        <pt x="311" y="410" on="1"/>
        <pt x="283" y="360" on="0"/>
        <pt x="202" y="360" on="1"/>
        <pt x="142" y="360" on="0"/>
        <pt x="112" y="417" on="1"/>
        <pt x="95" y="451" on="0"/>
        <pt x="95" y="534" on="0"/>
        <pt x="111" y="617" on="0"/>
        <pt x="145" y="678" on="0"/>
        <pt x="180" y="709" on="0"/>
      </contour>
      <contour>
        <pt x="214" y="511" on="1"/>
        <pt x="214" y="462" on="0"/>
        <pt x="246" y="462" on="1"/>
        <pt x="298" y="462" on="0"/>
        <pt x="320" y="496" on="1"/>
        <pt x="340" y="631" on="1"/>
        <pt x="315" y="638" on="0"/>
        <pt x="285" y="638" on="0"/>
        <pt x="263" y="634" on="0"/>
        <pt x="244" y="623" on="0"/>
        <pt x="223" y="586" on="0"/>
        <pt x="214" y="530" on="0"/>
      </contour>
    </TTGlyph>
    <TTGlyph name="aacute" xMin="61" yMin="-6" xMax="583" yMax="742">
      <contour>
        <pt x="303" y="601" on="1"/>
        <pt x="410" y="742" on="1"/>
        <pt x="542" y="742" on="1"/>
        <pt x="402" y="601" on="1"/>
      </contour>
      <contour>
        <pt x="414" y="541" on="0"/>
        <pt x="548" y="513" on="0"/>
        <pt x="583" y="479" on="1"/>
        <pt x="513" y="2" on="1"/>
        <pt x="385" y="2" on="1"/>
        <pt x="360" y="54" on="1"/>
        <pt x="341" y="27" on="0"/>
        <pt x="254" y="-6" on="0"/>
        <pt x="208" y="-6" on="1"/>
        <pt x="127" y="-6" on="0"/>
        <pt x="85" y="74" on="1"/>
        <pt x="61" y="121" on="0"/>
        <pt x="61" y="241" on="0"/>
        <pt x="83" y="349" on="0"/>
        <pt x="112" y="422" on="0"/>
        <pt x="144" y="471" on="0"/>
        <pt x="187" y="506" on="0"/>
        <pt x="224" y="526" on="0"/>
        <pt x="250" y="531" on="1"/>
        <pt x="293" y="541" on="0"/>
      </contour>
      <contour>
        <pt x="408" y="407" on="1"/>
        <pt x="385" y="417" on="0"/>
        <pt x="338" y="417" on="0"/>
        <pt x="313" y="412" on="0"/>
        <pt x="298" y="406" on="0"/>
        <pt x="278" y="395" on="0"/>
        <pt x="264" y="376" on="0"/>
        <pt x="257" y="362" on="1"/>
        <pt x="242" y="335" on="0"/>
        <pt x="235" y="285" on="1"/>
        <pt x="227" y="227" on="0"/>
        <pt x="227" y="196" on="1"/>
        <pt x="227" y="129" on="0"/>
        <pt x="278" y="129" on="1"/>
        <pt x="344" y="129" on="0"/>
        <pt x="374" y="180" on="1"/>
      </contour>
    </TTGlyph>
    <TTGlyph name="aacute.salt" xMin="65" yMin="-8" xMax="582" yMax="740">
      <contour>
        <pt x="310" y="600" on="1"/>
        <pt x="417" y="740" on="1"/>
        <pt x="549" y="740" on="1"/>
        <pt x="409" y="600" on="1"/>
      </contour>
      <contour>
        <pt x="260" y="-8" on="1"/>
        <pt x="66" y="-8" on="0"/>
        <pt x="66" y="195" on="1"/>
        <pt x="66" y="236" on="0"/>
        <pt x="74" y="287" on="1"/>
        <pt x="95" y="427" on="0"/>
        <pt x="211" y="538" on="0"/>
        <pt x="320" y="538" on="1"/>
        <pt x="490" y="538" on="0"/>
        <pt x="581" y="471" on="1"/>
        <pt x="520" y="24" on="1"/>
        <pt x="469" y="-8" on="0"/>
      </contour>
      <contour>
        <pt x="229" y="177" on="1"/>
        <pt x="229" y="112" on="0"/>
        <pt x="283" y="112" on="1"/>
        <pt x="366" y="113" on="1"/>
        <pt x="410" y="402" on="1"/>
        <pt x="373" y="416" on="0"/>
        <pt x="288" y="416" on="0"/>
        <pt x="250" y="352" on="0"/>
        <pt x="229" y="206" on="0"/>
      </contour>
    </TTGlyph>
    <TTGlyph name="aacute.smcp" xMin="23" yMin="0" xMax="603" yMax="771">
      <contour>
        <pt x="363" y="630" on="1"/>
        <pt x="470" y="770" on="1"/>
        <pt x="602" y="770" on="1"/>
        <pt x="462" y="630" on="1"/>
      </contour>
      <contour>
        <pt x="24" y="0" on="1"/>
        <pt x="302" y="570" on="1"/>
        <pt x="503" y="570" on="1"/>
        <pt x="590" y="0" on="1"/>
        <pt x="431" y="0" on="1"/>
        <pt x="413" y="103" on="1"/>
        <pt x="245" y="103" on="1"/>
        <pt x="196" y="0" on="1"/>
      </contour>
      <contour>
        <pt x="303" y="230" on="1"/>
        <pt x="400" y="230" on="1"/>
        <pt x="376" y="375" on="1"/>
      </contour>
    </TTGlyph>
    <TTGlyph name="abreve" xMin="61" yMin="-6" xMax="583" yMax="716">
      <contour>
        <pt x="323" y="715" on="1"/>
        <pt x="322" y="711" on="0"/>
        <pt x="322" y="688" on="0"/>
        <pt x="344" y="663" on="0"/>
        <pt x="368" y="663" on="1"/>
        <pt x="369" y="663" on="0"/>
        <pt x="369" y="663" on="1"/>
        <pt x="423" y="663" on="0"/>
        <pt x="429" y="715" on="1"/>
        <pt x="490" y="715" on="1"/>
        <pt x="485" y="662" on="0"/>
        <pt x="420" y="603" on="0"/>
        <pt x="317" y="603" on="0"/>
        <pt x="261" y="661" on="0"/>
        <pt x="261" y="703" on="1"/>
        <pt x="261" y="709" on="0"/>
        <pt x="261" y="715" on="1"/>
      </contour>
      <contour>
        <pt x="414" y="541" on="0"/>
        <pt x="548" y="513" on="0"/>
        <pt x="583" y="479" on="1"/>
        <pt x="513" y="2" on="1"/>
        <pt x="385" y="2" on="1"/>
        <pt x="360" y="54" on="1"/>
        <pt x="341" y="27" on="0"/>
        <pt x="254" y="-6" on="0"/>
        <pt x="208" y="-6" on="1"/>
        <pt x="127" y="-6" on="0"/>
        <pt x="85" y="74" on="1"/>
        <pt x="61" y="121" on="0"/>
        <pt x="61" y="241" on="0"/>
        <pt x="83" y="349" on="0"/>
        <pt x="112" y="422" on="0"/>
        <pt x="144" y="471" on="0"/>
        <pt x="187" y="506" on="0"/>
        <pt x="224" y="526" on="0"/>
        <pt x="250" y="531" on="1"/>
        <pt x="293" y="541" on="0"/>
      </contour>
      <contour>
        <pt x="408" y="407" on="1"/>
        <pt x="385" y="417" on="0"/>
        <pt x="338" y="417" on="0"/>
        <pt x="313" y="412" on="0"/>
        <pt x="298" y="406" on="0"/>
        <pt x="278" y="395" on="0"/>
        <pt x="264" y="376" on="0"/>
        <pt x="257" y="362" on="1"/>
        <pt x="242" y="335" on="0"/>
        <pt x="235" y="285" on="1"/>
        <pt x="227" y="227" on="0"/>
        <pt x="227" y="196" on="1"/>
        <pt x="227" y="129" on="0"/>
        <pt x="278" y="129" on="1"/>
        <pt x="344" y="129" on="0"/>
        <pt x="374" y="180" on="1"/>
      </contour>
    </TTGlyph>
    <TTGlyph name="abreve.salt" xMin="65" yMin="-8" xMax="582" yMax="711">
      <contour>
        <pt x="319" y="711" on="1"/>
        <pt x="319" y="706" on="0"/>
        <pt x="319" y="683" on="0"/>
        <pt x="340" y="658" on="0"/>
        <pt x="364" y="658" on="1"/>
        <pt x="365" y="658" on="0"/>
        <pt x="365" y="658" on="1"/>
        <pt x="419" y="658" on="0"/>
        <pt x="425" y="711" on="1"/>
        <pt x="487" y="711" on="1"/>
        <pt x="481" y="657" on="0"/>
        <pt x="417" y="598" on="0"/>
        <pt x="314" y="598" on="0"/>
        <pt x="257" y="656" on="0"/>
        <pt x="257" y="698" on="1"/>
        <pt x="257" y="704" on="0"/>
        <pt x="257" y="711" on="1"/>
      </contour>
      <contour>
        <pt x="260" y="-8" on="1"/>
        <pt x="66" y="-8" on="0"/>
        <pt x="66" y="195" on="1"/>
        <pt x="66" y="236" on="0"/>
        <pt x="74" y="287" on="1"/>
        <pt x="95" y="427" on="0"/>
        <pt x="211" y="538" on="0"/>
        <pt x="320" y="538" on="1"/>
        <pt x="490" y="538" on="0"/>
        <pt x="581" y="471" on="1"/>
        <pt x="520" y="24" on="1"/>
        <pt x="469" y="-8" on="0"/>
      </contour>
      <contour>
        <pt x="229" y="177" on="1"/>
        <pt x="229" y="112" on="0"/>
        <pt x="283" y="112" on="1"/>
        <pt x="366" y="113" on="1"/>
        <pt x="410" y="402" on="1"/>
        <pt x="373" y="416" on="0"/>
        <pt x="288" y="416" on="0"/>
        <pt x="250" y="352" on="0"/>
        <pt x="229" y="206" on="0"/>
      </contour>
    </TTGlyph>
    <TTGlyph name="abreve.smcp" xMin="23" yMin="0" xMax="590" yMax="743">
      <contour>
        <pt x="375" y="742" on="1"/>
        <pt x="375" y="738" on="0"/>
        <pt x="375" y="715" on="0"/>
        <pt x="396" y="690" on="0"/>
        <pt x="420" y="690" on="1"/>
        <pt x="421" y="690" on="0"/>
        <pt x="421" y="690" on="1"/>
        <pt x="475" y="690" on="0"/>
        <pt x="481" y="742" on="1"/>
        <pt x="543" y="742" on="1"/>
        <pt x="537" y="689" on="0"/>
        <pt x="472" y="630" on="0"/>
        <pt x="370" y="630" on="0"/>
        <pt x="313" y="688" on="0"/>
        <pt x="313" y="730" on="1"/>
        <pt x="313" y="736" on="0"/>
        <pt x="313" y="742" on="1"/>
      </contour>
      <contour>
        <pt x="24" y="0" on="1"/>
        <pt x="302" y="570" on="1"/>
        <pt x="503" y="570" on="1"/>
        <pt x="590" y="0" on="1"/>
        <pt x="431" y="0" on="1"/>
        <pt x="413" y="103" on="1"/>
        <pt x="245" y="103" on="1"/>
        <pt x="196" y="0" on="1"/>
      </contour>
      <contour>
        <pt x="303" y="230" on="1"/>
        <pt x="400" y="230" on="1"/>
        <pt x="376" y="375" on="1"/>
      </contour>
    </TTGlyph>
    <TTGlyph name="acircumflex" xMin="61" yMin="-6" xMax="583" yMax="739">
      <contour>
        <pt x="193" y="601" on="1"/>
        <pt x="319" y="739" on="1"/>
        <pt x="435" y="739" on="1"/>
        <pt x="508" y="601" on="1"/>
        <pt x="408" y="601" on="1"/>
        <pt x="371" y="660" on="1"/>
        <pt x="305" y="601" on="1"/>
      </contour>
      <contour>
        <pt x="414" y="541" on="0"/>
        <pt x="548" y="513" on="0"/>
        <pt x="583" y="479" on="1"/>
        <pt x="513" y="2" on="1"/>
        <pt x="385" y="2" on="1"/>
        <pt x="360" y="54" on="1"/>
        <pt x="341" y="27" on="0"/>
        <pt x="254" y="-6" on="0"/>
        <pt x="208" y="-6" on="1"/>
        <pt x="127" y="-6" on="0"/>
        <pt x="85" y="74" on="1"/>
        <pt x="61" y="121" on="0"/>
        <pt x="61" y="241" on="0"/>
        <pt x="83" y="349" on="0"/>
        <pt x="112" y="422" on="0"/>
        <pt x="144" y="471" on="0"/>
        <pt x="187" y="506" on="0"/>
        <pt x="224" y="526" on="0"/>
        <pt x="250" y="531" on="1"/>
        <pt x="293" y="541" on="0"/>
      </contour>
      <contour>
        <pt x="408" y="407" on="1"/>
        <pt x="385" y="417" on="0"/>
        <pt x="338" y="417" on="0"/>
        <pt x="313" y="412" on="0"/>
        <pt x="298" y="406" on="0"/>
        <pt x="278" y="395" on="0"/>
        <pt x="264" y="376" on="0"/>
        <pt x="257" y="362" on="1"/>
        <pt x="242" y="335" on="0"/>
        <pt x="235" y="285" on="1"/>
        <pt x="227" y="227" on="0"/>
        <pt x="227" y="196" on="1"/>
        <pt x="227" y="129" on="0"/>
        <pt x="278" y="129" on="1"/>
        <pt x="344" y="129" on="0"/>
        <pt x="374" y="180" on="1"/>
      </contour>
    </TTGlyph>
    <TTGlyph name="acircumflex.salt" xMin="65" yMin="-8" xMax="582" yMax="736">
      <contour>
        <pt x="199" y="598" on="1"/>
        <pt x="325" y="736" on="1"/>
        <pt x="441" y="736" on="1"/>
        <pt x="514" y="598" on="1"/>
        <pt x="414" y="598" on="1"/>
        <pt x="377" y="657" on="1"/>
        <pt x="311" y="598" on="1"/>
      </contour>
      <contour>
        <pt x="260" y="-8" on="1"/>
        <pt x="66" y="-8" on="0"/>
        <pt x="66" y="195" on="1"/>
        <pt x="66" y="236" on="0"/>
        <pt x="74" y="287" on="1"/>
        <pt x="95" y="427" on="0"/>
        <pt x="211" y="538" on="0"/>
        <pt x="320" y="538" on="1"/>
        <pt x="490" y="538" on="0"/>
        <pt x="581" y="471" on="1"/>
        <pt x="520" y="24" on="1"/>
        <pt x="469" y="-8" on="0"/>
      </contour>
      <contour>
        <pt x="229" y="177" on="1"/>
        <pt x="229" y="112" on="0"/>
        <pt x="283" y="112" on="1"/>
        <pt x="366" y="113" on="1"/>
        <pt x="410" y="402" on="1"/>
        <pt x="373" y="416" on="0"/>
        <pt x="288" y="416" on="0"/>
        <pt x="250" y="352" on="0"/>
        <pt x="229" y="206" on="0"/>
      </contour>
    </TTGlyph>
    <TTGlyph name="acircumflex.smcp" xMin="23" yMin="0" xMax="590" yMax="768">
      <contour>
        <pt x="255" y="630" on="1"/>
        <pt x="381" y="768" on="1"/>
        <pt x="497" y="768" on="1"/>
        <pt x="570" y="630" on="1"/>
        <pt x="470" y="630" on="1"/>
        <pt x="433" y="689" on="1"/>
        <pt x="367" y="630" on="1"/>
      </contour>
      <contour>
        <pt x="24" y="0" on="1"/>
        <pt x="302" y="570" on="1"/>
        <pt x="503" y="570" on="1"/>
        <pt x="590" y="0" on="1"/>
        <pt x="431" y="0" on="1"/>
        <pt x="413" y="103" on="1"/>
        <pt x="245" y="103" on="1"/>
        <pt x="196" y="0" on="1"/>
      </contour>
      <contour>
        <pt x="303" y="230" on="1"/>
        <pt x="400" y="230" on="1"/>
        <pt x="376" y="375" on="1"/>
      </contour>
    </TTGlyph>
    <TTGlyph name="acute" xMin="97" yMin="531" xMax="337" yMax="672">
      <contour>
        <pt x="97" y="531" on="1"/>
        <pt x="204" y="672" on="1"/>
        <pt x="337" y="672" on="1"/>
        <pt x="196" y="531" on="1"/>
      </contour>
    </TTGlyph>
    <TTGlyph name="acute.smcp" xMin="97" yMin="531" xMax="337" yMax="672">
      <contour>
        <pt x="97" y="531" on="1"/>
        <pt x="204" y="672" on="1"/>
        <pt x="337" y="672" on="1"/>
        <pt x="196" y="531" on="1"/>
      </contour>
    </TTGlyph>
</ttFont>
